<svg width="81" height="54" viewBox="0 0 81 54" fill="none" xmlns="http://www.w3.org/2000/svg">
<g clip-path="url(#clip0_644_1103)">
<path d="M18.3616 24.0104H64.5206L64.5039 23.9936H69.18L40.2281 52.606L11.2679 23.9852H15.944L15.9273 24.002H18.3616V24.0104ZM60.5806 20.8191H59.8696L62.0612 22.9858L62.078 23.0026H18.3616L18.3783 22.9858L20.57 20.8191H19.1479L17.6589 22.2888L16.9562 22.9858H8.82526L10.5568 24.699L39.5087 53.3115L40.2114 54.0001L40.9141 53.3115L69.8659 24.699L71.5975 22.9858H63.4666L62.7639 22.2888L61.2749 20.8191H60.5639H60.5806Z" fill="black"/>
<path d="M27.3625 13.3446C27.856 12.9079 28.0317 12.3117 28.0986 11.9841L26.3503 13.7141C26.6849 13.6806 27.1032 13.5882 27.3708 13.3446" fill="black"/>
<path d="M20.7791 19.3828H20.8126H20.8209H21.8331C22.1426 19.3828 22.335 19.0469 22.335 18.7361V17.678L20.6452 19.3408C20.6452 19.3408 20.6703 19.3576 20.6787 19.366C20.7038 19.366 20.7624 19.366 20.7791 19.366" fill="black"/>
<path d="M40.2198 0L39.5171 0.688647L31.6371 8.48211H31.8128H32.0303H32.3481H33.0592L40.2198 1.40249L47.3804 8.48211H47.8823H48.0663H48.0914H48.8024L40.9224 0.688647L40.2198 0Z" fill="black"/>
<path d="M56.0634 16.3594V15.6624L53.3615 12.9834V13.6888V14.3943L56.0634 17.0649V16.3594Z" fill="black"/>
<path d="M49.4382 10.5144C49.4382 10.1953 49.1789 9.94336 48.8694 9.94336H48.861L49.4382 10.5144Z" fill="black"/>
<path d="M29.5625 11.9337L30.4074 11.1023C30.2819 10.9931 30.1565 10.8924 30.0059 10.7916C29.8721 10.6992 29.7215 10.6068 29.5625 10.5312L28.8515 11.2367H29.5625V11.9337Z" fill="black"/>
<path d="M55.4615 30.8547C55.4615 30.8547 55.4701 30.8547 55.4787 30.7959H55.4444C55.4444 30.7959 55.4615 30.8463 55.4615 30.8547Z" fill="black"/>
<path d="M72.8189 26.4288H72.685V26.0761C72.685 26.0761 72.7687 26.0593 72.844 26.0593C73.0196 26.0593 73.1033 26.1349 73.1033 26.2441C73.1033 26.37 72.9778 26.4204 72.8189 26.4204M73.1535 26.5128V26.496C73.2957 26.454 73.4044 26.3533 73.4044 26.2021C73.4044 26.0845 73.3542 25.9921 73.2789 25.9417C73.1953 25.883 73.0949 25.8494 72.8607 25.8494C72.6599 25.8494 72.5094 25.8746 72.3922 25.883V27.1007H72.6767V26.6136H72.8105C72.9694 26.6136 73.0364 26.6724 73.0615 26.7984C73.0949 26.9495 73.12 27.0503 73.1535 27.0923H73.4463C73.4212 27.0503 73.3961 26.9831 73.3542 26.7984C73.3208 26.6304 73.2539 26.538 73.1367 26.5044" fill="black"/>
<path d="M72.8774 27.4534C72.3337 27.4534 71.9322 27.0251 71.9322 26.4792C71.9322 25.9333 72.3421 25.505 72.8691 25.505C73.3961 25.505 73.806 25.9417 73.806 26.4876C73.806 27.0335 73.4044 27.4618 72.8774 27.4534ZM72.8774 25.2615C72.1748 25.2615 71.6227 25.799 71.6227 26.4792C71.6227 27.1595 72.1748 27.7053 72.8774 27.7053C73.5801 27.7053 74.1238 27.1595 74.1238 26.4792C74.1238 25.799 73.5801 25.2615 72.8858 25.2615" fill="black"/>
<path d="M32.6577 35.6754L33.4942 33.8278H33.6364L34.3474 35.6754H32.6577ZM32.6744 32.7192L29.7633 37.7665L29.4287 38.3628H31.5953L32.323 36.8511H34.4645L35.0166 38.3628H37.0828L34.9079 32.7192H32.6827H32.6744Z" fill="black"/>
<path d="M42.2776 33.8527C42.1772 32.845 40.73 32.7274 40.2783 32.719H37.1414L37.0828 38.3625H38.622L38.7893 33.8779H39.9604C39.9604 33.8779 40.5962 33.9451 40.5962 34.4658C40.5962 34.9865 40.0859 35.23 39.6509 35.23H39.0235L40.2281 38.3625H42.0936H42.0852L40.9643 35.8011C40.9643 35.8011 42.2609 35.3308 42.2776 34.2055C42.2776 34.1215 42.2776 34.0459 42.2776 33.9871C42.3278 35.0705 42.3529 34.0543 42.3529 33.9199H42.2776C42.2776 33.5672 42.2776 33.6848 42.2692 33.8527" fill="black"/>
<path d="M47.7484 32.719H42.4365C42.4365 33.2649 42.4365 33.8527 42.4282 33.9031C42.4282 33.9031 42.4282 33.9031 42.4282 33.9199H42.5035H44.1598L44.1012 38.3709H45.7826L45.9583 33.9199H47.6815L47.7484 32.7274V32.719Z" fill="black"/>
<path d="M49.8732 34.7766C49.296 34.3147 49.5135 33.9872 49.5135 33.9872C50.2162 33.4329 51.4542 33.9872 51.4542 33.9872V32.7694C51.4542 32.7694 50.5257 32.5679 50.0405 32.5679C49.5553 32.5679 48.9865 32.719 48.9865 32.719C48.9865 32.719 47.7568 33.1809 47.6982 34.0627C47.6397 34.9445 48.7104 35.7088 49.3127 36.1707C49.915 36.6326 49.7895 36.9349 49.6222 37.1113C49.4633 37.2876 49.1956 37.3716 48.8861 37.3716C48.5766 37.3716 47.5477 36.8425 47.5477 36.8425V38.1106C47.5477 38.1106 48.8108 38.497 49.9401 38.3458C51.0694 38.1946 51.5546 37.3044 51.588 36.7501C51.6215 36.1959 50.4504 35.2301 49.8732 34.7682" fill="black"/>
<path d="M32.0972 26.2609H32.2394L32.9504 28.1085H31.2607L32.0972 26.2609ZM30.926 29.2842H33.0675L33.6196 30.7959H35.6858L33.5109 25.1523H31.2774L28.3663 30.1996L28.383 25.1523H26.1746L24.8948 28.5116C24.8948 28.5116 24.4765 26.79 24.0917 25.1523H21.8331L21.3312 30.7959H22.8537C22.9122 28.9987 22.9708 27.1511 22.9708 27.0755L24.0331 30.7959H25.6225L26.6849 27.0755C26.6849 27.1511 26.7435 28.9987 26.802 30.7959H30.1899L30.9177 29.2842H30.926Z" fill="black"/>
<path d="M37.384 26.3114H38.5551C38.5551 26.3114 39.1909 26.3786 39.1909 26.8993C39.1909 27.4199 38.6806 27.6635 38.2456 27.6635H37.6182L38.8228 30.796H40.6882H40.6799L39.5589 28.2346C39.5589 28.2346 40.8555 27.7643 40.8723 26.6305C40.8723 26.5465 40.8723 26.4709 40.8723 26.4122C40.9224 27.4955 40.9475 26.4793 40.9475 26.345H40.8723C40.8723 25.9923 40.8723 26.1098 40.8639 26.2778C40.7635 25.27 39.3163 25.1524 38.8646 25.144H35.7277L35.6691 30.7876H37.2083L37.3756 26.303L37.384 26.3114Z" fill="black"/>
<path d="M41.0312 26.3449H42.6875L42.6289 30.7959H44.3103L44.486 26.3449H46.2092L46.2762 25.1523H40.9559C40.9559 25.6982 40.9559 26.2861 40.9475 26.3365C40.9475 26.3365 40.9475 26.3365 40.9475 26.3533H41.0228L41.0312 26.3449Z" fill="black"/>
<path d="M51.0276 28.1085L51.8641 26.2609H52.0063L52.7173 28.1085H51.0276ZM50.9523 25.1523C49.7142 27.5794 48.1583 30.6279 48.1751 30.5523C48.1918 30.4768 48.3089 27.4702 48.3925 25.1523H46.5104L46.2678 30.7959H49.9736L50.7013 29.2842H52.8428L53.3949 30.7959H55.4444C55.2687 30.3172 54.0223 27.2183 53.1942 25.1523H50.9607H50.9523Z" fill="black"/>
<path d="M57.3516 25.1524H55.7037C55.6201 27.5123 55.5197 30.3509 55.4695 30.796H59.7692V29.6035L57.2011 29.6286L57.3516 25.144V25.1524Z" fill="black"/>
<path d="M48.3089 8.98584V9.43934H48.8694C48.9447 9.43934 49.0199 9.43934 49.0869 9.46453C49.4968 9.54852 49.823 9.86764 49.915 10.2792C49.9317 10.3547 49.9401 10.4303 49.9401 10.5143V18.7445C49.9401 19.3323 49.4633 19.8194 48.8694 19.8194H48.3089V20.3317H54.5159V19.8194H53.9303C53.3447 19.8194 52.8596 19.3407 52.8596 18.7445V10.5143C52.8596 9.91803 53.3364 9.43934 53.9303 9.43934H54.5159V8.98584H48.3089Z" fill="black"/>
<path d="M22.8286 10.5816V18.7362C22.8286 19.3325 22.4187 19.8784 21.8331 19.8784H21.2475V20.3151H31.6873L32.4485 16.8298H31.8797C30.4158 19.8868 27.9648 19.7524 27.9648 19.7524H26.7184C25.656 19.7524 25.7982 18.7446 25.7982 18.7446V14.9067C25.7982 14.9067 25.84 14.9067 25.8568 14.9067C26.0575 14.9067 26.2834 14.9067 26.526 14.9487C26.9359 15.0074 27.3709 15.1418 27.6971 15.419C28.5587 16.1748 28.6256 17.2581 28.634 17.4009H29.069V11.7406H28.634C28.634 11.791 28.6173 11.9841 28.5587 12.2361C28.4583 12.656 28.2325 13.2606 27.6971 13.7309C27.3876 13.9997 26.9777 14.134 26.5762 14.1928C26.3001 14.2348 26.0408 14.2432 25.8149 14.2348C25.8066 14.2348 25.7982 14.2348 25.7898 14.2348V10.3717C25.7898 9.63264 26.5762 9.60745 26.5762 9.60745H27.6887C28.5922 9.60745 29.3367 9.8426 29.9306 10.1701C30.0812 10.2541 30.2317 10.3465 30.3656 10.4473C30.5078 10.548 30.6333 10.6572 30.7587 10.7664C31.6287 11.539 31.9884 12.4208 31.9884 12.4208H32.5071L31.7375 9.80061L31.5785 9.25473L31.5032 8.99438H21.2559V9.52347H21.7662C22.3517 9.52347 22.8369 10.0022 22.8369 10.5984" fill="black"/>
<path d="M56.5653 10.5816V18.7362C56.5653 19.3325 56.0885 19.8112 55.4946 19.8112H54.9843V20.3151H65.424L66.1853 16.8298H65.6164C64.1525 19.8868 61.7015 19.7524 61.7015 19.7524H60.4551C60.3547 19.7524 60.2711 19.744 60.1958 19.7272C59.7608 19.6432 59.6102 19.3409 59.5517 19.0973C59.5099 18.9042 59.535 18.7446 59.535 18.7446V14.9067C60.0703 14.8899 60.9068 14.9571 61.4338 15.419C62.2955 16.1748 62.3624 17.2581 62.3707 17.4009H62.8057V11.7406H62.3707C62.3707 11.8833 62.2955 12.9751 61.4338 13.7225C60.9068 14.1844 60.062 14.2516 59.535 14.2348V10.3717C59.535 9.63264 60.3213 9.60745 60.3213 9.60745H61.4338C64.5875 9.60745 65.7252 12.4208 65.7252 12.4208H66.2438L65.24 8.99438H54.9927V9.52347H55.5029C56.0885 9.52347 56.5737 10.0022 56.5737 10.5984" fill="black"/>
<path d="M47.2967 9.43934H47.6313V8.98584H43.4906L40.0692 16.7961L36.7231 8.98584H32.4485V9.43934H32.85C33.444 9.43934 33.9208 9.91803 33.9208 10.5143V18.7445C33.9208 19.3407 33.444 19.8194 32.85 19.8194H32.4485V20.3317H36.3718V19.8194H35.7611C35.1672 19.8194 34.6904 19.3407 34.6904 18.7445V10.5143C34.6904 9.92643 37.5596 17.3672 37.5596 17.3672L38.781 20.3149H39.4083L40.6631 17.3672C40.6631 17.3672 43.5324 9.91803 43.5324 10.5143V18.7445C43.5324 19.3407 43.0556 19.8194 42.4616 19.8194H42.035V20.3317H47.6229V19.8194H47.2883C46.6944 19.8194 46.2176 19.3407 46.2176 18.7445V10.5143C46.2176 9.92643 46.6944 9.43934 47.2883 9.43934" fill="black"/>
<path d="M5.53775 14.5958C5.11112 14.5958 4.73469 14.579 4.41681 14.5538V9.80046C4.77652 9.67449 5.16131 9.6073 5.53775 9.6073C6.84271 9.6073 7.35299 10.7243 7.35299 12.1015C7.35299 13.6888 6.54157 14.5958 5.53775 14.5958ZM10.3561 12.1099C10.3561 9.5989 8.44046 9.05302 5.95601 8.98584C5.88908 8.98584 5.8138 8.98584 5.73851 8.98584H0V9.43934L0.476815 9.51492C1.05401 9.51492 1.53083 9.97682 1.54756 10.5563V25.6309C1.53083 26.2104 1.06238 26.6723 0.476815 26.6723L0 26.7479V27.2014H5.95601V26.7479L5.47919 26.6723C4.89363 26.6723 4.40845 26.1936 4.40845 25.5973V15.3012L5.94764 15.2257C6.41609 15.2089 6.85944 15.1669 7.2777 15.1081C9.07622 14.8225 10.3394 14.0163 10.3394 12.1099" fill="black"/>
<path d="M13.6185 9.80056C13.9782 9.67458 14.363 9.6074 14.7394 9.6074C16.0444 9.6074 16.5547 10.7244 16.5547 12.1016C16.5547 13.6889 16.0109 14.134 14.9486 14.4111C14.5303 14.5203 13.9364 14.5791 13.6185 14.5539V9.80056ZM10.8998 10.4388V18.8789C10.8998 19.3912 10.4816 19.8111 9.97128 19.8111L9.49447 19.8783V20.315H15.0071V19.8783L14.5219 19.8111C14.0117 19.8111 13.5934 19.3912 13.5934 18.8789V15.1586L14.0451 15.1334L17.3996 20.315H20.7958V19.8783C20.6871 19.8783 20.5198 19.8783 20.3692 19.7691C20.3357 19.7439 20.3106 19.7188 20.2772 19.6852C20.043 19.4584 19.8087 19.0889 19.8087 19.0889L16.7973 14.873C18.3197 14.5287 19.3486 13.7141 19.3486 12.0345C19.3486 9.599 17.4581 9.05312 14.9988 8.97754H14.7311H9.47774V9.43104L9.95455 9.50662C10.4648 9.50662 10.8831 9.92653 10.8831 10.4388" fill="black"/>
<path d="M71.1542 14.411C70.7359 14.5202 70.5184 14.5706 70.1922 14.5454V9.79206C70.5519 9.66609 70.5603 9.6073 70.9451 9.6073C72.25 9.6073 72.7603 10.7243 72.7603 12.1015C72.7603 13.6888 72.2166 14.1339 71.1542 14.411ZM80.565 26.5463C80.2973 26.3448 79.9962 25.8661 79.9962 25.8661L73.6805 14.789C75.0858 14.1675 75.7969 13.1093 75.7969 12.0428C75.7969 9.6073 73.8645 9.06142 71.3633 8.98584H71.0956H65.7336V9.43934L66.2271 9.50652C66.7457 9.50652 67.1724 9.92643 67.1724 10.4387V18.8788C67.1724 19.3911 66.7457 19.811 66.2271 19.811L65.7336 19.8866V20.3233H71.8067V19.8866L71.3048 19.811C70.7861 19.811 70.2256 19.3911 70.2256 18.8788V15.1585L70.6857 15.1417L77.3611 27.0838H81V26.6471C80.8912 26.6471 80.7156 26.6471 80.565 26.5463Z" fill="black"/>
</g>
<defs>
<clipPath id="clip0_644_1103">
<rect width="81" height="54" fill="white"/>
</clipPath>
</defs>
</svg>
