<svg width="129" height="31" viewBox="0 0 129 31" fill="none" xmlns="http://www.w3.org/2000/svg">
<g clip-path="url(#clip0_644_1135)">
<path d="M103.2 14.2385C103.025 14.1885 102.816 14.1136 102.599 14.0136C102.224 13.8305 101.749 13.4891 101.382 13.0228C101.056 12.5981 100.931 12.0486 101.048 11.524C101.181 10.9411 101.465 10.4332 101.724 10.1085C101.882 9.91695 102.041 9.75874 102.182 9.63384C102.408 9.434 102.449 9.09261 102.274 8.84281L100.839 6.80279C100.664 6.55299 100.322 6.47805 100.055 6.62793C99.8968 6.71952 99.6966 6.81112 99.4714 6.89438C99.0793 7.03594 98.4955 7.12753 97.9032 7.06091C97.3694 6.9943 96.8939 6.68622 96.6019 6.23658C96.285 5.73698 96.1265 5.17077 96.0848 4.75444C96.0598 4.51297 96.0598 4.29648 96.0681 4.11329C96.0931 3.80521 95.8762 3.53043 95.576 3.47214L93.1152 3.04749C92.8149 2.99753 92.523 3.18071 92.4312 3.48047C92.3812 3.65533 92.3061 3.86349 92.206 4.07999C92.0225 4.45468 91.6889 4.9293 91.2134 5.29567C90.788 5.62874 90.2374 5.75364 89.7119 5.63706C89.128 5.50384 88.6192 5.22073 88.2939 4.95428C88.102 4.8044 87.9519 4.6462 87.8268 4.51297C87.6266 4.27982 87.2762 4.23819 87.026 4.41305L86.0083 5.12914L84.9907 5.84523C84.7405 6.02009 84.6654 6.36148 84.8155 6.63626C84.8823 6.76116 84.9573 6.92769 85.0241 7.09422H86.9259V16.6615H90.2374C89.4367 15.9371 89.0029 14.8296 89.2031 13.6806C89.5117 11.8987 91.2134 10.708 92.9985 11.0161C94.7835 11.3241 95.9763 13.0228 95.6677 14.8047C95.4008 16.3201 94.1329 17.4026 92.6565 17.5025V24.4386C92.6565 24.4386 92.6565 24.4136 92.6731 24.4053C92.8566 24.0306 93.1903 23.5559 93.6658 23.1896C94.0912 22.8565 94.6501 22.7316 95.1672 22.8565C95.7511 22.9897 96.2599 23.2728 96.5853 23.531C96.7771 23.6808 96.9273 23.8391 97.0524 23.9723C97.2609 24.2054 97.6029 24.2554 97.8532 24.0722L98.8792 23.3561L99.8968 22.64C100.147 22.4652 100.222 22.1321 100.08 21.8656C99.9886 21.6991 99.8885 21.4993 99.8134 21.2661C99.6716 20.8748 99.5798 20.2919 99.6549 19.7007C99.7216 19.1678 100.022 18.6932 100.481 18.4018C100.981 18.0854 101.548 17.9272 101.965 17.8772C102.207 17.8522 102.424 17.8522 102.608 17.8689C102.916 17.8855 103.192 17.6774 103.25 17.3776L103.675 14.9212C103.726 14.6132 103.542 14.3301 103.242 14.2385H103.2Z" fill="black"/>
<path d="M60.4753 8.78458C59.5577 8.60972 58.5985 8.54311 57.6726 8.54311H51.892V19.4593L47.7212 8.54311H41.1315L35.9765 22.0489V8.53478H29.7789V15.6457L29.7288 15.6707L24.8074 8.53478H18.7432V1.93178C16.5077 0.774375 12.9792 0 10.0014 0C3.79534 0 0 3.3473 0 8.25168C0 10.6164 0.88419 12.2068 2.16877 13.3642C4.67953 15.5624 8.09952 15.9371 9.284 16.2369C9.72609 16.3368 10.0264 16.545 10.0264 17.0113C10.0264 17.4193 9.79282 17.8273 8.77517 17.8273C7.31542 17.8273 3.99554 17.0529 0.70902 14.9213V23.2479C3.11135 24.4969 6.8066 25.2463 9.89292 25.2463C13.8801 25.2463 16.8497 23.989 18.5346 21.9157V25.263H24.7323V18.152L24.7823 18.127L29.7038 25.263H41.5903L42.2409 23.0731H46.078L46.6535 25.263H58.0479V19.451H58.44C60.2334 19.451 61.9017 19.068 63.1612 18.2686C64.2706 17.5692 65.0464 16.52 65.3216 15.0962C65.3884 14.7381 65.4468 14.3717 65.4468 13.9637C65.4468 10.7164 63.1529 9.30083 60.4669 8.79291L60.4753 8.78458ZM18.5346 12.8313C18.2677 12.5316 17.9841 12.2401 17.6504 11.9737C15.2481 10.0752 11.8532 9.67553 10.8355 9.36745C10.4268 9.23422 10.0597 9.02605 10.0597 8.51813C10.0597 8.14343 10.335 7.77706 11.311 7.77706C12.5371 7.77706 15.4233 8.33494 18.5263 9.85039V12.8313H18.5346ZM42.9416 19.9672L44.1678 14.3468H44.2429L45.4691 19.9672H42.9416ZM57.3723 16.1953H57.0636V11.4741H57.3723C58.4566 11.4741 59.2074 11.8238 59.6828 12.34C60.0582 12.7481 60.2751 13.256 60.2751 13.8305C60.2751 15.1461 59.3492 16.1869 57.3723 16.1869V16.1953Z" fill="black"/>
<path d="M121.484 8.42656L119.566 12.2318H119.516L117.622 8.42656H109.856C109.022 8.26835 108.13 8.17676 107.187 8.17676C106.036 8.17676 104.985 8.35994 103.984 8.6264L104.051 8.72631C104.226 8.98444 104.184 9.35081 103.951 9.5673C103.809 9.70053 103.65 9.86706 103.484 10.0752C103.217 10.4249 102.925 10.9662 102.791 11.5823C102.666 12.1402 102.791 12.7231 103.117 13.1727C103.475 13.664 103.951 14.022 104.326 14.2136C104.543 14.3218 104.752 14.3967 104.927 14.4467C105.068 14.4883 105.185 14.5883 105.26 14.7132C105.878 14.2635 106.712 13.9804 107.788 13.9804C109.339 13.9804 111.416 14.5383 112.759 15.1128V13.0062L116.004 18.0938V25.1547H122.894V17.8856L129 8.44321H121.484V8.42656Z" fill="black"/>
<path d="M106.336 19.3512H108.005V20.2088C107.863 20.2588 107.638 20.3004 107.312 20.3004C105.986 20.3004 104.752 19.5677 104.284 18.302C104.276 18.302 104.268 18.3103 104.259 18.302C104.076 18.2937 103.859 18.2937 103.617 18.3187C103.2 18.3686 102.633 18.5435 102.124 18.8932C101.665 19.2013 101.357 19.7175 101.281 20.2838C101.198 20.9166 101.29 21.5244 101.423 21.9408C101.507 22.1906 101.598 22.3987 101.69 22.5736C101.832 22.8567 101.749 23.2064 101.498 23.3979L100.981 23.7893C102.574 24.8051 104.61 25.4046 107.029 25.4046C109.781 25.4046 111.95 24.6469 113.176 23.8809V15.6208H106.328V19.3595L106.336 19.3512Z" fill="black"/>
<path d="M84.8989 8.80127H76.8244V10.8246C77.4 10.9162 77.9505 10.8996 78.3509 10.8163C78.6262 10.7497 78.8598 10.6664 79.0516 10.5832C79.3769 10.4416 79.769 10.5748 79.9525 10.8913L81.4289 13.4892C81.6124 13.8139 81.529 14.2052 81.2371 14.4217C81.0702 14.5466 80.87 14.7048 80.6782 14.9047C80.3445 15.2544 79.9692 15.8123 79.7606 16.4784C79.5771 17.0779 79.6689 17.7441 80.0109 18.2936C80.3946 18.8931 80.9117 19.3594 81.3372 19.6259C81.5874 19.7841 81.8293 19.9007 82.0295 19.9839C82.3631 20.1255 82.5383 20.4918 82.4549 20.8332L82.0962 22.2488L81.7375 23.6726C81.6458 24.0223 81.3121 24.2305 80.9535 24.1722C80.7449 24.1306 80.4863 24.0973 80.2111 24.0973C79.7273 24.0973 79.06 24.2055 78.451 24.5136C78.034 24.7218 77.7503 25.0965 77.5668 25.5211H90.9798V18.5684H84.9156V8.80127H84.8989Z" fill="black"/>
<path d="M79.11 23.9224C79.4436 23.9724 79.7606 23.7808 79.8524 23.4561L80.2111 22.1488L80.5697 20.8415C80.6615 20.5251 80.4947 20.1837 80.186 20.0672C79.9942 19.9922 79.7773 19.8923 79.5437 19.7508C79.1517 19.5176 78.6762 19.1013 78.3259 18.5517C78.0173 18.0605 77.9339 17.4443 78.1174 16.8947C78.3176 16.2786 78.6846 15.754 79.0016 15.4292C79.1851 15.2461 79.3769 15.0879 79.5354 14.9796C79.8107 14.7798 79.8941 14.4134 79.7273 14.122L78.3843 11.7655C78.2175 11.4741 77.8588 11.3575 77.5501 11.4908C77.3666 11.574 77.1414 11.649 76.8912 11.7156C76.4491 11.8238 75.8151 11.8654 75.1812 11.7239C74.614 11.599 74.1218 11.216 73.8632 10.6997C73.5713 10.1252 73.4545 9.49236 73.4545 9.04273C73.4545 8.77627 73.4795 8.52648 73.5129 8.32664C73.5629 8.0019 73.3628 7.69381 73.0374 7.60222L70.4182 6.87781C70.0929 6.78621 69.7593 6.96107 69.6341 7.27748C69.5591 7.46067 69.459 7.67716 69.3255 7.90198C69.092 8.29333 68.6749 8.77627 68.1243 9.11767C67.6322 9.42575 67.0149 9.50902 66.4644 9.32583C65.8471 9.12599 65.33 8.75962 65.0047 8.44321C64.8128 8.26002 64.6627 8.07684 64.5459 7.91031C64.3457 7.63553 63.9787 7.55226 63.6867 7.71879L62.0018 8.67635C64.9463 9.23424 67.457 10.7747 67.457 14.3468C67.457 14.7964 67.3986 15.1961 67.3236 15.5874C68.9251 15.0212 70.7436 15.6541 71.6111 17.1778C72.587 18.8848 71.9864 21.0664 70.2681 22.0323C68.5581 23.0065 66.3727 22.4069 65.405 20.6917C65.1131 20.1754 64.9796 19.6175 64.9546 19.0596C63.5533 19.9506 61.7015 20.3586 59.7162 20.3586V26.2788C59.8413 26.2289 59.9581 26.1789 60.1082 26.1456C60.5503 26.0374 61.1843 25.9957 61.8182 26.1373C62.3855 26.2622 62.8776 26.6452 63.1445 27.1698C63.4365 27.7443 63.5449 28.3771 63.5533 28.8268C63.5533 29.0932 63.5282 29.3264 63.4949 29.5262C63.4365 29.8509 63.6367 30.1757 63.9536 30.259L65.2716 30.6253L66.5812 30.9834C66.9065 31.075 67.2402 30.9001 67.3653 30.5837C67.4404 30.4005 67.5404 30.184 67.6739 29.9592C67.9075 29.5678 68.3245 29.0932 68.8751 28.7435C69.3672 28.4354 69.9845 28.3522 70.535 28.5353C71.1523 28.7352 71.6778 29.1016 72.0031 29.418C72.1866 29.6011 72.3451 29.7843 72.4535 29.9509C72.6537 30.2256 73.0208 30.3089 73.3127 30.1424L75.6733 28.8018C75.9653 28.6353 76.0821 28.2772 75.9403 27.9691C75.8652 27.7859 75.7818 27.5611 75.715 27.303C75.6066 26.8617 75.5649 26.2289 75.7067 25.596C75.8318 25.0298 76.2155 24.5386 76.741 24.2721C77.3166 23.9807 77.9505 23.8641 78.401 23.8641C78.6679 23.8641 78.9015 23.8891 79.1017 23.9141L79.11 23.9224Z" fill="black"/>
</g>
<defs>
<clipPath id="clip0_644_1135">
<rect width="129" height="31" fill="white"/>
</clipPath>
</defs>
</svg>
