<svg preserveAspectRatio="none" width="100%" height="100%" overflow="visible" style="display: block;" viewBox="0 0 185 185" fill="none" xmlns="http://www.w3.org/2000/svg">
<g id="Top_Type" clip-path="url(#clip0_1038_480)">
<path id="Vector" d="M154.064 0H30.936C13.8505 0 0 13.8505 0 30.936V154.064C0 171.15 13.8505 185 30.936 185H154.064C171.15 185 185 171.15 185 154.064V30.936C185 13.8505 171.15 0 154.064 0Z" fill="var(--fill-0, #38C5F3)"/>
<path id="Vector_2" d="M153.374 174.573H145.187V173.22H153.374V174.573ZM137.087 174.573H128.988V173.22H137.087V174.573ZM120.882 174.573H112.782V173.22H120.882V174.573ZM104.676 174.573H96.5767V173.22H104.676V174.573ZM88.4706 174.573H80.3712V173.22H88.4706V174.573ZM72.2651 174.573H64.1657V173.22H72.2651V174.573ZM56.0663 174.573H47.967V173.22H56.0663V174.573ZM39.8608 174.573H31.7615V173.22H39.8608V174.573ZM23.6012 172.976C21.0097 171.907 18.682 170.358 16.6859 168.368L17.64 167.407C19.5075 169.268 21.6863 170.723 24.1154 171.724L23.6012 172.976ZM161.521 172.922L161 171.677C163.422 170.662 165.594 169.194 167.448 167.319L168.409 168.273C166.426 170.276 164.105 171.839 161.521 172.929V172.922ZM12.0509 161.46C10.9751 158.875 10.427 156.135 10.427 153.306H11.7803C11.7803 155.952 12.2945 158.516 13.3027 160.939L12.0509 161.46ZM172.996 161.338L171.745 160.824C172.726 158.428 173.22 155.891 173.22 153.286V153.178H174.573V153.286C174.573 156.074 174.045 158.78 172.996 161.338ZM11.7803 145.207H10.427V137.107H11.7803V145.207ZM174.573 145.078H173.22V136.979H174.573V145.078ZM11.7803 129.001H10.427V120.902H11.7803V129.001ZM174.573 128.873H173.22V120.773H174.573V128.873ZM11.7803 112.803H10.427V104.703H11.7803V112.803ZM174.573 112.667H173.22V104.568H174.573V112.667ZM11.7803 96.597H10.427V88.4977H11.7803V96.597ZM174.573 96.4685H173.22V88.3691H174.573V96.4685ZM11.7803 80.3915H10.427V72.2922H11.7803V80.3915ZM174.573 80.263H173.22V72.1636H174.573V80.263ZM11.7803 64.186H10.427V56.0866H11.7803V64.186ZM174.573 64.0575H173.22V55.9581H174.573V64.0575ZM11.7803 47.9805H10.427V39.8811H11.7803V47.9805ZM174.573 47.8519H173.22V39.7526H174.573V47.8519ZM10.427 31.7818V31.7141C10.427 28.9128 10.9616 26.1927 12.0171 23.6215L13.2689 24.1357C12.281 26.5378 11.7803 29.0887 11.7803 31.7141L10.427 31.7818ZM173.22 31.6532C173.213 29.0075 172.692 26.4431 171.684 24.0275L172.929 23.5065C174.011 26.0912 174.566 28.8316 174.573 31.6532H173.22ZM17.5859 17.6535L16.625 16.6995C18.6144 14.7034 20.9352 13.1403 23.52 12.0577L24.041 13.3095C21.6186 14.3245 19.4466 15.786 17.5791 17.6535H17.5859ZM167.333 17.5656C165.459 15.7048 163.28 14.2568 160.844 13.2621L161.358 12.0104C163.957 13.0727 166.284 14.6222 168.287 16.6047L167.333 17.5656ZM153.205 11.7803H145.105V10.427H153.205V11.7803ZM136.999 11.7803H128.9V10.427H136.999V11.7803ZM120.794 11.7803H112.694V10.427H120.794V11.7803ZM104.588 11.7803H96.4888V10.427H104.588V11.7803ZM88.3826 11.7803H80.2833V10.427H88.3826V11.7803ZM72.1839 11.7803H64.0845V10.427H72.1839V11.7803ZM55.9784 11.7803H47.879V10.427H55.9784V11.7803ZM39.7729 11.7803H31.7141L31.6735 10.427H39.7729V11.7803Z" fill="var(--fill-0, #EEEE22)"/>
</g>
<defs>
<clipPath id="clip0_1038_480">
<rect width="185" height="185" fill="white"/>
</clipPath>
</defs>
</svg>
