<svg width="88" height="51" viewBox="0 0 88 51" fill="none" xmlns="http://www.w3.org/2000/svg">
<g clip-path="url(#clip0_644_1144)">
<path d="M37.8999 33.3281H37.2965V40.252H41.2767V39.7104H37.8999V33.3281ZM49.6226 35.1195C48.7846 35.1195 48.1981 35.4028 47.6786 35.961L47.9802 36.336C48.4411 35.8194 48.9271 35.5944 49.5639 35.5944C50.3013 35.5944 50.913 36.0027 50.913 36.7442V37.7607C50.4773 37.2775 49.8991 37.0442 49.2036 37.0442C48.3238 37.0442 47.4356 37.6108 47.4356 38.7022C47.4356 39.7937 48.3322 40.377 49.2036 40.377C49.9075 40.377 50.4689 40.152 50.913 39.6604V40.252H51.4577V36.7192C51.4577 35.5944 50.6449 35.1112 49.6226 35.1112V35.1195ZM50.913 39.2688C50.5611 39.7271 49.9913 39.952 49.388 39.952C48.5668 39.952 48.0137 39.4188 48.0137 38.7189C48.0137 38.019 48.5668 37.4691 49.388 37.4691C49.9913 37.4691 50.5611 37.6941 50.913 38.169V39.2688ZM53.6949 36.1027V35.2445H53.1503V40.2603H53.6949V36.6026C53.9212 36.1693 54.6167 35.7111 55.1278 35.7111C55.2284 35.7111 55.3038 35.7111 55.396 35.7361V35.1445C54.6921 35.1445 54.1223 35.5528 53.6949 36.111V36.1027ZM44.1341 35.1195C42.7347 35.1195 41.7125 36.2943 41.7125 37.7441C41.7125 39.2938 42.7599 40.3853 44.2263 40.3853C45.0642 40.3853 45.701 40.0937 46.1954 39.5771L45.9105 39.2272C45.4832 39.6854 44.8966 39.927 44.2598 39.927C43.0699 39.927 42.3409 39.0272 42.2823 37.9357H46.4971V37.7941C46.4971 36.3443 45.6508 35.1362 44.1173 35.1362L44.1341 35.1195ZM42.299 37.4941C42.3409 36.6193 42.9358 35.5861 44.1257 35.5861C45.391 35.5861 45.9524 36.6442 45.9608 37.4941H42.299ZM79.3944 38.4856C79.143 38.4856 78.9084 38.6523 78.8162 38.8106C78.766 38.6356 78.6151 38.4856 78.3554 38.4856C78.0956 38.4856 77.8694 38.6689 77.794 38.7772V38.5273H77.5258V40.252H77.794V38.9939C77.8861 38.8522 78.0705 38.7272 78.2465 38.7272C78.4727 38.7272 78.5649 38.8689 78.5649 39.0855V40.2603H78.833V38.9939C78.9252 38.8522 79.1095 38.7272 79.2939 38.7272C79.5201 38.7272 79.6123 38.8689 79.6123 39.0855V40.2603H79.8804V39.0105C79.8804 38.6606 79.7128 38.4856 79.3944 38.4856ZM66.9008 35.1195C66.1718 35.1195 65.4512 35.5694 65.0825 36.0027V35.2445H64.5378V40.2603H65.0825V36.4693C65.4093 36.011 66.0712 35.6111 66.7248 35.6111C67.4538 35.6111 67.9482 35.9027 67.9482 36.8692V40.2687H68.4929V36.7609C68.4929 35.6277 67.9315 35.1278 66.9092 35.1278L66.9008 35.1195ZM73.6881 36.0527C73.2775 35.4778 72.6574 35.1195 71.9368 35.1195C70.5961 35.1195 69.6911 36.161 69.6911 37.7441C69.6911 39.3271 70.5961 40.3603 71.9368 40.3603C72.6909 40.3603 73.3362 39.9354 73.6881 39.4188V40.2187C73.6881 41.3518 72.8837 41.8101 71.9787 41.8101C71.2162 41.8101 70.7386 41.6268 70.2944 41.1019L69.9844 41.5351C70.5793 42.135 71.124 42.2933 71.9787 42.2933C73.2021 42.2933 74.2411 41.7434 74.2411 40.2187V35.2445H73.6881V36.0527ZM73.6881 38.9605C73.3948 39.4521 72.7245 39.8771 72.029 39.8771C70.9145 39.8771 70.2609 38.9605 70.2609 37.7441C70.2609 36.5276 70.9061 35.6028 72.029 35.6028C72.7245 35.6028 73.3948 36.0277 73.6881 36.5193V38.9605ZM58.8231 35.1195C58.0941 35.1195 57.3735 35.5694 57.0048 36.0027V35.2445H56.4601V40.2603H57.0048V36.4693C57.3316 36.011 57.9935 35.6111 58.6471 35.6111C59.3761 35.6111 59.8705 35.9027 59.8705 36.8692V40.2687H60.4152V36.7609C60.4152 35.6277 59.8538 35.1278 58.8315 35.1278L58.8231 35.1195ZM75.7159 38.9772C75.7159 38.8272 75.8667 38.7022 76.1013 38.7022C76.336 38.7022 76.5119 38.7939 76.6209 38.9189L76.7465 38.7356C76.6125 38.5939 76.403 38.4856 76.1013 38.4856C75.6908 38.4856 75.4561 38.7106 75.4561 38.9855C75.4561 39.6271 76.5287 39.3688 76.5287 39.7854C76.5287 39.9604 76.3779 40.0854 76.1181 40.0854C75.8835 40.0854 75.6656 39.9687 75.5483 39.8354L75.4142 40.027C75.5902 40.2103 75.8248 40.302 76.1181 40.302C76.5622 40.302 76.7968 40.0687 76.7968 39.7771C76.7968 39.1022 75.7243 39.3521 75.7243 38.9772H75.7159ZM62.3676 33.6281C62.1497 33.6281 61.9486 33.803 61.9486 34.0363C61.9486 34.2696 62.1497 34.4529 62.3676 34.4529C62.5938 34.4529 62.7865 34.2696 62.7865 34.0363C62.7865 33.803 62.5938 33.6281 62.3676 33.6281ZM62.0994 40.2603H62.6441V35.2445H62.0994V40.2603Z" fill="black"/>
<path d="M23.5544 6.09091C23.8058 5.15773 23.3952 4.34119 22.5405 3.88293C21.669 3.40801 20.5127 3.39968 19.5491 3.44134C17.7475 3.52466 15.9627 3.86627 14.2366 4.39952C10.7926 5.44934 7.57496 7.33237 4.73436 9.50701C2.67304 11.0901 0.0754405 13.5147 2.63172e-05 16.3226C-0.0586292 18.5055 2.06973 19.8803 3.87129 20.5635C6.99679 21.7467 10.4407 21.4717 13.5662 22.6215C14.0354 22.7965 14.4879 23.0048 14.9153 23.2714C14.9991 23.3214 15.4599 23.6714 15.2421 23.4964C15.4013 23.6297 15.5354 23.7797 15.661 23.938C15.7532 24.063 15.837 24.1963 15.904 24.3379C15.9376 24.4046 15.9627 24.4712 15.9878 24.5462C15.8705 24.2296 15.9543 24.4462 15.9711 24.5296C16.0046 24.6712 16.0046 24.8128 16.0046 24.9545C16.0046 25.0295 15.9962 25.0961 15.9878 25.1711C16.0381 24.7129 16.0046 25.0628 15.9711 25.1711C15.9292 25.3211 15.8705 25.4711 15.8035 25.621C16.0633 25.0461 15.7951 25.6044 15.7029 25.746C15.3594 26.2793 15.9543 25.4544 15.6275 25.8543C15.4851 26.021 14.865 26.6542 15.4935 26.0376C15.3342 26.196 15.1667 26.3459 14.9907 26.4959C14.8231 26.6375 14.1109 27.1875 14.865 26.6126C14.4125 26.9542 13.9433 27.2624 13.4657 27.5624C12.8707 27.929 13.8511 27.3458 13.4489 27.5707C13.2478 27.6874 13.0383 27.804 12.8288 27.9123C12.4015 28.1456 11.9657 28.3539 11.5216 28.5622C11.2954 28.6705 11.0692 28.7705 10.8429 28.8705C11.5216 28.5706 10.7172 28.9205 10.5664 28.9788C10.0971 29.1705 9.61115 29.3454 9.13352 29.5121C8.6978 29.6621 8.26207 29.8037 7.81797 29.9287C7.70065 29.962 6.89624 30.187 7.45765 30.037C7.21465 30.0953 6.97165 30.162 6.72865 30.212C5.79016 30.4369 4.83491 30.5952 3.87967 30.6952C2.76521 30.8119 1.49993 31.7534 0.921756 32.6782C0.360339 33.5697 0.854721 34.0863 1.80997 33.9863C7.16438 33.4281 12.6026 31.1701 16.8509 27.8957C18.4346 26.6792 20.1943 24.9045 20.3619 22.8048C20.5127 20.9301 18.4681 19.847 16.9766 19.3221C13.8176 18.2056 10.3569 18.4805 7.23979 17.2391C6.18399 16.8225 5.42147 16.3809 4.8014 15.531C4.68409 15.3727 4.59191 15.2061 4.50812 15.0311C4.46622 14.9478 4.43271 14.8561 4.40757 14.7728C4.50812 15.0561 4.41595 14.7728 4.40757 14.7228C4.36567 14.5479 4.35729 14.3729 4.34891 14.1979C4.34891 14.1146 4.34891 14.0229 4.34891 13.9313C4.37405 13.5314 4.29864 14.0979 4.34891 13.8563C4.39081 13.648 4.46622 13.4397 4.54164 13.2397C4.56678 13.1648 4.76788 12.7731 4.56678 13.1648C4.63381 13.0398 4.70084 12.9231 4.77626 12.7981C4.85167 12.6732 4.93547 12.5565 5.01926 12.4315C5.31254 12.0066 4.73436 12.7898 5.06954 12.3732C5.31254 12.0733 5.5723 11.7983 5.84044 11.5234C5.39633 11.9733 5.82368 11.5483 5.90747 11.4734C6.04154 11.3567 6.17561 11.2401 6.30968 11.1151C6.45213 10.9984 6.59458 10.8818 6.72865 10.7651C6.8292 10.6902 7.34034 10.2986 6.78731 10.7152C7.45765 10.2069 8.16152 9.74864 8.88214 9.31538C8.31235 9.66532 8.88214 9.31538 8.9827 9.25706C9.15028 9.1654 9.32625 9.06542 9.50222 8.97377C9.84577 8.79047 10.1893 8.61549 10.5413 8.44052C10.7172 8.3572 10.8848 8.27388 11.0608 8.19889C11.1446 8.15724 11.7311 7.89894 11.1865 8.13224C11.5719 7.9656 11.9657 7.81562 12.368 7.67398C12.6864 7.55733 13.0132 7.44902 13.34 7.34903C13.4238 7.32404 13.96 7.18239 13.4321 7.31571C13.583 7.27405 13.7254 7.24072 13.8762 7.20739C14.7896 7.00742 15.7197 6.84912 16.6498 6.77413C16.3314 6.79912 16.9515 6.77413 17.0101 6.77413C17.1945 6.77413 17.3788 6.77413 17.5715 6.78246C17.7307 6.78246 17.8983 6.80746 18.0575 6.82412C18.133 6.83245 18.2 6.84912 18.2754 6.85745C18.619 6.91577 17.9821 6.78246 18.2922 6.85745C18.4933 6.91577 18.686 6.99076 18.8703 7.09074C18.9458 7.1324 19.0128 7.18239 19.0798 7.23239C18.7614 6.99076 18.996 7.17406 19.0714 7.26571C19.1469 7.35737 19.2055 7.46568 19.2474 7.574C19.172 7.39903 19.2139 7.35737 19.2306 7.62399C19.2558 7.98226 19.2223 7.74064 19.2725 7.56567C18.9793 8.64882 20.1859 8.57383 20.8814 8.33221C21.845 7.99893 23.2276 7.14073 23.5209 6.08257L23.5544 6.09091Z" fill="black"/>
<path d="M44.1676 6.45735C44.1676 6.45735 48.5751 5.40752 46.7065 9.19857C44.9385 12.7897 37.9753 26.5874 39.4752 29.7619C39.4752 29.7619 35.9223 31.1866 36.2072 28.2121C36.4837 25.2376 44.1676 6.45735 44.1676 6.45735Z" fill="black"/>
<path d="M34.3889 21.3382C34.2046 20.73 33.3918 20.5217 32.8303 20.555C31.8332 20.6133 30.878 21.1299 30.1657 21.7881C29.8389 22.0881 29.5121 22.3797 29.1769 22.663C28.8166 22.9796 28.4479 23.2796 28.0876 23.5878C27.8949 23.7545 27.6938 23.9128 27.5011 24.0711C27.4843 24.0878 27.4676 24.0961 27.4508 24.1127C27.3838 24.1711 27.2832 24.2461 27.2246 24.2877C26.2107 25.0793 25.1632 25.8291 24.0739 26.5124C23.9566 26.5873 23.8225 26.6623 23.7052 26.7373C23.6298 26.779 23.4455 26.879 23.2863 26.9623C23.4706 26.4957 23.6801 26.0458 23.8896 25.5958C24.3337 24.671 24.8281 23.7795 25.3392 22.8963C25.5235 22.5797 25.7079 22.2631 25.8922 21.9548C26.0514 21.6965 26.0095 21.7631 25.9341 21.8881C26.4285 21.0049 26.7134 19.7551 25.3643 19.4802C24.141 19.2385 22.5237 20.0218 21.7528 21.0299C22.021 21.1799 22.5573 21.9214 20.8395 25.5625C20.1608 26.9956 20.077 28.1121 20.3032 28.9286C20.8981 30.0118 21.8701 30.8616 23.4538 30.3284C27.0737 29.1036 31.2215 26.0208 31.2215 26.0208C31.2215 26.0208 26.328 42.918 21.2249 46.759C18.8871 48.5171 19.2558 49.9085 20.0015 50.7834C21.2585 51.4833 22.7332 50.4168 23.9566 49.067C27.5513 44.2345 30.0903 39.5436 31.9086 34.4277C35.6374 25.7125 35.1011 22.5047 34.3973 21.3465L34.3889 21.3382Z" fill="black"/>
<path d="M34.3889 21.3382C34.2046 20.73 33.3918 20.5217 32.8303 20.555C31.8332 20.6133 30.878 21.1299 30.1657 21.7881C29.8389 22.0881 29.5121 22.3797 29.1769 22.663C28.8166 22.9796 28.4479 23.2796 28.0876 23.5878C27.8949 23.7545 27.6938 23.9128 27.5011 24.0711C27.4843 24.0878 27.4676 24.0961 27.4508 24.1127C27.3838 24.1711 27.2832 24.2461 27.2246 24.2877C26.2107 25.0793 25.1632 25.8291 24.0739 26.5124C23.9566 26.5873 23.8225 26.6623 23.7052 26.7373C23.6298 26.779 23.4455 26.879 23.2863 26.9623C23.4706 26.4957 23.6801 26.0458 23.8896 25.5958C24.3337 24.671 24.8281 23.7795 25.3392 22.8963C25.5235 22.5797 25.7079 22.2631 25.8922 21.9548C26.0514 21.6965 26.0095 21.7631 25.9341 21.8881C26.4285 21.0049 26.7134 19.7551 25.3643 19.4802C24.141 19.2385 22.5237 20.0218 21.7528 21.0299C22.021 21.1799 22.5573 21.9214 20.8395 25.5625C20.1608 26.9956 20.077 28.1121 20.3032 28.9286C20.8981 30.0118 21.8701 30.8616 23.4538 30.3284C27.0737 29.1036 31.2215 26.0208 31.2215 26.0208C31.2215 26.0208 26.328 42.918 21.2249 46.759C18.8871 48.5171 19.2558 49.9085 20.0015 50.7834C21.2585 51.4833 22.7332 50.4168 23.9566 49.067C27.5513 44.2345 30.0903 39.5436 31.9086 34.4277C35.6374 25.7125 35.1011 22.5047 34.3973 21.3465L34.3889 21.3382Z" fill="black"/>
<path d="M53.9044 16.7475C53.7033 16.5642 53.4268 16.4808 53.1251 16.5225H53.1335C52.8402 16.5392 52.3123 16.8391 51.7677 17.4973C50.8627 18.5055 50.0918 19.8553 49.0193 21.73L48.4495 22.7215C45.9105 27.1374 45.1564 27.0874 44.9301 27.0208C44.7458 26.9625 44.6452 26.7792 44.6033 26.6458C44.5028 26.3626 44.5363 26.0459 44.5531 25.7543C44.5782 25.4294 44.6285 25.1044 44.6871 24.7795C44.7206 24.6045 44.7542 24.4212 44.7961 24.2462C44.972 23.4214 45.1983 22.6048 45.5167 21.8216C45.6005 21.605 45.701 21.3967 45.8016 21.1884C46.0111 20.7551 46.1535 20.3135 45.9692 19.847C45.8854 19.622 45.5586 19.3387 45.0642 19.2137C44.3184 19.0304 43.8073 19.5803 43.6397 19.9969C42.5588 22.7132 42.4079 25.0544 42.3996 25.1544C42.2739 26.3626 42.1901 28.5372 43.0113 29.5204C43.2543 29.812 43.5559 29.9786 43.9078 30.0036C46.2205 30.2119 47.9048 27.8456 48.5165 26.8291L50.0499 24.2962C50.2343 23.9796 50.427 23.6797 50.5946 23.3714C53.3598 18.3139 54.2228 18.4222 54.2228 18.4222C54.3737 17.6306 54.2145 17.0391 53.9044 16.7558V16.7475Z" fill="black"/>
<path d="M60.9012 19.6802C58.9404 18.5471 55.0105 24.2295 54.3653 26.5291C54.1139 27.4289 53.9631 28.4038 54.7005 28.0955C55.4378 27.7872 59.9292 21.1883 59.9292 21.1883C60.4655 20.5217 61.1609 20.6301 61.1609 20.6301C62.9793 20.7884 63.2474 21.6132 63.2474 21.6132C62.0156 22.2798 61.4039 25.7376 61.6972 27.0373C61.9905 28.3371 62.5854 27.4123 62.5854 27.4123C63.658 25.9459 67.479 19.0053 67.479 19.0053C68.1493 18.3138 70.152 18.897 70.152 18.897C71.9703 19.4552 71.5178 21.13 71.5178 21.13L72.0792 20.6217C74.1908 18.5221 76.7046 19.3719 76.7046 19.3719C78.9755 19.8802 78.8749 22.7714 78.2046 25.5126C77.5342 28.2538 78.347 28.8121 78.347 28.8121C79.5536 29.9035 82.3859 28.8954 82.3859 28.8954C85.8633 27.8872 85.394 27.154 85.394 27.154C86.6342 26.8957 87.3883 27.4289 87.3883 27.4289C88.7458 28.3288 87.4721 29.0787 87.4721 29.0787C82.4696 31.9615 77.7102 30.5618 77.7102 30.5618C75.1377 30.0119 74.9617 27.8372 75.2466 25.346C75.5902 22.3298 75.3472 21.6799 75.3472 21.6799C75.1461 20.755 74.04 21.6799 71.9368 24.2545C69.5822 27.129 69.5235 28.7121 69.5235 28.7121C69.247 30.2118 68.7862 30.1452 68.7862 30.1452C68.7862 30.1452 67.5209 30.4035 66.4148 30.1202C65.4596 29.8785 65.845 29.0787 65.845 29.0787L68.518 21.8049C68.518 21.8049 68.0907 22.2215 66.1634 25.7792C63.2977 31.045 61.6888 30.2452 61.6888 30.2452C59.3678 29.9369 59.0158 27.5039 59.0158 27.5039C56.4769 31.1617 53.8709 30.2285 53.3849 30.1118C53.1251 30.0452 51.332 29.6369 51.1309 27.9705C50.8879 25.9709 53.9798 19.3636 57.5243 18.3554C61.0688 17.3556 62.267 19.3386 62.267 19.3386C62.267 19.3386 62.8536 19.9552 62.4011 20.1718C61.9235 20.3968 61.6553 20.2551 61.4458 20.0801C61.1693 19.8552 60.9179 19.6719 60.9179 19.6719L60.9012 19.6802Z" fill="black"/>
<path d="M76.3108 2.05805C76.16 2.20803 68.0907 11.1232 59.8119 9.0819C57.231 8.44867 55.7562 5.66579 55.84 4.38267C55.84 4.38267 56.4936 2.34134 55.1948 1.21652C55.1529 1.18319 55.0356 1.14986 54.9853 1.23318C54.6167 1.80809 53.4687 3.39117 52.7816 3.29118C52.4799 3.24952 52.195 3.30785 52.195 3.30785C52.195 3.30785 49.941 5.79911 50.6029 7.89876C50.8124 8.56532 51.8012 8.84861 52.681 8.35702C54.3234 11.5232 56.7785 12.9563 60.013 13.4395C68.8113 14.756 78.523 3.30785 78.9168 2.5663C79.1095 2.19969 78.8581 1.34983 79.2939 0.574959C80.0229 -0.724829 78.037 0.325 76.3192 2.04972L76.3108 2.05805Z" fill="black"/>
</g>
<defs>
<clipPath id="clip0_644_1144">
<rect width="88" height="51" fill="white"/>
</clipPath>
</defs>
</svg>
