<svg width="79" height="48" viewBox="0 0 79 48" fill="none" xmlns="http://www.w3.org/2000/svg">
<g clip-path="url(#clip0_644_1155)">
<path d="M39.247 4.28857C40.4278 4.28857 41.3809 3.32807 41.3809 2.13165C41.3809 0.935229 40.4278 0 39.247 0C38.0661 0 37.1045 0.960505 37.1045 2.13165C37.1045 3.30279 38.0576 4.28857 39.247 4.28857Z" fill="black"/>
<path d="M31.6641 11.821V2.89844H29.4036V13.5651H36.4129V11.821H31.6641Z" fill="black"/>
<path d="M39.2469 5.12263C38.8758 5.12263 38.5216 5.0468 38.1926 4.90357V13.565H40.3266V4.88672C39.9976 5.0468 39.6434 5.12263 39.2469 5.12263Z" fill="black"/>
<path d="M58.5204 2.89844V13.5651H60.5785V2.89844H58.5204Z" fill="black"/>
<path d="M45.4802 10.456V6.54655H48.6939V4.97099H45.7248V2.88989H44.603C44.1728 4.19584 43.0848 5.18162 41.7352 5.49337V6.53813H43.4981V11.5429C43.4981 12.6298 44.3922 13.7166 46.4081 13.7166C48.424 13.7166 48.9132 12.7983 48.9132 12.7983V11.1974C48.9132 11.1974 48.424 12.2843 47.0238 12.2843C46.3828 12.2843 45.4971 11.9473 45.4971 10.4391L45.4802 10.456Z" fill="black"/>
<path d="M53.5354 10.456V6.54655H56.7575V4.97099H53.7716V2.88989H52.6582C52.2196 4.19584 51.1315 5.18162 49.7651 5.49337V6.53813H51.5533V11.5429C51.5533 12.6298 52.4389 13.7166 54.4633 13.7166C56.4876 13.7166 56.9684 12.7983 56.9684 12.7983V11.1974C56.9684 11.1974 56.4792 12.2843 55.079 12.2843C54.438 12.2843 53.5354 11.9473 53.5354 10.4391V10.456Z" fill="black"/>
<path d="M67.0986 12.2592C65.0405 12.2592 63.9102 11.1639 63.9102 9.66412H71.0798C71.0882 9.52089 71.0882 9.38608 71.0882 9.226C71.0882 6.75733 69.2494 4.79419 66.6768 4.79419C64.1042 4.79419 62.0293 6.76575 62.0293 9.226C62.0293 11.6862 64.1127 13.6999 66.6768 13.6999C68.1192 13.6999 69.6796 13.3039 70.7171 12.4951V10.5572C69.823 11.4503 69.1482 12.2676 67.0986 12.2676M63.9524 8.34132C64.3235 7.11962 65.4706 6.26865 66.8118 6.26865C68.1529 6.26865 69.2157 7.12805 69.5953 8.3666L63.9524 8.34974V8.34132Z" fill="black"/>
<path d="M72.7667 19.2101V25.4196H74.0994V30.0368H66.1876L66.2129 21.1058C66.2129 20.1453 65.4959 19.3617 64.6272 19.3617C63.7584 19.3617 63.0246 20.1537 63.0246 21.1058V25.4196H64.5512V30.0368H56.6394L56.6647 21.1058C56.6647 20.1453 55.9478 19.3617 55.0706 19.3617C54.1934 19.3617 53.4764 20.1537 53.4764 21.1058L53.4595 25.4196H54.7922V30.0368H45.3453V25.4196H47.0913V19.1595H46.0201L39.1795 31.3596H41.0351V36.1706H31.0652V31.3596H33.0474L34.2367 29.2364L28.5854 19.1595H27.0756V14.5508H36.3791V19.1595H35.1139L37.2901 23.4228L39.6265 19.1595H38.2432V14.5508H53.4511V16.3959C53.4511 16.3959 55.3574 14.18 58.2842 14.2306C61.2111 14.2811 63.0077 16.2864 63.0077 16.2864C63.0077 16.2864 64.6525 14.2306 67.8324 14.2306C71.0123 14.2306 72.7583 15.9747 72.7583 19.2016L72.7667 19.2101Z" fill="black"/>
<path d="M28.3661 7.41432H17.9998V8.96461C16.7852 7.97882 15.2838 7.25423 13.5294 6.88351V12.3348H12.2473V6.6813C11.7918 6.63917 11.311 6.60547 10.8218 6.60547C4.57164 6.61389 0 11.2648 0 17.0025C0 22.7403 4.57164 27.3743 10.8134 27.3743C13.6053 27.3743 15.9417 26.5907 17.713 25.2595C17.654 27.9472 15.579 30.2053 11.3785 30.2053C6.8659 30.2053 2.44608 27.9557 2.44608 27.9557V34.1652C2.44608 34.1652 7.16955 36.2548 12.7618 36.2548C16.8695 36.2548 26.114 35.1763 26.114 26.4138V13.5733H28.3661V7.41432ZM12.8799 22.201C10.1048 22.201 7.84433 19.9514 7.84433 17.1795C7.84433 15.0815 9.12641 13.2785 10.9652 12.5286L11.5135 13.8682C10.2145 14.4159 9.29511 15.6881 9.29511 17.1795C9.29511 19.1594 10.8977 20.7519 12.8715 20.7519C14.8452 20.7519 16.4562 19.1594 16.4562 17.1795C16.4562 15.6881 15.5368 14.4159 14.2463 13.8682L14.7946 12.5286C16.6249 13.2785 17.9154 15.0815 17.9154 17.1795C17.9154 19.9514 15.6549 22.201 12.8715 22.201H12.8799Z" fill="black"/>
<path d="M75.12 27.9052C75.12 26.9026 75.8791 26.1443 76.8491 26.1443C77.8191 26.1443 78.5783 26.9026 78.5783 27.9052C78.5783 28.9078 77.8191 29.683 76.8491 29.683C75.8791 29.683 75.12 28.9247 75.12 27.9052ZM76.8491 30.0368C78.0047 30.0368 79 29.1353 79 27.9136C79 26.6919 78.0047 25.7988 76.8491 25.7988C75.6936 25.7988 74.7067 26.6835 74.7067 27.9136C74.7067 29.1437 75.6936 30.0368 76.8491 30.0368ZM76.4021 28.0653H76.8323L77.4733 29.1269H77.8866L77.1865 28.0569C77.5492 28.0147 77.8191 27.8209 77.8191 27.3828C77.8191 26.9026 77.5239 26.6835 76.9503 26.6835H76.0225V29.1353H76.3936V28.0737M76.4021 27.762V27.0037H76.9082C77.1612 27.0037 77.448 27.0626 77.448 27.366C77.448 27.7451 77.1612 27.762 76.8491 27.762H76.4021Z" fill="black"/>
<path d="M11.1508 2.90674V3.71558H12.3907V6.45387H13.4197V3.71558H14.6512V2.90674H11.1508Z" fill="black"/>
<path d="M20.8001 2.90674V4.25482H19.2819V2.90674H18.2444V6.44544H19.2819V5.08894H20.8001V6.44544H21.8292V2.90674H20.8001Z" fill="black"/>
<path d="M26.7382 5.64515V5.02166H28.3661V4.22124H26.7382V3.70728H28.3577V2.89844H25.7007V6.43714H28.3914V5.63672H26.7298L26.7382 5.64515Z" fill="black"/>
<path d="M0.379564 46.8877C0.16026 46.7276 0 46.4496 0 46.1294C0 45.6155 0.413303 45.211 0.936259 45.211C1.19774 45.211 1.37487 45.2953 1.50139 45.3964C2.19304 45.9019 2.94373 46.2137 3.82095 46.2137C4.63912 46.2137 5.12834 45.8851 5.12834 45.3543V45.329C5.12834 44.8235 4.81625 44.5623 3.30643 44.1747C1.47608 43.7197 0.303652 43.2058 0.303652 41.4111V41.3859C0.303652 39.7345 1.61947 38.656 3.47512 38.656C4.57164 38.656 5.53321 38.9425 6.34294 39.4564C6.56225 39.5912 6.78155 39.8608 6.78155 40.2484C6.78155 40.7708 6.36825 41.1668 5.85373 41.1668C5.65973 41.1668 5.49947 41.1162 5.34764 41.0236C4.68973 40.636 4.06556 40.4085 3.44982 40.4085C2.68226 40.4085 2.28582 40.7624 2.28582 41.2005V41.2258C2.28582 41.8156 2.67382 42.0178 4.24269 42.4138C6.08146 42.894 7.11051 43.5512 7.11051 45.1352V45.1605C7.11051 46.9635 5.74407 47.9746 3.78721 47.9746C2.59791 47.9746 1.39174 47.6123 0.379564 46.8877Z" fill="black"/>
<path d="M11.6737 47.9999C9.59033 47.9999 8.05521 46.5339 8.05521 44.4107V44.3854C8.05521 42.4054 9.45538 40.7793 11.4797 40.7793C13.7993 40.7793 14.8199 42.6835 14.8199 44.1242C14.8199 44.6887 14.415 45.0679 13.8921 45.0679H9.9952C10.1892 45.961 10.8218 46.4159 11.6906 46.4159C12.2388 46.4159 12.6943 46.2559 13.0823 45.961C13.2342 45.8514 13.3607 45.8009 13.5631 45.8009C14.0017 45.8009 14.3307 46.1295 14.3307 46.576C14.3307 46.8372 14.2126 47.031 14.0692 47.1574C13.4703 47.6713 12.6775 47.9999 11.6653 47.9999H11.6737ZM12.9389 43.8377C12.8293 42.9615 12.3063 42.3633 11.4797 42.3633C10.6531 42.3633 10.1386 42.9446 9.98677 43.8377H12.9389Z" fill="black"/>
<path d="M16.0682 41.8156C16.0682 41.268 16.5068 40.8298 17.0467 40.8298C17.5865 40.8298 18.0335 41.268 18.0335 41.8156V42.1274C18.3203 41.4533 18.7758 40.8298 19.3662 40.8298C19.9567 40.8298 20.3194 41.2343 20.3194 41.7903C20.3194 42.3043 19.982 42.616 19.5855 42.7087C18.5902 42.9446 18.0335 43.7029 18.0335 45.1016V46.9383C18.0335 47.4775 17.5865 47.9241 17.0467 47.9241C16.5068 47.9241 16.0682 47.486 16.0682 46.9383V41.8156Z" fill="black"/>
<path d="M21.1966 39.2543C21.1966 38.6898 21.6773 38.3359 22.2931 38.3359C22.9088 38.3359 23.398 38.6898 23.398 39.2543V39.288C23.398 39.8525 22.9257 40.2148 22.2931 40.2148C21.6605 40.2148 21.1966 39.8525 21.1966 39.288V39.2543ZM21.3147 41.8157C21.3147 41.268 21.7533 40.8299 22.2931 40.8299C22.8329 40.8299 23.28 41.268 23.28 41.8157V46.9384C23.28 47.4776 22.8413 47.9241 22.2931 47.9241C21.7448 47.9241 21.3147 47.486 21.3147 46.9384V41.8157Z" fill="black"/>
<path d="M24.5367 44.4107V44.3854C24.5367 42.397 26.1393 40.7793 28.3071 40.7793C30.4748 40.7793 32.0437 42.3717 32.0437 44.3601V44.3854C32.0437 46.3738 30.4411 47.9999 28.2733 47.9999C26.1056 47.9999 24.5367 46.4075 24.5367 44.4107ZM30.1037 44.4107V44.3854C30.1037 43.3659 29.3614 42.4728 28.2818 42.4728C27.2021 42.4728 26.4852 43.3406 26.4852 44.3601V44.3854C26.4852 45.4049 27.2274 46.298 28.3155 46.298C29.4036 46.298 30.1121 45.4302 30.1121 44.4107H30.1037Z" fill="black"/>
<path d="M39.5169 46.9383C39.5169 47.4775 39.0782 47.9241 38.53 47.9241C37.9817 47.9241 37.5431 47.486 37.5431 46.9383V46.8541C37.0876 47.4438 36.5056 47.9746 35.5188 47.9746C34.0258 47.9746 33.157 46.9889 33.157 45.3964V41.8156C33.157 41.268 33.5957 40.8298 34.1355 40.8298C34.6753 40.8298 35.1223 41.268 35.1223 41.8156V44.773C35.1223 45.6998 35.5609 46.18 36.3116 46.18C37.0623 46.18 37.5431 45.6998 37.5431 44.773V41.8156C37.5431 41.268 37.9817 40.8298 38.53 40.8298C39.0782 40.8298 39.5169 41.268 39.5169 41.8156V46.9383Z" fill="black"/>
<path d="M40.8496 47.1827C40.6387 47.0563 40.47 46.8288 40.47 46.5086C40.47 46.0705 40.8074 45.7335 41.246 45.7335C41.3894 45.7335 41.5328 45.7672 41.634 45.8346C42.2919 46.2474 42.9583 46.4496 43.515 46.4496C44.0716 46.4496 44.3416 46.239 44.3416 45.9357V45.9104C44.3416 45.4807 43.6668 45.3375 42.8992 45.1016C41.9292 44.8151 40.8327 44.3686 40.8327 43.0205V42.9952C40.8327 41.5797 41.9714 40.7961 43.3631 40.7961C44.0885 40.7961 44.8392 40.9815 45.514 41.3269C45.8008 41.4702 45.9863 41.7314 45.9863 42.06C45.9863 42.4981 45.6321 42.8351 45.1935 42.8351C45.0501 42.8351 44.9573 42.8098 44.8308 42.7424C44.2741 42.4728 43.7511 42.3043 43.3378 42.3043C42.857 42.3043 42.6124 42.5149 42.6124 42.7846V42.8098C42.6124 43.1974 43.2703 43.3828 44.0295 43.6355C44.9995 43.9641 46.1213 44.4275 46.1213 45.6914V45.7251C46.1213 47.2669 44.9657 47.9662 43.4728 47.9662C42.6124 47.9662 41.693 47.7135 40.858 47.1742L40.8496 47.1827Z" fill="black"/>
<path d="M51.1062 39.7852C51.1062 39.2291 51.5448 38.791 52.1015 38.791H57.1708C57.6769 38.791 58.0818 39.187 58.0818 39.6925C58.0818 40.1981 57.6853 40.5941 57.1708 40.5941H53.0968V42.5235H56.5973C57.1033 42.5235 57.5082 42.9195 57.5082 43.425C57.5082 43.9306 57.1033 44.3266 56.5973 44.3266H53.0968V46.9132C53.0968 47.4693 52.6667 47.9074 52.1015 47.9074C51.5364 47.9074 51.1062 47.4693 51.1062 46.9132V39.7768V39.7852Z" fill="black"/>
<path d="M65.4369 46.9383C65.4369 47.4775 64.9983 47.9241 64.45 47.9241C63.9018 47.9241 63.4716 47.486 63.4716 46.9383V46.8541C63.0246 47.4438 62.4341 47.9746 61.4388 47.9746C59.9459 47.9746 59.0771 46.9889 59.0771 45.3964V41.8156C59.0771 41.268 59.5157 40.8298 60.064 40.8298C60.6122 40.8298 61.0508 41.268 61.0508 41.8156V44.773C61.0508 45.6998 61.4894 46.18 62.2317 46.18C62.9739 46.18 63.4632 45.6998 63.4632 44.773V41.8156C63.4632 41.268 63.9018 40.8298 64.4416 40.8298C64.9814 40.8298 65.4285 41.268 65.4285 41.8156V46.9383H65.4369Z" fill="black"/>
<path d="M66.9383 41.8156C66.9383 41.268 67.3853 40.8298 67.9251 40.8298C68.465 40.8298 68.9036 41.268 68.9036 41.8156V41.8915C69.3591 41.3101 69.9495 40.7793 70.9448 40.7793C72.4293 40.7793 73.2981 41.7651 73.2981 43.3575V46.9383C73.2981 47.4776 72.851 47.9241 72.3112 47.9241C71.7714 47.9241 71.3244 47.486 71.3244 46.9383V43.981C71.3244 43.0542 70.8857 42.5655 70.1351 42.5655C69.3844 42.5655 68.8951 43.0542 68.8951 43.981V46.9383C68.8951 47.4776 68.4565 47.9241 67.9167 47.9241C67.3769 47.9241 66.9298 47.486 66.9298 46.9383V41.8156H66.9383Z" fill="black"/>
<path d="M75.7273 45.6997C76.3768 45.6997 76.8491 46.18 76.8491 46.795V46.8203C76.8491 47.4438 76.3683 47.924 75.7273 47.924C75.0863 47.924 74.597 47.4438 74.597 46.8203V46.795C74.597 46.18 75.0778 45.6997 75.7273 45.6997Z" fill="black"/>
</g>
<defs>
<clipPath id="clip0_644_1155">
<rect width="79" height="48" fill="white"/>
</clipPath>
</defs>
</svg>
