<svg preserveAspectRatio="none" width="100%" height="100%" overflow="visible" style="display: block;" viewBox="0 0 188 65" fill="none" xmlns="http://www.w3.org/2000/svg">
<g id="UBCON26_Logos_RGB_horizontal-reverse 1">
<path id="Vector" d="M172.81 53.0497H163.429H172.846C172.886 53.0497 172.927 53.0449 172.967 53.0426C172.915 53.0449 172.863 53.0473 172.81 53.0473V53.0497Z" fill="var(--fill-0, #EEEE22)"/>
<path id="Vector_2" d="M172.848 21.8452H163.432C161.986 21.8452 160.816 23.0086 160.816 24.4458V34.8457L174.66 48.6084C174.75 48.6981 174.828 48.7901 174.904 48.8869C175.479 49.6137 175.583 50.6426 175.21 51.4804C175.172 51.5677 175.13 51.655 175.082 51.7376C175.082 51.7376 175.082 51.7399 175.082 51.7423C174.655 52.4809 173.924 52.9671 173.041 53.0379C174.396 52.9411 175.467 51.8202 175.467 50.4467V24.4434C175.467 23.0063 174.296 21.8429 172.851 21.8429L172.848 21.8452Z" fill="var(--fill-0, #38C5F3)"/>
<path id="Vector_3" d="M173.039 53.0402C173.015 53.0402 172.993 53.0426 172.969 53.0426C172.993 53.0426 173.015 53.0426 173.039 53.0402Z" fill="var(--fill-0, #E0198F)"/>
<path id="Vector_4" d="M161.761 52.4479C161.272 52.0444 160.932 51.4568 160.847 50.8267C160.828 50.7016 160.816 50.5765 160.816 50.4467V34.8457L148.541 22.6429C146.894 21.0051 144.076 22.1638 144.076 24.4812V50.4467C144.076 51.8839 145.247 53.0473 146.692 53.0473H163.429C162.796 53.0473 162.212 52.8231 161.761 52.4455V52.4479Z" fill="var(--fill-0, #E0198F)"/>
<g id="Vector_5">
</g>
<g id="Vector_6">
</g>
<path id="Vector_7" d="M174.508 52.4361C174.434 52.4998 174.353 52.5588 174.273 52.6155C174.356 52.5612 174.434 52.4998 174.508 52.4361Z" fill="var(--fill-0, #E0198F)"/>
<path id="Vector_8" d="M161.761 52.4479C161.699 52.396 161.64 52.3441 161.583 52.2874C161.64 52.3441 161.699 52.3983 161.761 52.4479Z" fill="var(--fill-0, #E0198F)"/>
<g id="Vector_9">
</g>
<path id="Vector_10" d="M175.429 50.3288C175.431 50.4184 175.429 50.5081 175.426 50.5954C175.431 50.5057 175.433 50.4184 175.429 50.3288Z" fill="var(--fill-0, #E0198F)"/>
<g id="Vector_11">
</g>
<path id="Vector_12" d="M174.662 48.6108C174.738 48.6863 174.804 48.7618 174.866 48.842C174.802 48.7642 174.736 48.6863 174.662 48.6108Z" fill="var(--fill-0, #E0198F)"/>
<path id="Vector_13" d="M174.904 48.8892C174.963 48.9671 175.018 49.045 175.065 49.1252C175.016 49.045 174.963 48.9671 174.904 48.8892Z" fill="var(--fill-0, #E0198F)"/>
<path id="Vector_14" d="M175.4 50.0267C175.414 50.1116 175.422 50.199 175.429 50.2839C175.424 50.1966 175.414 50.1116 175.4 50.0267Z" fill="var(--fill-0, #E0198F)"/>
<path id="Vector_15" d="M161.564 52.2662C161.511 52.2143 161.462 52.16 161.414 52.101C161.462 52.1576 161.511 52.2119 161.564 52.2662Z" fill="var(--fill-0, #E0198F)"/>
<path id="Vector_16" d="M175.336 49.7435C175.36 49.8308 175.381 49.9181 175.398 50.0078C175.384 49.9181 175.362 49.8308 175.336 49.7435Z" fill="var(--fill-0, #E0198F)"/>
<path id="Vector_17" d="M175.227 49.432C175.263 49.517 175.293 49.6019 175.322 49.6892C175.296 49.6019 175.265 49.517 175.227 49.432Z" fill="var(--fill-0, #E0198F)"/>
<path id="Vector_18" d="M175.092 49.1677C175.137 49.2432 175.175 49.3211 175.21 49.399C175.175 49.3211 175.134 49.2432 175.092 49.1677Z" fill="var(--fill-0, #E0198F)"/>
<path id="Vector_19" d="M161.768 52.455C162.219 52.8255 162.798 53.0497 163.429 53.0497C162.798 53.0497 162.219 52.8255 161.765 52.455H161.768Z" fill="var(--fill-0, #E0198F)"/>
<g id="Vector_20">
</g>
<g id="Vector_21">
</g>
<g id="Vector_22">
</g>
<path id="Vector_23" d="M160.876 50.9934C160.876 50.9934 160.871 50.9807 160.871 50.973C160.871 50.9807 160.876 50.9883 160.876 50.9934Z" fill="var(--fill-0, #E0198F)"/>
<path id="Vector_24" d="M174.002 52.7712C174.002 52.7712 173.988 52.7783 173.983 52.783C173.893 52.8278 173.798 52.8632 173.701 52.8963C173.646 52.9152 173.591 52.9317 173.537 52.9458C173.454 52.9694 173.371 52.9883 173.285 53.0048C173.181 53.0213 173.074 53.0331 172.965 53.0379C172.913 53.0402 172.865 53.0497 172.81 53.0497C172.863 53.0497 172.915 53.0473 172.967 53.0449C172.991 53.0449 173.012 53.0449 173.036 53.0426C173.501 53.0048 173.914 52.8538 174.263 52.6225C174.18 52.6768 174.092 52.7287 174.002 52.7759V52.7712Z" fill="var(--fill-0, #E0198F)"/>
<path id="Vector_25" d="M160.97 51.3175C160.958 51.2845 160.944 51.2538 160.935 51.2231C160.944 51.2562 160.958 51.2868 160.97 51.3175Z" fill="var(--fill-0, #E0198F)"/>
<path id="Vector_26" d="M161.203 51.8013C161.179 51.7635 161.155 51.7281 161.134 51.688C161.155 51.7258 161.179 51.7635 161.203 51.8013Z" fill="var(--fill-0, #E0198F)"/>
<path id="Vector_27" d="M161.395 52.0774C161.35 52.0208 161.305 51.9618 161.262 51.9028C161.303 51.9641 161.348 52.0208 161.395 52.0774Z" fill="var(--fill-0, #E0198F)"/>
<path id="Vector_28" d="M160.849 50.829C161.02 52.0774 162.143 53.0591 163.439 53.0497H172.839C173.765 53.0497 174.662 52.5541 175.111 51.7447C175.111 51.7447 175.111 51.7423 175.111 51.7399C175.158 51.6574 175.201 51.57 175.239 51.4827C175.623 50.6261 175.5 49.5689 174.895 48.842C174.83 48.7642 174.764 48.6863 174.688 48.6108L160.816 34.8481V50.4491C160.816 50.5789 160.828 50.704 160.847 50.829H160.849Z" fill="var(--fill-0, #6C3794)"/>
<path id="Vector_29" d="M135.609 48.7146C138.543 45.7978 140.359 41.7672 140.359 37.3141C140.359 28.4104 133.098 21.1915 124.144 21.1915C119.667 21.1915 115.613 22.9968 112.677 25.9136L135.609 48.7122V48.7146Z" fill="var(--fill-0, #EEEE22)"/>
<path id="Vector_30" d="M49.2337 34.2723H68.563C70.7469 34.2723 72.7503 35.0203 74.3455 36.264C74.336 36.2781 74.3241 36.2923 74.3146 36.3088C74.3146 36.3088 74.317 36.3088 74.3193 36.3112C75.3614 34.7419 75.943 32.8445 75.8694 30.808C75.689 25.7319 71.345 21.7815 66.2463 21.7815H49.2313C47.7881 21.7815 46.6202 22.9473 46.6202 24.3844V36.8752C46.6202 35.438 47.7904 34.2723 49.2313 34.2723H49.2337Z" fill="var(--fill-0, #EEEE22)"/>
<path id="Vector_31" d="M74.3692 36.2262C72.7764 38.6498 69.9944 40.2569 67.0771 40.4103C66.8895 40.422 66.702 40.4291 66.5121 40.4291H49.2503C47.8047 40.4291 46.6344 39.2657 46.6344 37.8286V50.3099C46.6344 51.747 47.8047 52.9104 49.2503 52.9104H68.6058C73.9206 52.9104 78.2052 48.5329 78.0153 43.209C77.9132 40.3607 76.4961 37.8663 74.3692 36.2262Z" fill="var(--fill-0, #38C5F3)"/>
<path id="Vector_32" d="M49.2574 40.4362H66.5192C66.7091 40.4362 66.8967 40.4291 67.0842 40.4173C67.1412 40.415 67.1981 40.4079 67.2551 40.4032C67.388 40.3937 67.5186 40.3819 67.6491 40.3654C67.7109 40.3583 67.7702 40.3513 67.8319 40.3418C67.9649 40.3229 68.0978 40.3017 68.2283 40.2781C68.2782 40.2687 68.328 40.2616 68.3755 40.2521C68.7434 40.179 69.1042 40.0846 69.4532 39.9713C69.4745 39.9642 69.4983 39.9548 69.5196 39.9477C69.6763 39.8958 69.8306 39.8392 69.9825 39.7802C70.011 39.7684 70.0371 39.7589 70.0632 39.7471C70.2223 39.6834 70.3813 39.615 70.5356 39.5418C70.5451 39.5371 70.5522 39.5347 70.5617 39.53C72.1141 38.7937 73.4292 37.6469 74.3716 36.2309C72.7123 34.9543 70.6211 34.1967 68.385 34.1967H49.2551C47.8094 34.1967 46.6392 35.3601 46.6392 36.7973V37.838C46.6392 39.2752 47.8094 40.4386 49.2551 40.4386L49.2574 40.4362Z" fill="var(--fill-0, #78C043)"/>
<path id="Vector_33" d="M105.033 23.9219C98.7285 19.7119 90.1094 20.375 84.5359 25.916C83.7906 26.657 83.1354 27.4546 82.5657 28.2924C82.7912 27.9738 83.0713 27.7189 83.387 27.5349C84.3769 26.9567 85.6895 27.0605 86.5678 27.9337L96.0058 37.3165L105.444 27.9337C106.614 26.7703 106.41 24.8399 105.038 23.9219H105.033Z" fill="var(--fill-0, #E0198F)"/>
<path id="Vector_34" d="M86.5655 46.6969C85.8343 47.4238 84.8018 47.6173 83.9045 47.327C83.3823 47.1571 82.9099 46.8244 82.5657 46.3382C83.1354 47.176 83.7906 47.9736 84.5359 48.7146C90.1094 54.2556 98.7285 54.9187 105.033 50.7087C106.408 49.7907 106.609 47.8603 105.439 46.6969L96.0011 37.3141L86.5631 46.6969H86.5655Z" fill="var(--fill-0, #38C5F3)"/>
<path id="Vector_35" d="M83.9021 47.327C84.7994 47.6173 85.832 47.4238 86.5631 46.6969L96.0011 37.3141L86.5631 27.9313C85.6848 27.0582 84.3745 26.9543 83.3823 27.5325C82.7675 27.8676 82.3853 28.5331 82.0316 29.123C81.3219 30.3148 80.7688 31.6009 80.3937 32.9342C79.3635 36.5401 79.6531 40.4952 81.2032 43.9123C81.4975 44.5636 81.8346 45.196 82.2144 45.8025C82.5942 46.4751 83.1639 47.117 83.9021 47.3246V47.327Z" fill="var(--fill-0, #6C3794)"/>
<path id="Vector_36" d="M22.1019 21.8476C22.6478 21.8476 23.1558 22.0151 23.576 22.3007C16.723 23.9738 11.6408 30.1213 11.6408 37.4486V24.4482C11.6408 23.011 12.8111 21.8476 14.2567 21.8476H22.1042H22.1019Z" fill="var(--fill-0, #38C5F3)"/>
<path id="Vector_37" d="M40.4105 21.8452C41.8561 21.8452 43.0264 23.0086 43.0264 24.4458V37.4463C43.0264 30.1165 37.9418 23.9715 31.0912 22.2983C31.5114 22.0128 32.0193 21.8452 32.5653 21.8452H40.4105Z" fill="var(--fill-0, #38C5F3)"/>
<path id="Vector_38" d="M27.3336 39.8014C25.9711 39.8014 24.8554 38.7678 24.7296 37.4463H11.6384C11.6384 46.0621 18.6647 53.0473 27.3312 53.0473C35.9977 53.0473 43.024 46.0621 43.024 37.4463H29.9352C29.8118 38.7678 28.6937 39.8014 27.3312 39.8014H27.3336Z" fill="var(--fill-0, #E0198F)"/>
<path id="Vector_39" d="M24.7177 37.2032V24.4482C24.7177 23.5561 24.2643 22.7679 23.576 22.3007C16.723 23.9738 11.6408 30.1213 11.6408 37.4486H24.732C24.7248 37.3684 24.7201 37.2858 24.7201 37.2032H24.7177Z" fill="var(--fill-0, #6C3794)"/>
<path id="Vector_40" d="M31.0888 22.3007C30.4005 22.7679 29.9471 23.5561 29.9471 24.4482V37.2032C29.9471 37.2858 29.9423 37.3684 29.9352 37.4486H43.024C43.024 30.1189 37.9394 23.9738 31.0888 22.3007Z" fill="var(--fill-0, #6C3794)"/>
<path id="Vector_41" d="M167.814 28.3466V29.4817H163.847V28.585L165.753 26.8127C165.938 26.6381 166.062 26.4918 166.124 26.3667C166.188 26.244 166.219 26.1189 166.219 25.9939C166.219 25.831 166.162 25.7012 166.05 25.6116C165.938 25.5195 165.777 25.4747 165.563 25.4747C165.374 25.4747 165.2 25.5172 165.044 25.6021C164.887 25.6871 164.756 25.8074 164.654 25.9679L163.584 25.3756C163.783 25.0476 164.061 24.7903 164.422 24.6015C164.78 24.4128 165.205 24.3184 165.694 24.3184C166.081 24.3184 166.425 24.3821 166.724 24.5072C167.023 24.6322 167.256 24.8116 167.422 25.0452C167.588 25.2788 167.674 25.5502 167.674 25.8594C167.674 26.1331 167.614 26.3927 167.496 26.6381C167.377 26.8812 167.147 27.1573 166.807 27.4664L165.846 28.349H167.811L167.814 28.3466Z" fill="var(--fill-0, white)"/>
<path id="Vector_42" d="M169.585 29.2741C169.245 29.0664 168.979 28.7643 168.787 28.3655C168.595 27.9667 168.5 27.4971 168.5 26.952C168.5 26.4068 168.595 25.9349 168.787 25.5384C168.979 25.1396 169.245 24.8375 169.585 24.6299C169.924 24.4222 170.313 24.3184 170.748 24.3184C171.182 24.3184 171.564 24.4222 171.904 24.6299C172.243 24.8375 172.509 25.1396 172.701 25.5384C172.894 25.9372 172.988 26.4068 172.988 26.952C172.988 27.4971 172.894 27.9691 172.701 28.3655C172.509 28.7643 172.243 29.0664 171.904 29.2741C171.564 29.4817 171.177 29.5856 170.748 29.5856C170.318 29.5856 169.924 29.4817 169.585 29.2741ZM171.327 28.0611C171.469 27.8275 171.54 27.457 171.54 26.9496C171.54 26.4422 171.469 26.0741 171.327 25.8381C171.184 25.6045 170.99 25.4865 170.748 25.4865C170.506 25.4865 170.304 25.6045 170.161 25.8381C170.019 26.0717 169.948 26.4422 169.948 26.9496C169.948 27.457 170.019 27.8251 170.161 28.0611C170.304 28.2947 170.501 28.4127 170.748 28.4127C170.995 28.4127 171.182 28.2947 171.327 28.0611Z" fill="var(--fill-0, white)"/>
<path id="Vector_43" d="M167.754 34.5318V35.6669H163.788V34.7702L165.694 32.9979C165.879 32.8233 166.003 32.677 166.064 32.5519C166.128 32.4292 166.159 32.3041 166.159 32.1791C166.159 32.0162 166.102 31.8864 165.991 31.7968C165.879 31.7047 165.718 31.6599 165.504 31.6599C165.314 31.6599 165.141 31.7024 164.984 31.7873C164.828 31.8723 164.697 31.9926 164.595 32.1531L163.524 31.5608C163.724 31.2328 164.001 30.9755 164.36 30.7867C164.718 30.598 165.143 30.5036 165.632 30.5036C166.019 30.5036 166.363 30.5673 166.662 30.6923C166.962 30.8174 167.194 30.9968 167.36 31.2304C167.526 31.464 167.612 31.7354 167.612 32.0445C167.612 32.3183 167.553 32.5779 167.434 32.8233C167.315 33.0664 167.085 33.3425 166.746 33.6516L165.784 34.5342H167.75L167.754 34.5318Z" fill="var(--fill-0, white)"/>
<path id="Vector_44" d="M171.939 32.6416C172.205 32.7737 172.419 32.9625 172.575 33.2056C172.732 33.4487 172.813 33.7271 172.813 34.041C172.813 34.3832 172.725 34.6852 172.547 34.9495C172.369 35.2115 172.129 35.4144 171.828 35.556C171.524 35.6976 171.187 35.7684 170.812 35.7684C170.083 35.7684 169.509 35.5537 169.088 35.1242C168.666 34.6947 168.455 34.0787 168.455 33.2717C168.455 32.6935 168.569 32.1956 168.794 31.7779C169.02 31.3602 169.335 31.044 169.744 30.8269C170.152 30.6098 170.624 30.5012 171.163 30.5012C171.455 30.5012 171.73 30.5319 171.992 30.5956C172.253 30.6593 172.476 30.749 172.661 30.8693L172.136 31.8959C171.889 31.7212 171.576 31.6363 171.199 31.6363C170.821 31.6363 170.532 31.7378 170.304 31.9407C170.076 32.1437 169.945 32.4339 169.91 32.8162C170.202 32.5661 170.584 32.441 171.059 32.441C171.379 32.441 171.671 32.5071 171.939 32.6392V32.6416ZM171.225 34.5767C171.353 34.461 171.417 34.3053 171.417 34.1071C171.417 33.9088 171.353 33.7602 171.225 33.6445C171.097 33.5289 170.928 33.4699 170.719 33.4699C170.51 33.4699 170.342 33.5289 170.209 33.6469C170.078 33.7649 170.012 33.9206 170.012 34.1141C170.012 34.3077 170.076 34.4563 170.204 34.5743C170.332 34.6923 170.506 34.7513 170.724 34.7513C170.928 34.7513 171.094 34.6923 171.222 34.5767H171.225Z" fill="var(--fill-0, white)"/>
<g id="Group">
<path id="Vector_45" d="M46.3591 16.3326C46.5442 16.3963 46.7341 16.4553 46.9169 16.5285C47.0024 16.5615 47.0498 16.5426 47.1044 16.4718C47.7003 15.719 48.2011 14.912 48.5809 14.0294C48.9014 13.2837 49.1364 12.512 49.2099 11.7002C49.2788 10.9403 49.2028 10.2017 48.8895 9.49608C48.842 9.38752 48.7661 9.36078 48.6616 9.41584C48.6118 9.4418 48.5595 9.46776 48.5097 9.49608C47.7643 9.92793 47.2303 10.558 46.8125 11.2943C46.4327 11.9621 46.1763 12.6772 45.9935 13.4205C45.7846 14.2701 45.6921 15.1338 45.6921 16.0093C45.6921 16.0777 45.7158 16.1108 45.7799 16.132C45.9745 16.1957 46.1668 16.2642 46.3591 16.3302V16.3326ZM47.3893 16.6323C47.629 16.8636 47.8593 17.1279 48.0373 17.437C48.2154 17.7485 48.3198 18.0883 48.3886 18.4423C48.7827 17.8783 49.0533 17.2742 49.0651 16.5804C49.077 15.9479 48.8681 15.3863 48.5334 14.8789C48.1536 15.4618 47.7738 16.0423 47.3869 16.6347L47.3893 16.6323ZM45.3692 15.9338C45.4381 15.2258 45.5022 14.5438 45.5686 13.8642C45.1342 13.9562 44.4482 14.3598 44.0447 14.9096C43.6483 15.45 43.4346 16.3208 43.4655 16.7409C44.0067 16.224 44.6642 15.9881 45.3692 15.9338ZM45.5496 18.7963C45.5496 18.7963 45.5568 18.7986 45.5615 18.801C45.749 18.4683 45.9342 18.1355 46.1217 17.8028C46.1312 17.8028 46.1383 17.8075 46.1478 17.8075C46.1431 17.9727 46.136 18.1355 46.1312 18.3007C46.136 18.3007 46.1407 18.3007 46.1478 18.3007C46.3781 17.8051 46.606 17.3096 46.8362 16.814C46.4469 16.6795 46.079 16.5521 45.7039 16.4223C45.6422 16.7597 45.5829 17.0854 45.5164 17.4417C45.6446 17.3332 45.749 17.2459 45.8511 17.1562C45.8582 17.1609 45.8677 17.1633 45.8748 17.168C45.7657 17.7108 45.6588 18.2535 45.5496 18.7986V18.7963Z" fill="var(--fill-0, white)"/>
<path id="Vector_46" d="M46.3591 16.3326C46.1668 16.2665 45.9745 16.1957 45.7799 16.1344C45.7158 16.1131 45.6921 16.0801 45.6921 16.0117C45.6921 15.1361 45.7846 14.2748 45.9935 13.4229C46.1763 12.6795 46.4303 11.9645 46.8125 11.2967C47.2326 10.5604 47.7643 9.93029 48.5097 9.49844C48.5595 9.47012 48.6094 9.44416 48.6616 9.4182C48.7645 9.36314 48.8404 9.38988 48.8895 9.49844C49.2052 10.204 49.2788 10.9427 49.2099 11.7025C49.1364 12.5143 48.9014 13.286 48.5809 14.0317C48.2011 14.9143 47.7003 15.7214 47.1044 16.4742C47.0498 16.5426 47.0024 16.5639 46.9169 16.5308C46.7341 16.46 46.5466 16.3987 46.3591 16.335V16.3326ZM47.4154 10.9781C47.9115 11.1503 48.391 11.3155 48.8847 11.4878C48.9132 10.9096 48.8586 10.3574 48.6497 9.80994C48.1418 10.112 47.7525 10.5085 47.4154 10.9781ZM47.254 13.7839C47.7003 13.9373 48.175 13.7084 48.3293 13.2671C48.4812 12.8282 48.2533 12.3562 47.8166 12.2028C47.3656 12.0447 46.8908 12.2736 46.7341 12.7244C46.5822 13.1609 46.8125 13.6306 47.254 13.7839Z" fill="var(--fill-0, #231F20)"/>
<path id="Vector_47" d="M47.3893 16.6323C47.7762 16.04 48.1536 15.4618 48.5358 14.8766C48.8681 15.3839 49.0794 15.9479 49.0675 16.578C49.0533 17.2718 48.7827 17.8759 48.391 18.44C48.3222 18.086 48.2177 17.7485 48.0397 17.4346C47.8617 17.1255 47.6314 16.8612 47.3917 16.6299L47.3893 16.6323Z" fill="var(--fill-0, #EEEE22)" stroke="var(--stroke-0, #231F20)" stroke-width="0.54" stroke-miterlimit="10"/>
<path id="Vector_48" d="M45.3692 15.9338C44.6642 15.9881 44.0067 16.2264 43.4655 16.7409C43.4346 16.3208 43.6483 15.45 44.0447 14.9096C44.4482 14.3598 45.1342 13.9562 45.5686 13.8642C45.5045 14.5415 45.4381 15.2258 45.3692 15.9338Z" fill="var(--fill-0, #EEEE22)" stroke="var(--stroke-0, #231F20)" stroke-width="0.54" stroke-miterlimit="10"/>
<path id="Vector_49" d="M45.5496 18.7963C45.6588 18.2535 45.7657 17.7108 45.8748 17.1656C45.8677 17.1609 45.8582 17.1585 45.8511 17.1538C45.7467 17.2435 45.6422 17.3308 45.5164 17.4394C45.5829 17.083 45.6422 16.7574 45.7039 16.4199C46.079 16.5497 46.4469 16.6771 46.8362 16.8116C46.606 17.3096 46.3757 17.8028 46.1478 18.2984C46.1431 18.2984 46.1383 18.2984 46.1312 18.2984C46.136 18.1332 46.1431 17.9703 46.1478 17.8051C46.1383 17.8051 46.1312 17.8004 46.1217 17.8004C45.9342 18.1332 45.749 18.4659 45.5615 18.7987C45.5568 18.7987 45.5544 18.7963 45.5496 18.7939V18.7963Z" fill="var(--fill-0, #E0198F)"/>
<path id="Vector_50" d="M47.4154 10.9781C47.7525 10.5085 48.1418 10.1096 48.6497 9.80994C48.8586 10.3574 48.9132 10.9096 48.8847 11.4878C48.3934 11.3179 47.9115 11.1503 47.4154 10.9781Z" fill="var(--fill-0, white)"/>
<path id="Vector_51" d="M47.254 13.7839C46.8125 13.6306 46.5822 13.1609 46.7341 12.7244C46.8908 12.276 47.3656 12.0471 47.8166 12.2028C48.2533 12.3562 48.4836 12.8282 48.3293 13.2671C48.175 13.7084 47.7003 13.9373 47.254 13.7839ZM46.9691 12.7834C46.8505 13.1067 47.0095 13.4465 47.3347 13.5621C47.6385 13.6707 47.9851 13.5102 48.099 13.2081C48.2177 12.8943 48.0658 12.5497 47.7596 12.4365C47.4296 12.3138 47.0902 12.4648 46.9715 12.7857L46.9691 12.7834Z" fill="var(--fill-0, white)"/>
<path id="Vector_52" d="M46.9691 12.7834C47.0878 12.4624 47.4273 12.3138 47.7572 12.4341C48.0634 12.5474 48.2154 12.8919 48.0967 13.2058C47.9827 13.5102 47.6385 13.6683 47.3323 13.5598C47.0071 13.4441 46.8481 13.1043 46.9668 12.781L46.9691 12.7834Z" fill="var(--fill-0, #EEEE22)" stroke="var(--stroke-0, #231F20)" stroke-width="0.54" stroke-miterlimit="10"/>
<path id="Vector_53" d="M45.3075 14.0978C45.3075 14.0978 45.1627 14.1639 44.9728 14.2819C44.9111 14.3196 44.8446 14.3645 44.7782 14.4164C44.6263 14.5297 44.4696 14.6689 44.3462 14.8294C44.1776 15.0536 44.0423 15.2305 43.9474 15.3745C43.8524 15.5184 43.7955 15.6317 43.7812 15.7285C43.7527 15.9243 43.5842 16.4034 43.5842 16.4034L44.1776 15.2801L44.6286 14.8577H44.8826V14.5202L45.3075 14.0978Z" fill="var(--fill-0, white)"/>
</g>
<g id="Group_2">
<path id="Vector_54" d="M14.7908 18.2464H11.6194V12.9132H12.7446V17.2364H13.6656V12.9132H14.7931V18.2464H14.7908ZM11.7191 13.017L11.7263 18.1662L14.7124 18.1733L11.8853 18.001L11.8639 13.1845C11.9731 13.1633 12.0776 13.1397 12.1749 13.1185C12.258 13.0996 12.3411 13.0807 12.4218 13.0642C12.5025 13.0477 12.5618 13.0359 12.5974 13.0288C12.55 13.0311 12.4787 13.0311 12.3814 13.0288C12.2841 13.0264 12.1868 13.0264 12.0894 13.0241C11.9731 13.0217 11.8497 13.0194 11.7191 13.017ZM12.6283 16.5096C12.6283 16.5096 12.6283 16.4883 12.6283 16.4553C12.6283 16.4199 12.6259 16.3751 12.6235 16.3184C12.6212 16.2618 12.6188 16.1981 12.6188 16.1273C12.6188 16.0565 12.6164 15.9833 12.614 15.9102C12.6093 15.7379 12.6045 15.5397 12.6022 15.3155L12.5808 17.3851L13.6158 17.286C13.433 17.286 13.2716 17.286 13.1291 17.2813C13.0698 17.2813 13.0105 17.2813 12.9535 17.2813C12.8965 17.2813 12.8443 17.2789 12.7968 17.2765C12.7517 17.2765 12.7019 17.2742 12.6473 17.2718C12.6473 17.1963 12.6473 17.1302 12.6473 17.0736C12.6473 17.0193 12.6449 16.958 12.6425 16.8919C12.6425 16.8258 12.6402 16.7668 12.6378 16.7102C12.6354 16.6535 12.6378 16.6087 12.6378 16.5709C12.6378 16.5332 12.6378 16.5119 12.633 16.5096H12.6283ZM12.6425 13.0241H12.6283C12.6283 13.0241 12.6188 13.0241 12.614 13.0241C12.6093 13.0241 12.6045 13.0241 12.5998 13.0241C12.6283 13.0241 12.6449 13.0241 12.6449 13.0194L12.6425 13.0241ZM13.7558 13.0099L13.7701 17.1751L13.8603 13.1444C13.9766 13.1232 14.0858 13.0996 14.1902 13.0783C14.2804 13.0595 14.3682 13.0406 14.4584 13.0241C14.5486 13.0076 14.6175 12.9934 14.6673 12.984C14.6104 12.9887 14.532 12.9934 14.4323 12.9958C14.3326 12.9981 14.2306 13.0028 14.1309 13.0052C14.0122 13.0099 13.8864 13.0123 13.7558 13.0123V13.0099ZM14.7362 12.9722H14.7172C14.7172 12.9722 14.6934 12.9745 14.6697 12.9792C14.7101 12.9792 14.7314 12.9769 14.7362 12.9722Z" fill="var(--fill-0, white)"/>
<path id="Vector_55" d="M17.4944 15.9739V12.9132H18.5555V18.2464H17.4422L16.3432 15.1857V18.2464H15.2892V12.9132H16.4025L17.4944 15.9739ZM15.567 17.9845L15.5527 13.1963L16.3028 13.0241L15.4008 13.0453L15.4079 18.1308H16.2197L15.567 17.9821V17.9845ZM16.5117 15.3769C16.5117 15.3769 16.5165 15.4004 16.5355 15.4476C16.5544 15.4948 16.5806 15.5609 16.6162 15.6459C16.5877 15.5656 16.5616 15.4996 16.5449 15.4524C16.5283 15.4052 16.5165 15.3792 16.5141 15.3769H16.5117ZM17.5182 18.1473L18.4558 18.1804L17.6179 18.0081C17.4802 17.6872 17.3473 17.3757 17.2215 17.0783C17.1669 16.9532 17.1123 16.8234 17.0553 16.6889C16.9983 16.5544 16.9437 16.4246 16.8891 16.2972C16.8369 16.1698 16.7847 16.0518 16.7396 15.9385C16.6921 15.8276 16.6518 15.7285 16.6162 15.6459C16.6494 15.7308 16.685 15.8347 16.7277 15.9527C16.7705 16.0707 16.8156 16.1957 16.863 16.3302C16.9105 16.4647 16.9604 16.6016 17.0102 16.7432C17.0601 16.8848 17.1099 17.024 17.1597 17.1585C17.2737 17.4724 17.3924 17.8028 17.5158 18.1473H17.5182ZM17.6321 13.0382L17.5989 16.073L17.7437 13.1893C17.8553 13.1633 17.9573 13.1373 18.0523 13.1161C18.1306 13.0972 18.2089 13.0783 18.2825 13.0618C18.3561 13.0453 18.406 13.0335 18.4321 13.0288C18.406 13.0311 18.349 13.0335 18.2635 13.0335C18.1781 13.0335 18.0879 13.0335 17.9953 13.0335C17.8861 13.0359 17.7674 13.0382 17.6345 13.0382H17.6321ZM18.4487 13.0241H18.4416H18.4368C18.4368 13.0241 18.4344 13.0241 18.4321 13.0241H18.4463C18.4463 13.0241 18.4511 13.0241 18.4511 13.0194L18.4487 13.0241Z" fill="var(--fill-0, white)"/>
<path id="Vector_56" d="M19.0825 18.2464V12.9132H20.2076V17.2364H21.7814V18.2464H19.0848H19.0825ZM19.1988 13.0382L19.2035 18.1237L21.6888 18.1497L19.3744 17.9609L19.3531 13.2624C19.4623 13.2223 19.5643 13.1893 19.6617 13.1586C19.7424 13.1326 19.8231 13.1067 19.9014 13.0831C19.9797 13.0595 20.0367 13.0429 20.0699 13.0335C20.0533 13.0359 20.0272 13.0382 19.9916 13.0382C19.956 13.0382 19.918 13.0382 19.8753 13.0382H19.5833C19.4646 13.0382 19.3365 13.0382 19.2012 13.0335L19.1988 13.0382ZM20.1008 17.3497C20.0961 16.8258 20.0913 16.3279 20.0889 15.8559C20.0889 15.6553 20.0889 15.45 20.0889 15.24C20.0889 15.03 20.0866 14.8294 20.0842 14.6359C20.0842 14.4423 20.0842 14.263 20.0842 14.0978V13.6754C20.0818 13.7957 20.0794 13.9421 20.0771 14.112C20.0747 14.2819 20.0723 14.4683 20.0676 14.6642C20.0628 14.86 20.0605 15.0677 20.0557 15.2801C20.051 15.4925 20.0486 15.7002 20.0462 15.9007C20.0367 16.3774 20.0272 16.8777 20.0201 17.4016L21.6604 17.4229L21.7055 18.0175V17.3497L20.1032 17.345L20.1008 17.3497ZM20.0913 13.0312H20.0842C20.0842 13.0312 20.0794 13.0312 20.0771 13.0312C20.0747 13.0312 20.0699 13.0312 20.0652 13.0312C20.0818 13.0312 20.0913 13.0312 20.0913 13.0264V13.0312ZM20.0842 13.345C20.0842 13.345 20.0794 13.378 20.0794 13.4418V13.6754C20.0794 13.6235 20.0794 13.5786 20.0794 13.5362C20.0794 13.496 20.0794 13.4606 20.0794 13.43V13.3403L20.0842 13.345Z" fill="var(--fill-0, white)"/>
<path id="Vector_57" d="M22.2633 12.9132H24.8673V13.9279H23.3766V14.9568H24.7937V15.9527H23.3908V17.2364H24.9053V18.2464H22.2633V12.9132ZM24.3356 13.0123C24.2264 13.0123 24.1029 13.0123 23.9629 13.0123C23.8228 13.0123 23.6804 13.0123 23.538 13.0123C23.1962 13.0146 22.8092 13.017 22.3772 13.0194L22.382 18.1214L24.7676 18.1143L22.5149 17.9585L22.5363 13.1303C22.9398 13.1114 23.2982 13.0925 23.6163 13.076C23.7516 13.0689 23.8845 13.0618 24.0151 13.0547C24.1457 13.0477 24.2596 13.0406 24.3617 13.0359C24.4637 13.0312 24.5753 13.0241 24.6987 13.0146C24.5658 13.0123 24.4447 13.0099 24.3356 13.0099V13.0123ZM24.6703 15.8276C24.6703 15.7261 24.675 15.6317 24.6774 15.5444C24.6797 15.4689 24.6821 15.391 24.6821 15.3131C24.6821 15.2353 24.6845 15.1739 24.6869 15.1314C24.6821 15.1715 24.675 15.2235 24.6655 15.2919C24.656 15.3603 24.6465 15.4288 24.637 15.4972C24.6275 15.5774 24.6157 15.6624 24.599 15.7521L23.3979 15.8512L24.6679 15.8299L24.6703 15.8276ZM23.4027 17.3544C23.4763 17.3591 23.5451 17.3639 23.6068 17.3662C23.6685 17.3686 23.7397 17.3733 23.8181 17.378C23.8964 17.3827 23.9771 17.3851 24.0602 17.3898C24.2525 17.3993 24.4756 17.4111 24.7248 17.4276L24.7961 17.8783L24.8032 17.3544H23.405H23.4027ZM24.7011 13.3167C24.7011 13.3167 24.6987 13.345 24.694 13.3898C24.6892 13.4347 24.6845 13.4819 24.6797 13.5291C24.6726 13.5904 24.6655 13.6565 24.6584 13.7273L23.4122 13.8052L24.7248 13.7839C24.7201 13.6919 24.7154 13.614 24.713 13.5432C24.7082 13.4842 24.7059 13.43 24.7035 13.3828C24.7011 13.3356 24.7035 13.312 24.7035 13.3143L24.7011 13.3167ZM24.694 15.0748C24.694 15.0748 24.6892 15.0937 24.6892 15.1267C24.6892 15.122 24.6892 15.1149 24.6892 15.1078C24.6892 15.1007 24.6892 15.0937 24.6892 15.0889V15.0748H24.694Z" fill="var(--fill-0, white)"/>
<path id="Vector_58" d="M26.4434 18.2464H25.3159V13.758L26.18 12.9132H28.5252V18.2464H27.4001V16.4954H26.4434V18.2464ZM26.2251 13.0689L25.5319 13.8146L25.4417 13.8949L25.456 18.0954L26.2796 18.1332L25.5818 17.9845L25.596 14.0152L26.2417 13.2105L28.4231 13.0288L26.2227 13.0665L26.2251 13.0689ZM26.3153 17.6282C26.3153 17.5621 26.3176 17.4866 26.32 17.3993C26.32 17.3143 26.32 17.2246 26.32 17.1326C26.3224 16.9226 26.3247 16.6842 26.3247 16.4128L27.4831 16.3987L27.514 17.9137L27.5733 16.3137L26.2369 16.3279C26.2488 16.6087 26.2607 16.8612 26.2702 17.083C26.2749 17.1798 26.2796 17.2718 26.2844 17.3639C26.2891 17.4559 26.2915 17.5361 26.2963 17.6069C26.301 17.6777 26.3058 17.758 26.3129 17.8476C26.3153 17.7674 26.3176 17.6919 26.3176 17.6258L26.3153 17.6282ZM26.2891 13.7981C26.2891 13.7981 26.2868 13.8359 26.2891 13.9137C26.2915 13.9916 26.2939 14.0884 26.2963 14.204C26.2986 14.3196 26.301 14.4447 26.3058 14.5792C26.3105 14.7137 26.3129 14.8388 26.3153 14.9544C26.3176 15.0701 26.3224 15.2046 26.3271 15.3556C26.3271 15.2801 26.3271 15.1999 26.3319 15.1196C26.3342 15.0488 26.3366 14.9686 26.3366 14.8789C26.3366 14.7892 26.339 14.6996 26.3414 14.6052C26.3461 14.3857 26.3509 14.1356 26.3556 13.8571L27.4618 13.8288L26.2891 13.7981ZM26.5336 15.6034C26.5906 15.6034 26.6547 15.6034 26.7283 15.6034C26.8019 15.6034 26.8755 15.6034 26.9538 15.6034C27.1318 15.6034 27.336 15.6034 27.5662 15.5987L27.5282 13.9491L27.4997 15.542C27.2861 15.5538 27.0962 15.5656 26.9277 15.5751C26.8565 15.5798 26.7853 15.5845 26.7164 15.5869C26.6476 15.5892 26.5859 15.5916 26.5336 15.5963C26.4814 15.601 26.4197 15.6034 26.3509 15.6058H26.536L26.5336 15.6034ZM27.4001 15.4807V13.9279H26.4434V15.4807H27.4001ZM27.5354 18.1473H27.5781C27.6042 18.1473 27.6374 18.1473 27.6802 18.1473C27.7229 18.1473 27.7704 18.145 27.8202 18.1426C27.8724 18.1426 27.927 18.1426 27.984 18.1426C28.1122 18.1402 28.2593 18.1379 28.4255 18.1355L28.4397 13.3191L28.359 18.0624C28.2 18.0789 28.0599 18.0954 27.9389 18.1072C27.8867 18.1119 27.8368 18.1167 27.787 18.1237C27.7371 18.1308 27.6944 18.1355 27.6564 18.1379C27.6184 18.1402 27.5876 18.145 27.5662 18.1473C27.5448 18.1497 27.533 18.152 27.5377 18.152L27.5354 18.1473Z" fill="var(--fill-0, white)"/>
<path id="Vector_59" d="M31.9766 18.2464H29.0261V16.5875H30.1512V17.2364H30.8491V16.3892L29.064 15.0512V12.9155H31.9434V14.5013H30.9227V13.9326H30.1892V14.6288L31.9766 15.9645V18.2464ZM29.1186 16.7055V18.152L31.668 18.1662C31.2218 18.1402 30.823 18.1143 30.4693 18.0883C30.3174 18.0789 30.1702 18.0695 30.0278 18.06C29.8854 18.0506 29.7548 18.0411 29.6409 18.0341C29.5269 18.027 29.4011 18.0175 29.2634 18.0081C29.2611 17.9397 29.2587 17.8759 29.2563 17.8193C29.2539 17.7627 29.2516 17.699 29.2516 17.6282C29.2516 17.5574 29.2516 17.4842 29.2516 17.4063C29.2492 17.2317 29.2468 17.0311 29.2444 16.8046C29.3252 16.7928 29.4059 16.781 29.4866 16.7668C29.553 16.755 29.6242 16.7432 29.7002 16.7314C29.7762 16.7196 29.845 16.7102 29.9067 16.7031C29.8379 16.7055 29.7595 16.7078 29.6693 16.7078H29.413C29.3157 16.7078 29.2207 16.7078 29.1234 16.7031L29.1186 16.7055ZM29.1519 13.0028L29.1732 14.9946L30.9725 16.3373L30.9512 17.2034L31.077 16.2712L29.2777 14.9025V13.1586C29.667 13.135 30.0278 13.1114 30.3601 13.0925C30.5002 13.0854 30.6426 13.076 30.7874 13.0689C30.9298 13.0595 31.0651 13.0524 31.1909 13.0453C31.3167 13.0382 31.4307 13.0312 31.528 13.0264C31.6277 13.0217 31.7013 13.017 31.7535 13.0146H31.2052C31.0746 13.0146 30.9345 13.0146 30.7826 13.0146C30.6307 13.0146 30.4788 13.0146 30.3292 13.0146C29.9732 13.0123 29.5791 13.0099 29.1495 13.0076L29.1519 13.0028ZM30.0658 16.6913C30.0658 16.6913 30.0515 16.6889 30.0207 16.6913C29.9922 16.6937 29.9518 16.6984 29.902 16.7055C29.9518 16.7031 29.9922 16.7007 30.0207 16.7007C30.0491 16.7007 30.0658 16.696 30.0658 16.6913ZM31.0105 13.9539C31.0105 13.9539 31.0058 13.9798 31.0058 14.0247C31.0058 14.0695 31.0058 14.1214 31.0058 14.178V14.3999L31.8959 14.4211L31.0865 14.2984C31.0746 14.2347 31.0627 14.1757 31.0532 14.1261C31.0437 14.0813 31.0342 14.0412 31.0271 14.0058C31.02 13.9704 31.0153 13.9515 31.0129 13.9515L31.0105 13.9539ZM31.9007 16.0518C31.9007 16.0518 31.884 16.0423 31.8532 16.0187C31.8223 15.9951 31.7843 15.9645 31.7392 15.9291C31.6941 15.8937 31.6443 15.8535 31.5897 15.8087C31.5351 15.7639 31.4829 15.7238 31.4354 15.686C31.3879 15.6482 31.3452 15.6152 31.312 15.5892C31.2764 15.5633 31.2574 15.5491 31.2526 15.542L31.8437 16.0872L31.903 18.086V16.0494L31.9007 16.0518ZM31.8271 13.0099H31.8081C31.8081 13.0099 31.7962 13.0099 31.7867 13.0099C31.7772 13.0099 31.7677 13.0099 31.7559 13.0099H31.801C31.801 13.0099 31.82 13.0099 31.8271 13.0052V13.0099Z" fill="var(--fill-0, white)"/>
<path id="Vector_60" d="M33.586 15.1055H34.5498V12.9155H35.6749V18.2488H34.5498V16.1178H33.586V18.2488H32.4609V12.9155H33.586V15.1055ZM33.3819 13.0312C33.3581 13.0312 33.3249 13.0312 33.2869 13.0312C33.2489 13.0312 33.2038 13.0335 33.1564 13.0359C33.1089 13.0382 33.0567 13.0359 33.0044 13.0359C32.8858 13.0382 32.7505 13.0406 32.5962 13.0406L32.589 18.0907L33.4246 18.1214L32.7742 17.9562L32.7457 13.168C32.8763 13.1444 32.9926 13.1208 33.0899 13.1019C33.1326 13.0949 33.173 13.0854 33.2133 13.0783C33.2537 13.0689 33.2893 13.0618 33.3202 13.0547C33.351 13.0477 33.3842 13.0406 33.4222 13.0335H33.3819V13.0312ZM33.4341 16.0683C33.4341 16.0683 33.4293 16.0942 33.4293 16.1462C33.4293 16.1981 33.4293 16.2642 33.4293 16.3468C33.4293 16.4293 33.4317 16.5237 33.4341 16.6299C33.4365 16.7361 33.4388 16.8447 33.4412 16.9556C33.4483 17.2152 33.4578 17.5125 33.4673 17.8405L33.4887 16.0376H34.4952L33.4222 15.9715C33.4246 15.9904 33.427 16.0069 33.4293 16.0187C33.4341 16.0518 33.4341 16.0659 33.4293 16.0659L33.4341 16.0683ZM33.4555 13.4441C33.4555 13.4441 33.4507 13.463 33.4507 13.5031C33.4507 13.5432 33.4507 13.5952 33.4555 13.6636C33.4578 13.732 33.4626 13.8099 33.4673 13.8972C33.4721 13.9845 33.4768 14.0789 33.4816 14.1733C33.4792 14.0766 33.4768 13.9869 33.4744 13.8996C33.4721 13.8123 33.4697 13.7344 33.4697 13.6683C33.4697 13.5999 33.4673 13.5456 33.465 13.5055C33.4626 13.4654 33.4602 13.4441 33.4578 13.4441H33.4555ZM33.5006 15.2187L34.4904 15.2117L33.5433 15.1668C33.5362 15.0653 33.529 14.9592 33.5219 14.8506C33.5172 14.7562 33.5101 14.65 33.5006 14.532C33.4911 14.4117 33.4839 14.2937 33.4792 14.1757C33.4816 14.3008 33.4839 14.4235 33.4863 14.5462C33.4887 14.6689 33.4911 14.7798 33.4934 14.8789C33.4958 14.9969 33.4982 15.1102 33.4982 15.2187H33.5006ZM34.6732 16.3373C34.6732 16.3892 34.6732 16.46 34.6779 16.545C34.6827 16.6299 34.6827 16.7267 34.6827 16.8352C34.6827 16.9438 34.6851 17.0571 34.6874 17.168C34.6922 17.437 34.6993 17.7391 34.7064 18.0789L35.5111 18.119L34.8393 17.9751C34.8132 17.6565 34.7871 17.3686 34.761 17.1161C34.7515 17.0099 34.742 16.906 34.7325 16.8022C34.723 16.6984 34.7135 16.6063 34.7064 16.5261C34.6993 16.4459 34.6898 16.3562 34.6779 16.2571C34.6756 16.2571 34.6732 16.283 34.6732 16.3373ZM34.7064 13.0429L34.7135 14.9828L34.8109 13.1562C34.8939 13.1421 34.977 13.1255 35.0554 13.1114C35.1218 13.0996 35.1907 13.0854 35.2619 13.0736C35.3331 13.0595 35.3924 13.05 35.4423 13.0429C35.3877 13.0453 35.3188 13.0477 35.2381 13.0477H34.996C34.9034 13.0477 34.8085 13.0477 34.7064 13.0429ZM35.5301 13.0312C35.5301 13.0312 35.5254 13.0288 35.5087 13.0312C35.4921 13.0335 35.4684 13.0382 35.4423 13.0429C35.4992 13.0382 35.5277 13.0335 35.5325 13.0312H35.5301Z" fill="var(--fill-0, white)"/>
<path id="Vector_61" d="M36.1544 12.9132H38.7584V13.9279H37.2677V14.9568H38.6848V15.9527H37.2819V17.2364H38.7964V18.2464H36.1544V12.9132ZM38.2267 13.0123C38.1175 13.0123 37.994 13.0123 37.854 13.0123C37.7139 13.0123 37.5715 13.0123 37.4291 13.0123C37.0873 13.0146 36.7004 13.017 36.2683 13.0194L36.2731 18.1214L38.6587 18.1143L36.406 17.9585L36.4274 13.1303C36.8309 13.1114 37.1893 13.0925 37.5074 13.076C37.6427 13.0689 37.7757 13.0618 37.9062 13.0547C38.0368 13.0477 38.1507 13.0406 38.2528 13.0359C38.3548 13.0312 38.4664 13.0241 38.5899 13.0146C38.4569 13.0123 38.3359 13.0099 38.2267 13.0099V13.0123ZM38.5614 15.8276C38.5614 15.7261 38.5661 15.6317 38.5685 15.5444C38.5709 15.4689 38.5732 15.391 38.5732 15.3131C38.5732 15.2353 38.5756 15.1739 38.578 15.1314C38.5732 15.1715 38.5661 15.2235 38.5566 15.2919C38.5471 15.3603 38.5376 15.4288 38.5281 15.4972C38.5186 15.5774 38.5068 15.6624 38.4902 15.7521L37.289 15.8512L38.559 15.8299L38.5614 15.8276ZM37.2914 17.3544C37.365 17.3591 37.4338 17.3639 37.4956 17.3662C37.5573 17.3686 37.6285 17.3733 37.7068 17.378C37.7852 17.3827 37.8659 17.3851 37.9489 17.3898C38.1412 17.3993 38.3643 17.4111 38.6136 17.4276L38.6848 17.8783L38.6919 17.3544H37.2938H37.2914ZM38.5899 13.3167C38.5899 13.3167 38.5875 13.345 38.5827 13.3898C38.578 13.4347 38.5732 13.4819 38.5685 13.5291C38.5614 13.5904 38.5542 13.6565 38.5471 13.7273L37.3009 13.8052L38.6136 13.7839C38.6088 13.6919 38.6041 13.614 38.6017 13.5432C38.597 13.4842 38.5946 13.43 38.5922 13.3828C38.5899 13.3356 38.5922 13.312 38.5922 13.3143L38.5899 13.3167ZM38.5827 15.0748C38.5827 15.0748 38.578 15.0937 38.578 15.1267C38.578 15.122 38.578 15.1149 38.578 15.1078C38.578 15.1007 38.578 15.0937 38.578 15.0889V15.0748H38.5827Z" fill="var(--fill-0, white)"/>
<path id="Vector_62" d="M39.207 12.9132H41.5143L42.3783 13.758V17.5102L41.6259 18.2488H39.207V12.9155V12.9132ZM39.34 13.0241L39.3328 18.1096L41.5143 18.1308L39.4966 17.968L39.4895 13.1869C39.7577 13.1609 40.0093 13.135 40.2491 13.109C40.3512 13.0996 40.4532 13.0901 40.5601 13.0783C40.6645 13.0689 40.7666 13.0595 40.8615 13.05C40.9588 13.0406 41.0467 13.0311 41.1298 13.0241C41.2105 13.017 41.2793 13.0099 41.3339 13.0052C41.2769 13.0076 41.2057 13.0099 41.1179 13.0099C41.0301 13.0099 40.9351 13.0099 40.833 13.0099C40.731 13.0099 40.6194 13.0099 40.5055 13.0099C40.3915 13.0099 40.28 13.0099 40.1684 13.0099C39.9097 13.0123 39.6319 13.0146 39.34 13.0146V13.0241ZM40.2372 17.2765C40.2325 17.1255 40.2254 16.9816 40.2182 16.8423C40.2159 16.7833 40.2135 16.722 40.2111 16.6583C40.2087 16.5945 40.2064 16.5332 40.204 16.4718C40.2016 16.4105 40.1992 16.3562 40.1969 16.3019C40.1945 16.25 40.1921 16.2028 40.1921 16.1603C40.1898 16.2453 40.1874 16.3562 40.1874 16.4883C40.1874 16.6205 40.185 16.7527 40.1826 16.8824C40.1803 17.0358 40.1755 17.1916 40.1708 17.3544H41.2057L40.2372 17.2765ZM40.1945 16.0235C40.1945 16.0235 40.1921 16.04 40.1945 16.0636C40.1945 16.0872 40.1945 16.1202 40.1945 16.1603V16.0235ZM41.2508 17.2364V13.9279H40.3298V17.2364H41.2508ZM40.3464 13.7509C40.3464 13.7509 40.3559 13.7556 40.3773 13.7556H40.458C40.4248 13.7533 40.3986 13.7509 40.3773 13.7509C40.3559 13.7509 40.344 13.7509 40.3464 13.7509ZM41.3102 13.8146L41.3434 16.6559L41.3814 13.7603H40.7143C40.6645 13.7603 40.617 13.7603 40.5743 13.7603C40.5292 13.7603 40.4912 13.7603 40.4604 13.7603C40.5221 13.7651 40.6004 13.7721 40.6977 13.7792C40.7951 13.7863 40.8876 13.7934 40.9802 13.7981C41.087 13.8075 41.1986 13.8146 41.3149 13.8193L41.3102 13.8146ZM41.455 13.0028H41.4193C41.398 13.0028 41.3695 13.0052 41.3315 13.0099C41.3695 13.0076 41.398 13.0052 41.4193 13.0052C41.4407 13.0052 41.4526 13.0052 41.4526 13.0005L41.455 13.0028ZM41.69 13.2907C41.7161 13.3238 41.7469 13.3615 41.7802 13.404C41.8158 13.4465 41.849 13.489 41.8846 13.5338L42.1671 13.8878C42.1718 14.5391 42.1766 15.122 42.1813 15.6317C42.1837 15.8512 42.1861 16.0636 42.1861 16.2712C42.1861 16.4789 42.1884 16.6653 42.1908 16.8282C42.1908 16.991 42.1932 17.1727 42.1956 17.3686C42.1647 17.4016 42.1386 17.4299 42.1149 17.4582C42.0911 17.4866 42.065 17.5196 42.0341 17.555C42.0057 17.5904 41.9748 17.6282 41.9463 17.6636C41.8751 17.7532 41.792 17.8523 41.7018 17.9633L42.2691 17.4276L42.2407 13.8288C42.122 13.7108 42.0175 13.6046 41.925 13.5078C41.8846 13.4677 41.8466 13.43 41.8086 13.3922C41.7707 13.3545 41.7374 13.3191 41.7066 13.2884C41.6757 13.2577 41.6425 13.2223 41.6069 13.1822C41.6354 13.2223 41.6638 13.2577 41.69 13.2907Z" fill="var(--fill-0, white)"/>
</g>
<g id="Group_3">
<path id="Vector_63" d="M53.656 15.9314V18.152H51.1398L50.3968 17.4134V12.8188H52.697L53.4566 13.5244V14.9922L52.9296 15.4122L53.6536 15.9314H53.656ZM50.5487 13.6542C50.5511 13.8595 50.5535 14.0907 50.5535 14.3527C50.5535 14.6146 50.5535 14.8813 50.5535 15.155L50.5606 17.3379L51.2252 18.0128L53.5254 18.0435L51.3131 17.8665L50.7078 17.2647L50.6864 13.0783L52.6234 12.9486C52.2317 12.9533 51.8828 12.958 51.5766 12.9604C51.446 12.9627 51.3178 12.9651 51.192 12.9651C51.0662 12.9651 50.9546 12.9674 50.8573 12.9698C50.76 12.9722 50.6532 12.9698 50.5369 12.9698C50.5392 13.2199 50.5416 13.4488 50.544 13.6518L50.5487 13.6542ZM51.3795 15.9196V16.1013C51.3795 16.1556 51.3795 16.2193 51.3795 16.2878C51.3795 16.3562 51.3819 16.427 51.3843 16.5025L51.3985 17.0854L51.427 15.9409L51.4413 15.8819L52.5071 15.8677L51.3677 15.8205L51.3748 15.8724C51.3795 15.9055 51.3795 15.9196 51.3748 15.9196H51.3795ZM51.3938 13.7249C51.3938 13.7249 51.3938 13.7367 51.3938 13.7674C51.3938 13.7981 51.3938 13.8382 51.3985 13.8901C51.3985 13.9397 51.3985 13.9987 51.3985 14.0624V14.8128L51.4436 13.7698H52.3314C52.1534 13.7674 51.9967 13.7627 51.859 13.7556C51.7997 13.7533 51.7427 13.7509 51.6858 13.7485C51.6288 13.7462 51.5789 13.7438 51.5362 13.7415C51.4935 13.7391 51.4579 13.7367 51.4318 13.7344C51.4057 13.732 51.3938 13.7297 51.3938 13.7273V13.7249ZM52.462 14.0341C52.4596 14.0884 52.4572 14.1497 52.4548 14.2182C52.4525 14.2866 52.4501 14.3574 52.4477 14.4329C52.4406 14.6052 52.4311 14.7987 52.4216 15.0158L51.5125 15.063L52.4881 15.0701L52.4738 14.4659C52.4715 14.3904 52.4691 14.3149 52.4691 14.2418C52.4691 14.1686 52.4691 14.1049 52.4691 14.0482V13.8571C52.4691 13.9208 52.4691 13.9798 52.4643 14.0341H52.462ZM52.348 14.9356V13.8335H51.5243V14.9356H52.348ZM52.5284 17.1397V15.9291H51.522V17.1397H52.5284ZM52.5949 16.0376C52.5949 16.0376 52.5996 16.0541 52.5996 16.0872C52.5996 16.1202 52.5996 16.165 52.5996 16.217V17.1656L51.5718 17.2246L52.6447 17.2175C52.6329 16.9934 52.621 16.7951 52.6115 16.6229C52.6068 16.5497 52.602 16.4765 52.5996 16.4081C52.5973 16.3373 52.5949 16.276 52.5925 16.2193C52.5901 16.165 52.5878 16.1202 52.5878 16.0872C52.5878 16.0541 52.5878 16.0376 52.5925 16.0376H52.5949ZM53.3521 13.581C53.3521 13.581 53.3474 13.5999 53.3474 13.6376C53.3474 13.6754 53.345 13.7273 53.3426 13.7887C53.3426 13.8524 53.3426 13.9232 53.3426 14.0011V14.2441C53.3426 14.4376 53.3426 14.6595 53.3474 14.9049L52.9059 15.3037L53.0839 15.0819C53.129 15.0252 53.1693 14.9733 53.2073 14.9261C53.2453 14.8789 53.2667 14.8553 53.269 14.8553C53.2809 14.7302 53.2904 14.6193 53.2975 14.5249C53.3046 14.4305 53.3118 14.3267 53.3189 14.2158C53.326 14.1049 53.3331 14.0034 53.3402 13.9067C53.3474 13.8123 53.3497 13.7344 53.3521 13.6707C53.3545 13.607 53.3545 13.5763 53.3521 13.5763V13.581ZM53.5468 17.5125C53.5468 17.4299 53.5468 17.3332 53.5468 17.227C53.5468 17.1208 53.5468 17.0122 53.5468 16.9013L53.5539 16.0093L52.9794 15.5892L53.4542 16.0541C53.4708 16.3798 53.4874 16.6701 53.5017 16.9249C53.5064 17.0335 53.5112 17.1397 53.5183 17.2435C53.5254 17.3473 53.5301 17.4417 53.5325 17.522C53.5373 17.6022 53.5396 17.6919 53.5444 17.791C53.542 17.6895 53.5396 17.5975 53.5396 17.5149L53.5468 17.5125Z" fill="var(--fill-0, white)"/>
<path id="Vector_64" d="M56.222 18.152L55.5549 16.224H55.2582V18.152H54.1331V13.5716L54.9496 12.8188H57.2474V16.2075H56.6397L57.3519 18.152H56.2243H56.222ZM56.7727 12.9368C56.673 12.9391 56.5614 12.9415 56.4332 12.9415C56.305 12.9415 56.1769 12.9415 56.0463 12.9415C55.7354 12.9438 55.3817 12.9462 54.99 12.9486L54.2731 13.6235L54.266 18.0128L55.1562 18.0435L54.4369 17.8476L54.4298 13.7155L55.028 13.0783C55.4149 13.0524 55.7591 13.0264 56.0629 13.0005C56.1911 12.991 56.3169 12.9816 56.4404 12.9722C56.5638 12.9627 56.6754 12.9556 56.7727 12.9486C56.87 12.9415 56.9792 12.9344 57.1003 12.9273C56.9816 12.9297 56.8724 12.932 56.7727 12.9344V12.9368ZM55.1111 16.1745C55.1111 16.1745 55.1087 16.1981 55.1111 16.2453C55.1134 16.2925 55.1134 16.3562 55.1158 16.4341C55.1182 16.5119 55.1206 16.6016 55.1229 16.7007C55.1277 16.8022 55.13 16.9037 55.1372 17.0075C55.1467 17.2506 55.1585 17.529 55.1752 17.8405L55.0446 16.099L55.4458 16.1367L55.1158 16.1745H55.1111ZM55.0897 13.8689C55.0944 13.9468 55.0992 14.0199 55.1016 14.086C55.1063 14.1521 55.1087 14.2276 55.1158 14.3149C55.1206 14.3999 55.1253 14.4872 55.13 14.5769C55.1395 14.7869 55.1538 15.0252 55.1704 15.2966L56.0795 15.3698L55.0826 15.3769L55.0897 13.8689ZM56.1199 15.2235V13.8335H55.2559V15.2235H56.1199ZM55.2701 13.6542C55.2701 13.6542 55.2843 13.6494 55.3105 13.6494C55.3366 13.6494 55.3722 13.6494 55.4149 13.6542C55.4576 13.6565 55.5051 13.6589 55.5597 13.6636C55.6143 13.6683 55.6689 13.6707 55.7259 13.673C55.8588 13.6825 56.0083 13.6943 56.1745 13.7108L56.2338 15.1975L56.2813 13.6636C56.0914 13.666 55.9205 13.6683 55.7733 13.6683H55.5858C55.5241 13.6683 55.4719 13.6683 55.4244 13.6683C55.3769 13.6683 55.3389 13.666 55.3105 13.6636C55.282 13.6636 55.2677 13.6612 55.2677 13.6589L55.2701 13.6542ZM55.6855 16.2335C55.6855 16.2335 55.6974 16.2594 55.7164 16.309C55.7354 16.3586 55.7591 16.427 55.7876 16.5119C55.8184 16.5969 55.8517 16.6937 55.8873 16.7998C55.9253 16.906 55.9609 17.017 55.9988 17.1302L56.2956 18.0293L57.2237 18.0695L56.3929 17.9043C56.2552 17.5928 56.1341 17.3143 56.0297 17.0712C55.9846 16.9674 55.9419 16.8659 55.8991 16.7644C55.8564 16.663 55.8184 16.5757 55.7852 16.4978C55.752 16.4199 55.7282 16.3562 55.7092 16.309C55.6903 16.2594 55.6831 16.2358 55.6855 16.2358V16.2335ZM57.1216 13.7061C57.1192 13.8359 57.1169 13.9822 57.1145 14.1497C57.1121 14.3149 57.1097 14.4848 57.1074 14.6571C57.1003 15.063 57.0931 15.5232 57.086 16.04L56.6231 16.0872L56.9863 15.9432C57.0101 15.4476 57.0338 15.0016 57.0575 14.6123C57.067 14.4471 57.0765 14.2842 57.086 14.1261C57.0955 13.9657 57.1026 13.8241 57.1097 13.699C57.1169 13.5739 57.124 13.4323 57.1311 13.2789C57.1287 13.437 57.1264 13.5786 57.124 13.7084L57.1216 13.7061Z" fill="var(--fill-0, white)"/>
<path id="Vector_65" d="M58.8924 18.152H57.7649V13.6636L58.6289 12.8188H60.9742V18.152H59.849V16.401H58.8924V18.152ZM58.674 12.9722L57.9809 13.7179L57.8907 13.7981L57.9049 17.9987L58.7286 18.0364L58.0308 17.8877L58.045 13.9185L58.6907 13.1137L60.8721 12.932L58.6717 12.9698L58.674 12.9722ZM58.7642 17.5314C58.7642 17.4653 58.7666 17.3898 58.769 17.3025C58.769 17.2175 58.769 17.1279 58.769 17.0358C58.7714 16.8258 58.7737 16.5875 58.7737 16.3161L59.9321 16.3019L59.963 17.8169L60.0223 16.217L58.6859 16.2311C58.6978 16.5119 58.7096 16.7645 58.7191 16.9863C58.7239 17.083 58.7286 17.1751 58.7334 17.2671C58.7381 17.3591 58.7405 17.4394 58.7453 17.5102C58.75 17.581 58.7547 17.6612 58.7619 17.7509C58.7642 17.6706 58.7666 17.5951 58.7666 17.529L58.7642 17.5314ZM58.7358 13.7037C58.7358 13.7037 58.7334 13.7415 58.7358 13.8193C58.7381 13.8972 58.7405 13.994 58.7429 14.1096C58.7453 14.2252 58.7476 14.3503 58.7524 14.4848C58.7571 14.6193 58.7595 14.7444 58.7619 14.86C58.7642 14.9757 58.769 15.1102 58.7737 15.2612C58.7737 15.1857 58.7737 15.1055 58.7785 15.0252C58.7809 14.9544 58.7832 14.8742 58.7832 14.7845C58.7832 14.6949 58.7856 14.6052 58.788 14.5108C58.7927 14.2913 58.7975 14.0412 58.8022 13.7627L59.9084 13.7344L58.7358 13.7037ZM58.9803 15.5066C59.0372 15.5066 59.1013 15.5066 59.1749 15.5066C59.2485 15.5066 59.3221 15.5066 59.4004 15.5066C59.5784 15.5066 59.7826 15.5066 60.0128 15.5019L59.9748 13.8524L59.9464 15.4453C59.7327 15.4571 59.5428 15.4689 59.3743 15.4783C59.3031 15.483 59.2319 15.4878 59.163 15.4901C59.0942 15.4925 59.0325 15.4948 58.9803 15.4996C58.928 15.5043 58.8663 15.5066 58.7975 15.509H58.9826L58.9803 15.5066ZM59.849 15.3839V13.8311H58.8924V15.3839H59.849ZM59.982 18.0529H60.0247C60.0508 18.0529 60.084 18.0529 60.1268 18.0529C60.1695 18.0529 60.217 18.0506 60.2668 18.0482C60.319 18.0482 60.3736 18.0482 60.4306 18.0482C60.5588 18.0459 60.706 18.0435 60.8721 18.0411L60.8864 13.2247L60.8057 17.968C60.6466 17.9845 60.5066 18.001 60.3855 18.0128C60.3333 18.0175 60.2834 18.0223 60.2336 18.0293C60.1837 18.0364 60.141 18.0411 60.103 18.0435C60.065 18.0459 60.0342 18.0506 60.0128 18.0529C59.9915 18.0553 59.9796 18.0577 59.9843 18.0577L59.982 18.0529Z" fill="var(--fill-0, white)"/>
<path id="Vector_66" d="M63.6779 15.8795V12.8188H64.7389V18.152H63.6257L62.5266 15.0913V18.152H61.4727V12.8188H62.586L63.6755 15.8795H63.6779ZM61.748 17.8901L61.7338 13.1019L62.4839 12.9297L61.5819 12.9509L61.589 18.0364H62.4008L61.748 17.8877V17.8901ZM62.6952 15.2825C62.6952 15.2825 62.6999 15.3061 62.7189 15.3533C62.7379 15.4004 62.764 15.4665 62.7996 15.5515C62.7687 15.4712 62.745 15.4052 62.7284 15.358C62.7094 15.3108 62.6999 15.2848 62.6975 15.2825H62.6952ZM63.6992 18.0529L64.6369 18.086L63.7989 17.9137C63.6613 17.5928 63.5283 17.2813 63.4025 16.9839C63.3479 16.8588 63.2933 16.7291 63.2364 16.5945C63.1794 16.46 63.1248 16.3302 63.0702 16.2028C63.018 16.0754 62.9681 15.9574 62.9207 15.8441C62.8732 15.7332 62.8328 15.6341 62.7972 15.5515C62.8281 15.6364 62.8661 15.7403 62.9088 15.8583C62.9515 15.9763 62.9966 16.1013 63.0441 16.2358C63.0916 16.3704 63.1414 16.5072 63.1913 16.6488C63.2411 16.7904 63.291 16.9296 63.3408 17.0642C63.4547 17.378 63.5734 17.7084 63.6969 18.0529H63.6992ZM63.8156 12.9438L63.7823 15.9786L63.9271 13.0949C64.0387 13.0689 64.1408 13.0429 64.2357 13.0217C64.314 13.0028 64.3924 12.984 64.466 12.9674C64.5395 12.9509 64.5894 12.9391 64.6155 12.9344C64.587 12.9368 64.5324 12.9391 64.447 12.9391C64.3615 12.9391 64.2713 12.9391 64.1787 12.9391C64.0695 12.9415 63.9509 12.9438 63.8179 12.9438H63.8156ZM64.6321 12.9297H64.625H64.6203C64.6203 12.9297 64.6179 12.9297 64.6155 12.9297H64.6297C64.6297 12.9297 64.6345 12.9297 64.6345 12.925L64.6321 12.9297Z" fill="var(--fill-0, white)"/>
<path id="Vector_67" d="M65.2659 12.8188H67.5732L68.4372 13.6636V17.4158L67.6848 18.1544H65.2659V12.8211V12.8188ZM65.3988 12.9297L65.3917 18.0152L67.5732 18.0364L65.5555 17.8736L65.5484 13.0925C65.8166 13.0665 66.0682 13.0406 66.308 13.0146C66.4101 13.0052 66.5121 12.9958 66.6189 12.984C66.7234 12.9745 66.8255 12.9651 66.9204 12.9556C67.0177 12.9462 67.1056 12.9368 67.1886 12.9297C67.2717 12.9226 67.3382 12.9155 67.3928 12.9108C67.3358 12.9132 67.2646 12.9155 67.1768 12.9155C67.0913 12.9155 66.994 12.9155 66.8919 12.9155C66.7898 12.9155 66.6783 12.9155 66.5643 12.9155C66.4504 12.9155 66.3388 12.9155 66.2273 12.9155C65.9685 12.9179 65.6908 12.9202 65.3988 12.9202V12.9297ZM66.2985 17.1821C66.2937 17.0311 66.2866 16.8872 66.2795 16.7479C66.2771 16.6889 66.2748 16.6276 66.2724 16.5639C66.27 16.5001 66.2676 16.4388 66.2653 16.3774C66.2629 16.3161 66.2605 16.2618 66.2581 16.2075C66.2558 16.1556 66.2534 16.1084 66.2534 16.0659C66.251 16.1509 66.2486 16.2618 66.2486 16.394C66.2486 16.5261 66.2463 16.6583 66.2439 16.788C66.2415 16.9414 66.2368 17.0972 66.232 17.26H67.267L66.2985 17.1821ZM66.2534 15.9267C66.2534 15.9267 66.251 15.9432 66.2534 15.9668C66.2534 15.9904 66.2534 16.0235 66.2534 16.0636V15.9267ZM67.3097 17.1397V13.8311H66.3887V17.1397H67.3097ZM66.4053 13.6542C66.4053 13.6542 66.4148 13.6589 66.4362 13.6589H66.5169C66.4836 13.6565 66.4575 13.6542 66.4362 13.6542C66.4148 13.6542 66.4029 13.6542 66.4077 13.6542H66.4053ZM67.369 13.7179L67.4023 16.5591L67.4403 13.6636H66.7732C66.7234 13.6636 66.6759 13.6636 66.6332 13.6636C66.5881 13.6636 66.5501 13.6636 66.5192 13.6636C66.581 13.6683 66.6593 13.6754 66.7566 13.6825C66.8539 13.6896 66.9465 13.6966 67.0391 13.7014C67.1459 13.7108 67.2575 13.7179 67.3738 13.7226L67.369 13.7179ZM67.5138 12.9061H67.4782C67.4569 12.9061 67.4284 12.9084 67.3904 12.9132C67.4284 12.9108 67.4569 12.9084 67.4806 12.9084C67.5043 12.9084 67.5138 12.9084 67.5138 12.9037V12.9061ZM67.7488 13.1963C67.775 13.2294 67.8058 13.2671 67.839 13.3096C67.8747 13.3521 67.9079 13.3946 67.9435 13.4394L68.226 13.7934C68.2307 14.4447 68.2355 15.0276 68.2402 15.5373C68.2426 15.7568 68.245 15.9692 68.245 16.1768C68.245 16.3845 68.2473 16.5709 68.2497 16.7338C68.2497 16.8966 68.2521 17.0783 68.2544 17.2742C68.226 17.3072 68.1975 17.3355 68.1737 17.3639C68.15 17.3922 68.1239 17.4252 68.093 17.4606C68.0645 17.496 68.0337 17.5338 68.0028 17.5692C67.9316 17.6588 67.8485 17.758 67.7583 17.8689L68.3257 17.3332L68.2948 13.7344C68.1761 13.6164 68.0717 13.5102 67.9791 13.4134C67.9387 13.3733 67.9008 13.3356 67.8628 13.2978C67.8248 13.2601 67.7916 13.2247 67.7607 13.194C67.7322 13.1633 67.6966 13.1279 67.661 13.0878C67.6895 13.1279 67.718 13.1633 67.7441 13.1963H67.7488Z" fill="var(--fill-0, white)"/>
<path id="Vector_68" d="M71.8364 18.152H68.8859V16.4931H70.011V17.142H70.7089V16.2948L68.9238 14.9568V12.8211H71.8032V14.4069H70.7825V13.8382H70.049V14.5344L71.8364 15.8701V18.152ZM68.9808 16.6087V18.0553L71.5302 18.0695C71.0839 18.0435 70.6852 18.0175 70.3315 17.9916C70.1796 17.9821 70.0324 17.9727 69.89 17.9633C69.7475 17.9538 69.617 17.9444 69.503 17.9373C69.3891 17.9302 69.2633 17.9208 69.1256 17.9113C69.1232 17.8429 69.1209 17.7792 69.1185 17.7226C69.1161 17.6659 69.1137 17.6022 69.1137 17.5314C69.1137 17.4606 69.1137 17.3875 69.1137 17.3096C69.1114 17.1349 69.109 16.9344 69.1066 16.7078C69.1873 16.696 69.268 16.6842 69.3487 16.6701C69.4152 16.6583 69.4864 16.6465 69.5624 16.6347C69.6383 16.6229 69.7072 16.6134 69.7689 16.6063C69.7001 16.6087 69.6217 16.6111 69.5315 16.6111H69.2752C69.1778 16.6111 69.0829 16.6111 68.9856 16.6063L68.9808 16.6087ZM69.014 12.9061L69.0354 14.8978L70.8347 16.2406L70.8133 17.1066L70.9391 16.1745L69.1398 14.8058V13.0618C69.5291 13.0382 69.8899 13.0146 70.2223 12.9958C70.3623 12.9887 70.5048 12.9792 70.6495 12.9722C70.792 12.9627 70.9273 12.9556 71.0531 12.9486C71.1789 12.9415 71.2928 12.9344 71.3902 12.9297C71.4899 12.925 71.5634 12.9202 71.6157 12.9179H71.0673C70.9368 12.9179 70.7967 12.9179 70.6448 12.9179C70.4929 12.9179 70.341 12.9179 70.1914 12.9179C69.8354 12.9155 69.4413 12.9132 69.0117 12.9108L69.014 12.9061ZM69.9256 16.5945C69.9256 16.5945 69.9113 16.5922 69.8805 16.5945C69.852 16.5969 69.8116 16.6016 69.7618 16.6087C69.8116 16.6063 69.852 16.604 69.8805 16.604C69.9089 16.604 69.9256 16.5993 69.9256 16.5945ZM70.8727 13.8571C70.8727 13.8571 70.8679 13.8831 70.8679 13.9279C70.8679 13.9727 70.8679 14.0247 70.8679 14.0813V14.3031L71.7581 14.3244L70.9486 14.2016C70.9368 14.1379 70.9249 14.0789 70.9154 14.0294C70.9059 13.9845 70.8964 13.9444 70.8893 13.909C70.8822 13.8736 70.8774 13.8547 70.875 13.8547L70.8727 13.8571ZM71.7628 15.9574C71.7628 15.9574 71.7462 15.9479 71.7154 15.9243C71.6845 15.9007 71.6465 15.8701 71.6014 15.8347C71.5563 15.7993 71.5065 15.7591 71.4519 15.7143C71.3973 15.6695 71.345 15.6294 71.2976 15.5916C71.2501 15.5538 71.2074 15.5208 71.1741 15.4948C71.1385 15.4689 71.1195 15.4547 71.1148 15.4476L71.7059 15.9928L71.7652 17.9916V15.955L71.7628 15.9574ZM71.6892 12.9132H71.6703C71.6703 12.9132 71.6584 12.9132 71.6489 12.9132C71.6394 12.9132 71.6299 12.9132 71.618 12.9132H71.6631C71.6631 12.9132 71.6821 12.9132 71.6892 12.9084V12.9132Z" fill="var(--fill-0, white)"/>
</g>
<path id="Vector_69" d="M135.609 48.7146C138.543 45.7978 140.359 41.7672 140.359 37.3141C140.359 28.4104 133.098 21.1915 124.144 21.1915C119.667 21.1915 115.613 22.9968 112.677 25.9136L135.609 48.7122V48.7146Z" fill="var(--fill-0, #EEEE22)"/>
<path id="Vector_70" d="M135.609 25.916C132.675 22.9992 128.621 21.1939 124.142 21.1939C115.186 21.1939 107.924 28.4127 107.924 37.3141C107.924 41.7648 109.74 45.7955 112.674 48.7146L135.607 25.916H135.609Z" fill="var(--fill-0, #38C5F3)"/>
<path id="Vector_71" d="M107.927 37.3141C107.927 46.2179 115.188 53.4343 124.142 53.4343C128.619 53.4343 132.673 51.629 135.609 48.7122L112.677 25.9136C109.743 28.8304 107.927 32.8611 107.927 37.3141Z" fill="var(--fill-0, #78C043)"/>
</g>
</svg>
