<svg width="135" height="23" viewBox="0 0 135 23" fill="none" xmlns="http://www.w3.org/2000/svg">
<g clip-path="url(#clip0_644_1184)">
<path d="M117.52 4.15074C118.697 4.15074 119.651 3.22157 119.651 2.07537C119.651 0.929175 118.697 0 117.52 0C116.344 0 115.39 0.929175 115.39 2.07537C115.39 3.22157 116.344 4.15074 117.52 4.15074Z" fill="black"/>
<path d="M61.2459 22.9999C61.1958 22.9999 61.1791 22.9755 61.1707 22.9266L61.1456 22.1616H60.1848L59.909 22.9266C59.8923 22.9755 59.8589 22.9999 59.8088 22.9999H59.2322C59.1737 22.9999 59.1487 22.9673 59.1737 22.9103L60.7362 18.8735C60.7529 18.8247 60.7947 18.8003 60.8365 18.8003H61.5885C61.6386 18.8003 61.6637 18.8247 61.672 18.8735L61.8976 22.9103C61.8976 22.9673 61.8726 22.9999 61.8057 22.9999H61.2376H61.2459ZM61.0704 19.72L60.4187 21.5512H61.1122L61.0704 19.72Z" fill="black"/>
<path d="M64.1369 18.8817C64.1453 18.8328 64.1787 18.8003 64.2372 18.8003H65.5323C66.042 18.8003 66.2676 19.0689 66.184 19.5653L65.7412 22.2511C65.6576 22.7476 65.3485 23.008 64.8388 23.008H63.5437C63.4852 23.008 63.4601 22.9836 63.4685 22.9266L64.1369 18.8898V18.8817ZM64.797 22.3081C64.9391 22.3081 65.0226 22.243 65.0477 22.0965L65.4404 19.7037C65.4655 19.5653 65.3986 19.4921 65.2649 19.4921H64.7719L64.304 22.3081H64.797Z" fill="black"/>
<path d="M70.32 18.8003C70.4036 18.8003 70.4286 18.841 70.3952 18.9142L68.8244 22.9103C68.7993 22.9755 68.7575 23.008 68.6907 23.008H68.1559C68.0891 23.008 68.0557 22.9755 68.0557 22.9103L67.8134 18.9142C67.8134 18.841 67.8468 18.8003 67.9303 18.8003H68.44C68.5069 18.8003 68.5403 18.8328 68.5403 18.898L68.6405 21.714L69.6766 18.898C69.7017 18.8328 69.7435 18.8003 69.8103 18.8003H70.32Z" fill="black"/>
<path d="M73.9797 19.4107C73.9713 19.4595 73.9463 19.5002 73.8794 19.5002H72.5342L72.3587 20.5501H73.3865C73.4366 20.5501 73.47 20.5827 73.4617 20.6396L73.3781 21.1605C73.3697 21.2175 73.328 21.25 73.2778 21.25H72.2501L72.0746 22.3081H73.4199C73.4867 22.3081 73.5034 22.3325 73.4951 22.3895L73.4115 22.9185C73.4032 22.9673 73.3781 22.9999 73.3113 22.9999H71.331C71.2809 22.9999 71.2558 22.9673 71.2642 22.9185L71.9326 18.8817C71.9409 18.8328 71.9827 18.8003 72.0245 18.8003H74.0048C74.0716 18.8003 74.0883 18.8328 74.08 18.8817L73.9964 19.4107H73.9797Z" fill="black"/>
<path d="M77.9152 18.8003C77.9653 18.8003 77.9987 18.8328 77.9904 18.8817L77.3219 22.9185C77.3136 22.9673 77.2718 22.9999 77.2217 22.9999H76.6869C76.6368 22.9999 76.6117 22.9755 76.6034 22.9348L76.1522 20.6885H76.1271L75.7595 22.9185C75.7511 22.9673 75.7177 22.9999 75.6592 22.9999H75.0994C75.0492 22.9999 75.0158 22.9673 75.0242 22.9185L75.6926 18.8817C75.701 18.8328 75.7427 18.8003 75.7929 18.8003H76.3276C76.3778 18.8003 76.4028 18.8247 76.4112 18.8654L76.8624 21.0954H76.8958L77.2634 18.8817C77.2718 18.8328 77.3052 18.8003 77.3637 18.8003H77.9235H77.9152Z" fill="black"/>
<path d="M81.5832 18.8003C81.6417 18.8003 81.6668 18.8328 81.6584 18.8817L81.5748 19.4107C81.5665 19.4595 81.5331 19.4921 81.4746 19.4921H80.8479L80.2797 22.9185C80.2714 22.9755 80.238 22.9999 80.1795 22.9999H79.6197C79.5695 22.9999 79.5361 22.9755 79.5444 22.9185L80.1126 19.4921H79.486C79.4358 19.4921 79.4024 19.4595 79.4108 19.4107L79.4943 18.8817C79.5027 18.8328 79.5445 18.8003 79.5946 18.8003H81.5748H81.5832Z" fill="black"/>
<path d="M85.2262 18.8003C85.2847 18.8003 85.3265 18.8491 85.3181 18.9061L84.7666 22.2511C84.6831 22.7476 84.3739 23.008 83.8643 23.008H83.2627C82.753 23.008 82.5274 22.7476 82.6109 22.2511L83.1624 18.9061C83.1707 18.8491 83.2292 18.8003 83.2877 18.8003H83.8058C83.8643 18.8003 83.906 18.8491 83.8977 18.9061L83.3713 22.0965C83.3462 22.2348 83.4131 22.3081 83.5551 22.3081H83.8392C83.9812 22.3081 84.0648 22.243 84.0899 22.0965L84.6162 18.9061C84.6246 18.8491 84.6831 18.8003 84.7416 18.8003H85.2346H85.2262Z" fill="black"/>
<path d="M88.8275 20.835C88.769 21.1849 88.5935 21.421 88.3178 21.5268L88.4598 22.9022C88.4598 22.9673 88.4264 22.9999 88.3679 22.9999H87.8081C87.758 22.9999 87.7329 22.9755 87.7329 22.9266L87.5909 21.5919H87.2149L86.9976 22.9185C86.9893 22.9673 86.9475 22.9999 86.8973 22.9999H86.3375C86.2874 22.9999 86.254 22.9673 86.2623 22.9185L86.9308 18.8817C86.9391 18.8328 86.9809 18.8003 87.031 18.8003H88.3846C88.8943 18.8003 89.1199 19.0607 89.0364 19.5572L88.8275 20.8431V20.835ZM87.8749 20.9001C88.017 20.9001 88.1005 20.8268 88.1256 20.6885L88.2927 19.7037C88.3178 19.5653 88.2509 19.4921 88.1089 19.4921H87.5741L87.3402 20.9001H87.8749Z" fill="black"/>
<path d="M92.8381 19.4107C92.8297 19.4595 92.8047 19.5002 92.7378 19.5002H91.3926L91.2171 20.5501H92.2449C92.295 20.5501 92.3284 20.5827 92.3201 20.6396L92.2365 21.1605C92.2281 21.2175 92.1864 21.25 92.1362 21.25H91.1085L90.933 22.3081H92.2783C92.3451 22.3081 92.3618 22.3325 92.3535 22.3895L92.2699 22.9185C92.2616 22.9673 92.2365 22.9999 92.1697 22.9999H90.1894C90.1393 22.9999 90.1142 22.9673 90.1226 22.9185L90.791 18.8817C90.7994 18.8328 90.8411 18.8003 90.8829 18.8003H92.8632C92.93 18.8003 92.9467 18.8328 92.9384 18.8817L92.8548 19.4107H92.8381Z" fill="black"/>
<path d="M96.9657 18.8817C96.974 18.8328 97.0158 18.8003 97.0659 18.8003H98.3611C98.8707 18.8003 99.0963 19.0607 99.0128 19.5572L98.8039 20.8431C98.7203 21.3314 98.4112 21.6 97.9015 21.6H97.2581L97.0409 22.9266C97.0325 22.9755 96.9991 23.008 96.9406 23.008H96.3808C96.3307 23.008 96.2972 22.9755 96.3056 22.9266L96.974 18.8898L96.9657 18.8817ZM97.843 20.9001C97.9851 20.9001 98.0686 20.8187 98.0937 20.6885L98.2608 19.7037C98.2859 19.5653 98.2274 19.4921 98.077 19.4921H97.6007L97.3667 20.9001H97.843Z" fill="black"/>
<path d="M102.088 22.9999C102.038 22.9999 102.021 22.9755 102.012 22.9266L101.987 22.1616H101.026L100.751 22.9266C100.734 22.9755 100.701 22.9999 100.65 22.9999H100.074C100.015 22.9999 99.9904 22.9673 100.015 22.9103L101.578 18.8735C101.595 18.8247 101.636 18.8003 101.678 18.8003H102.43C102.48 18.8003 102.505 18.8247 102.514 18.8735L102.739 22.9103C102.739 22.9673 102.714 22.9999 102.647 22.9999H102.079H102.088ZM101.912 19.72L101.26 21.5512H101.954L101.912 19.72Z" fill="black"/>
<path d="M106.875 20.835C106.817 21.1849 106.641 21.421 106.366 21.5268L106.508 22.9022C106.508 22.9673 106.474 22.9999 106.416 22.9999H105.856C105.806 22.9999 105.781 22.9755 105.781 22.9266L105.639 21.5919H105.263L105.046 22.9185C105.037 22.9673 104.995 22.9999 104.945 22.9999H104.385C104.335 22.9999 104.302 22.9673 104.31 22.9185L104.979 18.8817C104.987 18.8328 105.029 18.8003 105.079 18.8003H106.433C106.942 18.8003 107.168 19.0607 107.084 19.5572L106.875 20.8431V20.835ZM105.915 20.9001C106.057 20.9001 106.14 20.8268 106.165 20.6885L106.332 19.7037C106.357 19.5653 106.29 19.4921 106.148 19.4921H105.614L105.38 20.9001H105.915Z" fill="black"/>
<path d="M109.867 23C109.8 23 109.766 22.9755 109.758 22.9186L109.34 21.3559L109.081 21.7303L108.889 22.8941C108.881 22.9593 108.831 23 108.764 23H108.246C108.179 23 108.145 22.9593 108.154 22.8941L108.814 18.898C108.822 18.8329 108.872 18.7922 108.939 18.7922H109.457C109.524 18.7922 109.557 18.8329 109.549 18.898L109.282 20.5258L110.385 18.8736C110.418 18.8248 110.46 18.7922 110.518 18.7922H111.087C111.17 18.7922 111.187 18.8411 111.145 18.9225L109.925 20.7537L110.552 22.8779C110.577 22.943 110.535 23 110.451 23H109.883H109.867Z" fill="black"/>
<path d="M120.319 6.94218C119.985 5.68882 119.434 5.01331 118.657 4.89936C118.347 4.85867 118.038 4.85053 117.738 4.89936C117.286 4.96447 116.835 5.11911 116.401 5.37141C115.732 5.76207 115.456 6.35619 115.573 7.15379C115.582 7.23517 115.599 7.30842 115.624 7.38981C115.674 7.60142 115.707 7.8293 115.749 8.06532C115.866 8.86292 115.899 9.80701 115.866 10.8976C115.824 12.0207 115.832 12.7939 115.891 13.2415C115.908 13.3555 115.933 13.4532 115.958 13.5183C116.367 14.5519 116.977 15.0076 117.779 14.9018H117.838C118.665 14.7553 119.2 14.4623 119.425 14.0147C119.651 13.5671 119.943 12.5986 120.303 11.0848C120.587 9.89653 120.654 8.78967 120.503 7.75605C120.461 7.47934 120.411 7.21076 120.336 6.94218H120.319Z" fill="black"/>
<path d="M132.803 5.94118C132.034 3.8414 130.346 2.86475 127.756 3.00311H127.656C126.319 3.07636 125.124 3.66234 124.079 4.75293C123.52 3.98789 122.876 3.62165 122.141 3.66234C121.264 3.71118 120.762 4.25647 120.629 5.30636V5.48542C121.355 6.62484 121.782 7.63404 121.932 8.50488C122.032 9.099 122.091 9.69313 122.124 10.2954C122.141 10.5884 122.149 10.8814 122.149 11.1744C122.149 12.0778 122.158 12.6882 122.174 13.0137C122.4 14.2915 122.901 14.91 123.687 14.8694L123.971 14.8531C124.648 14.8205 125.149 14.2101 125.475 13.03C126.419 9.79893 127.054 8.15491 127.388 8.08167C127.422 8.08167 127.455 8.07353 127.497 8.06539C127.806 8.04911 128.182 8.21188 128.633 8.56185C129.134 8.95251 129.636 9.1397 130.145 9.10714L130.521 9.09087C131.783 9.02576 132.544 8.09794 132.811 6.31556L132.794 5.94932L132.803 5.94118Z" fill="black"/>
<path d="M114.813 11.5324C113.919 9.76626 113.125 7.67461 112.432 5.24113C112.189 2.64489 111.279 1.35083 109.716 1.35083C109.198 1.43222 108.622 1.18806 107.836 2.04262C106.834 3.14949 105.004 5.63993 102.338 9.51396C100.851 11.2068 100.116 12.5823 100.116 13.6403C100.116 15.4878 101.135 16.6353 103.299 16.7167H103.65C104.352 16.6516 104.544 16.5214 104.87 16.383C105.647 15.9842 106.282 15.4064 106.976 14.4053C107.343 14.3077 107.987 14.2019 108.714 14.0798C110.251 13.9658 111.421 13.7624 112.24 13.4694C112.749 14.2914 113.292 14.7065 113.869 14.6251C114.746 14.503 115.164 14.0065 115.164 13.3636V12.8997C115.164 12.6311 115.039 12.1753 114.805 11.5242L114.813 11.5324ZM108.722 11.2801C109.098 10.4987 109.516 9.61162 109.984 8.57801C110.142 8.57801 110.46 9.14772 110.936 10.2953C110.995 10.4906 111.053 10.6778 111.12 10.865C110.426 11.0196 109.608 11.1661 108.73 11.2882L108.722 11.2801Z" fill="black"/>
<path d="M45.9887 9.25363C45.6796 11.4674 44.585 12.3219 43.1061 12.1266C41.9113 11.972 41.2178 10.9465 41.4016 9.6036L42.2705 3.35307L38.544 2.86475L37.5664 9.89659C37.1653 12.7696 38.7278 14.91 41.4684 15.2681C42.9473 15.4635 44.2592 15.0972 45.2785 14.3078L45.1281 15.4065L48.8798 15.903L50.4673 4.44366L46.7157 3.94719L45.9804 9.26177L45.9887 9.25363Z" fill="black"/>
<path d="M59.6834 3.25534C59.3994 3.20651 59.157 3.19837 58.8312 3.21465C56.8927 3.33673 55.6644 4.4029 54.9041 5.83531L54.762 3.62972L50.9854 3.86575L51.7457 15.3983L55.5224 15.1623L55.2801 11.5568C55.0796 8.56992 56.4331 7.14565 59.0735 6.98287L59.7586 6.94218L59.6834 3.25534Z" fill="black"/>
<path d="M68.1893 3.32865C66.6603 3.20657 65.3986 3.57281 64.4043 4.3053L64.7385 0.309189L60.9702 0.00805664L59.7586 14.6089L63.5269 14.91L63.6021 13.9904C64.4544 14.8693 65.6409 15.4228 67.1699 15.5449C70.3033 15.789 73.1441 13.5427 73.4533 9.89659C73.7541 6.26673 71.3226 3.58095 68.1893 3.33679V3.32865ZM66.6603 12.3545C65.1312 12.2324 63.8612 10.9302 64.0116 9.13969C64.162 7.37359 65.6242 6.26673 67.1616 6.38067C68.8076 6.51089 69.9106 7.82122 69.7685 9.58732C69.6181 11.3778 68.3147 12.4766 66.6686 12.3463L66.6603 12.3545Z" fill="black"/>
<path d="M79.0264 3.23912C76.2023 3.51584 74.2805 5.11102 73.988 7.38173L77.6143 7.74797C77.6979 6.72249 78.3162 6.22603 79.4442 6.11209C80.4301 6.01442 81.1821 6.59227 81.2824 7.55264L81.3075 7.78052L78.2995 8.07352C75.1495 8.38279 73.5285 10.0187 73.7624 12.265C73.9964 14.5357 75.9098 15.8541 78.5418 15.5937C80.121 15.4391 81.1989 14.8286 81.9509 14.0636L82.0344 14.91L85.6607 14.5601L84.9171 7.27592C84.6163 4.34599 82.3603 2.92171 79.0431 3.23912H79.0264ZM79.3105 12.7451C78.3246 12.8428 77.6143 12.444 77.5391 11.7115C77.4639 11.0035 78.0071 10.4663 78.9429 10.3686L81.5331 10.1163L81.5581 10.3686C81.6918 11.6545 80.5973 12.6149 79.3022 12.737L79.3105 12.7451Z" fill="black"/>
<path d="M94.5176 3.36118C93.0303 3.25538 91.7435 3.69487 90.7826 4.54943L90.8662 3.45071L87.0979 3.18213L86.2456 14.7147L90.0139 14.9833L90.415 9.62799C90.5821 7.39798 91.6182 6.47831 93.1055 6.58411C94.3087 6.6655 95.069 7.64214 94.9688 9.00131L94.5008 15.2925L98.2525 15.553L98.7789 8.48043C98.9961 5.58305 97.2999 3.54837 94.5343 3.35304L94.5176 3.36118Z" fill="black"/>
<path d="M30.5812 13.1275C31.4669 7.11304 27.3559 1.41594 21.1645 0.243969C16.0008 -0.732677 10.9624 1.73335 8.57275 6.00618L7.5116 5.6318L1.70452 3.5727C1.23661 3.40993 0.735283 3.52387 0.401063 3.84128C0.267375 3.96336 0.158753 4.118 0.091909 4.30519V4.3296C-0.0919122 4.80165 0.0501315 5.31439 0.401063 5.63993C0.526396 5.75388 0.668439 5.83526 0.835549 5.90037L5.69846 7.62578C5.56477 7.82925 5.45615 8.04899 5.37259 8.27688C5.2389 8.63498 5.17206 8.99308 5.1637 9.35119C5.12193 10.6859 5.89063 11.9637 7.17738 12.5497C7.63694 17.5143 11.3969 21.7953 16.6692 22.7882C19.978 23.4149 23.2367 22.6254 25.7768 20.8593C26.1026 21.0791 26.4619 21.2663 26.8546 21.4046C29.2694 22.2592 31.9348 21.0465 32.8121 18.6944C33.6142 16.5377 32.6283 14.1612 30.5895 13.1275H30.5812ZM13.8701 10.5639C13.8701 10.5639 13.8701 10.5313 13.8785 10.515L15.4076 11.0603C15.2488 11.3777 14.8895 11.5731 14.5135 11.4998C14.0707 11.4184 13.7782 10.9952 13.8701 10.5639ZM21.5154 13.4287C21.5322 13.3636 21.5489 13.2985 21.5739 13.2415L23.3704 13.8763C23.2283 14.3321 22.7604 14.6169 22.2758 14.5193C21.7577 14.4216 21.4152 13.9333 21.5154 13.4287ZM20.6799 2.6693C23.88 3.27157 26.37 5.42019 27.498 8.16294L24.9412 7.25954L23.9552 9.89648L28.1581 11.3859C28.1581 11.8009 28.1414 12.2079 28.0912 12.6311C27.8907 12.6474 27.6902 12.6718 27.4896 12.7125L11.0293 6.87702C11.0293 6.87702 11.0126 6.86074 10.9959 6.8526C12.951 3.71106 16.7612 1.93682 20.6799 2.67744V2.6693ZM28.4338 19.549C28.1079 19.549 27.7904 19.4839 27.5063 19.3699C27.2139 19.256 26.9549 19.0851 26.7293 18.8816C26.2948 18.4828 26.0191 17.9375 25.9689 17.3271C25.4425 17.9375 24.8326 18.4747 24.1558 18.9305C22.1839 20.2571 19.6856 20.8349 17.1455 20.3547C13.1516 19.5978 10.2606 16.44 9.74252 12.7206C9.65061 12.0939 9.6339 11.451 9.69239 10.7999C9.4083 11.0033 9.05737 11.1173 8.68137 11.1173C8.65631 11.1173 8.6396 11.1173 8.61453 11.1173C8.00458 11.0929 7.47818 10.7673 7.19409 10.279C7.04369 10.0348 6.96014 9.74185 6.96014 9.44071C6.96014 9.40816 6.96014 9.3756 6.96014 9.34305C6.98521 8.9117 7.16903 8.52918 7.46982 8.24432H7.50325L7.59516 8.28502L8.92368 8.75706L9.98483 9.13144L10.3859 9.27794L12.1656 9.91276L12.5583 10.0511C12.4664 10.2058 12.4079 10.3767 12.3745 10.5639C12.1823 11.5324 12.8257 12.4683 13.82 12.6555C14.806 12.8427 15.7668 12.216 15.959 11.2556L20.964 13.0299C20.8554 13.2252 20.7802 13.445 20.7384 13.6728C20.471 15.0239 21.3734 16.3342 22.7604 16.5946C23.1197 16.6597 23.4706 16.6516 23.8048 16.5784C24.7407 16.3749 25.5094 15.675 25.735 14.7146L27.0134 15.1704C27.1554 15.0727 27.3058 14.9913 27.4646 14.9262C27.757 14.8041 28.0829 14.739 28.4254 14.739C28.6761 14.739 28.9184 14.7716 29.144 14.8448C29.4532 14.9425 29.7373 15.089 29.9879 15.2843C30.0046 15.2924 30.0213 15.3087 30.0297 15.3169C30.5645 15.7564 30.8987 16.4156 30.8987 17.1481C30.8987 18.4747 29.7957 19.549 28.4338 19.549Z" fill="black"/>
<path d="M132.61 2.75897H132.159V2.54736H133.312V2.75897H132.861V3.88211H132.61V2.75897Z" fill="black"/>
<path d="M134.758 3.87389V2.99491L134.306 3.72739H134.189L133.738 3.01119V3.88203H133.496V2.55542H133.705L134.248 3.4344L134.783 2.55542H134.992V3.88203H134.758V3.87389Z" fill="black"/>
</g>
<defs>
<clipPath id="clip0_644_1184">
<rect width="135" height="23" fill="white"/>
</clipPath>
</defs>
</svg>
