<svg width="88" height="48" viewBox="0 0 88 48" fill="none" xmlns="http://www.w3.org/2000/svg">
<g clip-path="url(#clip0_644_1215)">
<path d="M64.3102 43.0088C64.1438 42.7823 63.9107 42.6649 63.611 42.6565C63.4196 42.6565 63.2531 42.6984 63.1033 42.7907C62.9534 42.883 62.8369 43.034 62.7537 43.2269C62.7537 43.2269 62.7537 43.2353 62.7537 43.2437C63.328 43.3192 63.9107 43.3863 64.5017 43.4366C64.4601 43.2689 64.4018 43.1263 64.3102 43.0088Z" fill="black"/>
<path d="M62.6288 43.898C62.6288 44.158 62.6538 44.3761 62.7287 44.5775C62.8036 44.7704 62.9118 44.9214 63.0533 45.0304C63.1948 45.1395 63.3613 45.1898 63.5611 45.1982C63.8524 45.1982 64.0938 45.0976 64.2769 44.8794C64.4601 44.6613 64.5516 44.351 64.56 43.9567C64.56 43.7638 64.5516 43.596 64.51 43.4366C63.919 43.3863 63.3363 43.3192 62.762 43.2437C62.6871 43.4366 62.6371 43.6547 62.6371 43.9064L62.6288 43.898Z" fill="black"/>
<path d="M31.5308 38.9317C31.4642 38.9401 31.3893 38.9569 31.3227 38.9653L31.7722 40.3662L32.1634 38.8311C31.9553 38.8646 31.7472 38.8898 31.5391 38.9233L31.5308 38.9317Z" fill="black"/>
<path d="M58.9663 42.4299C58.8248 42.4131 58.6833 42.4383 58.5584 42.497C58.8498 42.5557 59.1494 42.6228 59.4408 42.6816C59.3575 42.539 59.1994 42.4551 58.9663 42.4299Z" fill="black"/>
<path d="M69.3628 43.4786C69.3129 43.2605 69.2296 43.0759 69.1131 42.9417C68.93 42.7236 68.6886 42.623 68.3973 42.6397C68.2058 42.6397 68.0393 42.7068 67.8978 42.8075C67.7563 42.9166 67.6481 43.0676 67.5815 43.2605C67.5482 43.3528 67.5232 43.445 67.5149 43.5541C68.1309 43.5541 68.7552 43.5289 69.3711 43.4786H69.3628Z" fill="black"/>
<path d="M67.49 43.9482C67.4983 44.2082 67.5482 44.4263 67.6315 44.6193C67.7147 44.8038 67.8312 44.9464 67.9811 45.0471C68.1309 45.1394 68.2974 45.1897 68.4971 45.1813C68.7885 45.1646 69.0216 45.0471 69.188 44.8122C69.3545 44.5773 69.4294 44.267 69.4128 43.8727C69.4128 43.7301 69.3878 43.6043 69.3628 43.4868C68.7469 43.5371 68.1226 43.5623 67.5066 43.5623C67.49 43.6798 67.4816 43.814 67.49 43.9566V43.9482Z" fill="black"/>
<path d="M87.9917 33.4373C84.9867 35.3331 82.0318 36.8263 79.0185 37.8665C76.0303 38.9234 73.017 39.5107 70.2285 39.519C67.3817 39.519 64.4767 39.0325 61.4551 38.3195C58.4502 37.6064 55.2372 36.6501 51.8744 35.8616C48.5198 35.0647 44.9655 34.3684 41.2448 34.1503C39.3886 34.0245 37.4741 34.0664 35.5679 34.2342C34.6106 34.3097 33.6534 34.4775 32.7045 34.6368C31.7556 34.8466 30.7983 35.0479 29.9077 35.3331C26.2951 36.4068 22.9905 38.0846 20.0189 40.0559C18.5289 41.0626 17.1139 42.1279 15.7737 43.2856C14.4253 44.4264 13.1517 45.6428 11.9531 46.9682C12.0363 46.9514 12.1279 46.9346 12.2194 46.9095C12.3693 46.8843 12.5191 46.8424 12.6689 46.8088C14.1589 46.4816 15.6072 46.0958 17.039 45.7351C18.7037 45.3156 20.3352 44.8962 21.95 44.5271C25.1714 43.7805 28.3178 43.2352 31.3643 43.0255C32.1385 42.9668 32.8626 42.9668 33.5868 42.9416C34.3276 42.9668 35.0518 42.9668 35.7926 43.0339C37.2743 43.1346 38.7476 43.3023 40.2542 43.554C43.2675 44.0573 46.3556 44.8039 49.5853 45.5841C52.8066 46.3474 56.1528 47.1779 59.8153 47.6644C63.4529 48.1342 67.3817 48.2265 71.2607 47.3205C73.2251 46.8675 75.073 46.1629 76.7711 45.2737C78.4775 44.3845 80.0424 43.3191 81.4741 42.1195C81.6738 41.9518 81.8653 41.784 82.0567 41.6078C82.5811 41.1381 83.0889 40.6431 83.5717 40.1314C83.605 40.1063 83.6299 40.0727 83.6466 40.0475C83.9379 39.7372 84.2209 39.4184 84.4956 39.0996C84.6455 38.9234 84.787 38.7557 84.9201 38.5711C85.0367 38.4285 85.1532 38.2775 85.2614 38.1265C85.4196 37.9168 85.5777 37.7071 85.7192 37.489C85.7692 37.4219 85.8191 37.3632 85.8524 37.296C85.8857 37.2625 85.9107 37.2205 85.9357 37.187C85.9523 37.1618 85.969 37.1367 85.9856 37.1115C86.0189 37.0696 86.0439 37.0276 86.0688 36.9857C86.0938 36.9605 86.1105 36.9353 86.1271 36.9018C86.7764 35.9371 87.3424 34.9137 87.7919 33.8567C87.8502 33.7225 87.9084 33.5883 87.9667 33.454L87.9917 33.4373ZM35.6345 38.3195L34.902 40.6935C34.8354 40.8948 34.7855 41.0374 34.7522 41.1297C34.7189 41.2219 34.6606 41.2974 34.5774 41.3729C34.4941 41.4484 34.3859 41.482 34.2444 41.4904C34.0946 41.4904 33.978 41.4568 33.8948 41.3897C33.8116 41.3142 33.745 41.2303 33.7033 41.1213C33.6617 41.0122 33.6118 40.878 33.5618 40.7018L32.9542 38.806L32.4714 40.7354C32.4048 41.0038 32.3382 41.2052 32.255 41.3478C32.1718 41.482 32.0302 41.5575 31.8222 41.5659C31.7139 41.5659 31.6224 41.5491 31.5475 41.5072C31.4725 41.4652 31.406 41.4065 31.356 41.331C31.3061 41.2555 31.2561 41.1632 31.2145 41.0542C31.1729 40.9451 31.1396 40.8612 31.1146 40.8025L30.4987 39.1164C29.9326 39.2254 29.3333 39.3597 28.684 39.5107C28.7257 39.5274 28.759 39.5358 28.7923 39.5526C28.992 39.6365 29.1419 39.7539 29.2584 39.8798C29.3666 40.014 29.4332 40.165 29.4415 40.3495C29.4665 40.618 29.4166 40.8528 29.3 41.0626C29.1835 41.2639 29.0004 41.4233 28.759 41.5491C28.5092 41.6665 28.2013 41.742 27.835 41.7672C27.4854 41.7924 27.1858 41.7672 26.9277 41.6749C26.6697 41.5827 26.4782 41.4652 26.345 41.3142C26.2119 41.1632 26.1453 41.0038 26.1286 40.8445C26.1203 40.7354 26.1536 40.6431 26.2202 40.5592C26.2868 40.4754 26.3867 40.4334 26.5032 40.425C26.6031 40.425 26.6863 40.4334 26.7446 40.4837C26.8029 40.5257 26.8611 40.5928 26.9194 40.6851C27.0359 40.8528 27.1608 40.9703 27.3106 41.0458C27.4604 41.1213 27.6519 41.1464 27.885 41.1297C28.0764 41.1129 28.2346 41.0542 28.3511 40.9619C28.4676 40.8612 28.5259 40.7606 28.5176 40.6515C28.5009 40.4754 28.426 40.3579 28.2928 40.2908C28.1596 40.2237 27.9349 40.165 27.6352 40.1146C27.3939 40.0727 27.1774 40.0308 27.0026 39.9804C26.5531 40.1146 26.0953 40.2572 25.6042 40.425C26.087 40.2656 26.5531 40.1146 26.9943 39.9804C26.9194 39.9636 26.8528 39.9385 26.7945 39.9217C26.5781 39.8462 26.4033 39.7372 26.2618 39.5945C26.1203 39.4519 26.0454 39.2758 26.0287 39.0493C26.0121 38.8563 26.0537 38.6634 26.1619 38.4788C26.2618 38.2943 26.4283 38.1433 26.6447 38.0175C26.8611 37.8916 27.1358 37.8245 27.4521 37.7994C27.7018 37.7826 27.9349 37.791 28.1347 37.8245C28.3428 37.8581 28.5092 37.9168 28.6508 38.0007C28.7923 38.0762 28.9005 38.1685 28.9837 38.2691C29.0586 38.3698 29.1086 38.4705 29.1169 38.5795C29.1252 38.6886 29.0919 38.7892 29.0253 38.8647C28.9587 38.9402 28.8505 38.9906 28.7173 38.9989C28.6175 38.9989 28.5342 38.9822 28.4593 38.9318C28.3844 38.8815 28.3012 38.7976 28.2013 38.6886C28.118 38.5963 28.0265 38.5292 27.9266 38.4788C27.8184 38.4285 27.6852 38.4117 27.5104 38.4285C27.3356 38.4453 27.1941 38.4872 27.0775 38.5795C26.9693 38.6634 26.9194 38.7641 26.9277 38.8731C26.9277 38.9738 26.986 39.0577 27.0775 39.1164C27.1691 39.1751 27.2856 39.2171 27.4355 39.2506C27.5853 39.2842 27.7851 39.3177 28.0431 39.3597C28.2928 39.4016 28.5093 39.4519 28.6924 39.519C29.3333 39.3597 29.9326 39.2338 30.507 39.1248L30.2739 38.4788C30.1907 38.2607 30.1491 38.1097 30.1407 38.0259C30.1407 37.9168 30.174 37.8245 30.2573 37.7406C30.3405 37.6568 30.4404 37.6064 30.5569 37.6064C30.7151 37.6064 30.8316 37.6484 30.8899 37.7323C30.9481 37.8245 31.0147 37.9755 31.0813 38.202L31.331 38.9738C31.3976 38.9654 31.4725 38.9486 31.5391 38.9402C31.7472 38.9067 31.9637 38.8731 32.1718 38.8396L32.3049 38.3195C32.3632 38.1014 32.4048 37.9588 32.4298 37.8749C32.4548 37.791 32.513 37.7239 32.5879 37.6484C32.6712 37.5729 32.7794 37.5393 32.9209 37.5309C33.0624 37.5309 33.1789 37.5561 33.2622 37.6232C33.3454 37.6903 33.4037 37.7658 33.4453 37.8497C33.4786 37.9336 33.5285 38.0762 33.5951 38.2775L34.2278 40.2992L34.8104 38.0846C34.852 37.9252 34.877 37.8078 34.902 37.7406C34.927 37.6651 34.9686 37.6064 35.0268 37.5477C35.0851 37.489 35.1767 37.4638 35.2932 37.4554C35.4097 37.4554 35.5096 37.489 35.6012 37.5729C35.6928 37.6484 35.7344 37.749 35.7344 37.8581C35.7344 37.9588 35.7011 38.1097 35.6345 38.3195ZM37.8237 38.1097L37.7238 40.9451C37.7238 41.1381 37.6655 41.2891 37.5656 41.3897C37.4657 41.4904 37.3492 41.5323 37.2077 41.5239C37.0662 41.5239 36.9497 41.4652 36.8664 41.3562C36.7832 41.2471 36.7416 41.1045 36.7499 40.9116L36.8498 38.1014C36.8498 37.9084 36.908 37.7658 36.9996 37.6651C37.0912 37.5729 37.2077 37.5225 37.3492 37.5309C37.4907 37.5309 37.6072 37.5896 37.6988 37.6903C37.7904 37.791 37.832 37.9336 37.8237 38.1014V38.1097ZM37.7155 36.9605C37.6156 37.0444 37.499 37.0779 37.3742 37.0779C37.241 37.0779 37.1245 37.0276 37.0329 36.9353C36.9413 36.8514 36.8914 36.7256 36.8997 36.5746C36.8997 36.432 36.958 36.323 37.0579 36.2391C37.1578 36.1552 37.2743 36.1132 37.4075 36.1132C37.5323 36.1132 37.6405 36.1636 37.7404 36.2475C37.832 36.3313 37.8819 36.4572 37.8736 36.6082C37.8736 36.7592 37.8153 36.8766 37.7155 36.9605ZM44.7491 39.821L44.4744 41.7169C44.4411 41.9182 44.3746 42.0692 44.2663 42.1531C44.1581 42.2454 44.0333 42.2705 43.8834 42.2538C43.7336 42.2286 43.6254 42.1615 43.5505 42.044C43.4756 41.9266 43.4506 41.7672 43.4756 41.5659L43.717 39.9301C43.7503 39.7204 43.7669 39.5526 43.7669 39.4268C43.7669 39.3009 43.7336 39.1835 43.667 39.0912C43.6004 38.9906 43.4922 38.9318 43.3341 38.9067C43.2092 38.8899 43.0844 38.9067 42.9512 38.9654C42.8263 39.0241 42.7181 39.1164 42.6432 39.2338C42.5516 39.3848 42.4684 39.67 42.4101 40.0895L42.2187 41.3813C42.1854 41.5827 42.1188 41.7337 42.0106 41.8175C41.9024 41.9098 41.7775 41.935 41.6277 41.9182C41.4778 41.893 41.3696 41.8259 41.2947 41.7085C41.2198 41.591 41.1948 41.4317 41.2281 41.2303L41.4529 39.6784C41.4862 39.4352 41.5111 39.2422 41.5111 39.108C41.5111 38.9738 41.4862 38.8563 41.4279 38.7557C41.3696 38.655 41.2614 38.5963 41.1033 38.5711C40.787 38.5208 40.5622 38.6047 40.429 38.806C40.2959 39.0073 40.2043 39.3177 40.1377 39.7204L39.9463 41.0374C39.913 41.2387 39.8464 41.3813 39.7465 41.4736C39.6383 41.5659 39.5134 41.5994 39.3636 41.5743C39.2138 41.5491 39.1055 41.482 39.0306 41.3646C38.9557 41.2471 38.9307 41.0877 38.9557 40.8864L39.3636 38.1097C39.3886 37.9252 39.4551 37.791 39.5467 37.7155C39.6466 37.6316 39.7631 37.598 39.8963 37.6232C40.0295 37.64 40.1294 37.7071 40.2043 37.8078C40.2792 37.9084 40.3042 38.0426 40.2792 38.1936L40.2626 38.2859C40.4623 38.1097 40.6621 37.9839 40.8619 37.9168C41.07 37.8497 41.2864 37.8329 41.5195 37.8665C41.7609 37.9 41.9606 37.9839 42.1271 38.1097C42.2853 38.2356 42.4101 38.4033 42.4934 38.6131C42.6848 38.4369 42.8846 38.3195 43.0844 38.244C43.2841 38.1769 43.5005 38.1601 43.7253 38.1936C43.9917 38.2356 44.2081 38.3195 44.3829 38.4537C44.5577 38.5879 44.6825 38.7557 44.7408 38.9654C44.7991 39.1499 44.7991 39.4352 44.7408 39.8126L44.7491 39.821ZM51.2501 41.2303C51.2168 41.3394 51.1585 41.4149 51.0669 41.4652C50.9754 41.5155 50.8589 41.5155 50.734 41.4736C50.6341 41.4484 50.5675 41.3897 50.5176 41.3142C50.4676 41.2387 50.4177 41.1297 50.3594 40.9955C50.3178 40.8864 50.2512 40.7857 50.1763 40.7018C50.0931 40.618 49.9765 40.5509 49.81 40.5005C49.6436 40.4502 49.4937 40.4418 49.3606 40.4837C49.2274 40.5257 49.1441 40.5928 49.1108 40.7018C49.0775 40.8025 49.1025 40.8948 49.1608 40.9787C49.2274 41.0626 49.3189 41.1548 49.4438 41.2387C49.5687 41.3226 49.7435 41.4317 49.9765 41.5659C50.2429 41.7253 50.4593 41.8763 50.6091 42.0356C50.7673 42.1866 50.8672 42.346 50.9254 42.5138C50.9837 42.6732 50.9837 42.841 50.9254 43.0171C50.8505 43.2772 50.7173 43.4785 50.5425 43.6295C50.3594 43.7805 50.1347 43.8644 49.86 43.8812C49.5853 43.9063 49.2773 43.8644 48.9194 43.7553C48.5864 43.6547 48.3117 43.5121 48.1037 43.3443C47.8956 43.1681 47.754 42.9836 47.6875 42.799C47.6209 42.6061 47.6042 42.4383 47.6542 42.2789C47.6875 42.1783 47.7457 42.0944 47.8456 42.044C47.9372 41.9937 48.0454 41.9853 48.1536 42.0189C48.2535 42.0524 48.3201 42.0944 48.3617 42.1615C48.4033 42.2286 48.4283 42.3125 48.4533 42.4131C48.5032 42.6061 48.5781 42.7655 48.6863 42.8913C48.7945 43.0171 48.961 43.1094 49.1941 43.1765C49.3772 43.2352 49.5437 43.2352 49.6935 43.1933C49.835 43.143 49.9266 43.0675 49.9599 42.9584C50.0098 42.7906 49.9848 42.6564 49.8766 42.539C49.7767 42.4299 49.5936 42.2957 49.3273 42.1363C49.0276 41.9601 48.7945 41.7924 48.6197 41.6498C48.4449 41.4988 48.3201 41.3394 48.2368 41.1548C48.1619 40.9703 48.1536 40.7773 48.2119 40.5676C48.2701 40.3831 48.3783 40.2153 48.5365 40.0811C48.6946 39.9469 48.9027 39.863 49.1525 39.8294C49.4022 39.7959 49.6769 39.8294 49.9848 39.9133C50.2262 39.9888 50.4343 40.0727 50.6175 40.1818C50.7923 40.2908 50.9338 40.4082 51.042 40.5341C51.1419 40.6599 51.2168 40.7773 51.2501 40.9032C51.2834 41.029 51.2917 41.1381 51.2584 41.2387L51.2501 41.2303ZM72.6841 45.3743C72.6091 45.4834 72.4926 45.5505 72.3511 45.5673C72.2096 45.5841 72.0847 45.5505 71.9848 45.4582C71.885 45.3659 71.8184 45.2317 71.7934 45.0388L71.5437 43.2017C71.219 43.2604 70.9027 43.3107 70.5864 43.3527C70.5032 43.3611 70.4116 43.3694 70.3284 43.3862C70.3617 43.5204 70.3783 43.6714 70.3867 43.8224C70.4033 44.116 70.3617 44.3845 70.2868 44.6361C70.2035 44.8878 70.087 45.1059 69.9205 45.2905C69.754 45.475 69.5543 45.6176 69.3212 45.7267C69.0881 45.8357 68.8218 45.8944 68.5221 45.9028C68.2308 45.9196 67.9561 45.8777 67.723 45.7938C67.4816 45.7099 67.2735 45.5841 67.0904 45.4079C66.9073 45.2401 66.7741 45.0304 66.6742 44.7955C66.5743 44.5523 66.5161 44.2922 66.5077 43.9902C66.5077 43.8392 66.5077 43.6882 66.5244 43.5456C66.1831 43.5372 65.8418 43.5204 65.5005 43.5037C65.5255 43.6547 65.5338 43.8057 65.5338 43.9734C65.5338 44.267 65.4756 44.5355 65.3757 44.7787C65.2758 45.022 65.1426 45.2317 64.9678 45.4079C64.793 45.5841 64.5849 45.7099 64.3435 45.8022C64.1021 45.8944 63.8358 45.928 63.5361 45.928C63.2448 45.928 62.9784 45.8693 62.7453 45.7602C62.5123 45.6596 62.3125 45.5169 62.146 45.3324C61.9796 45.1478 61.8547 44.9381 61.7715 44.6865C61.6882 44.4432 61.6466 44.1664 61.6549 43.8728C61.6549 43.5876 61.7132 43.3359 61.7964 43.101C61.3719 43.0339 60.9557 42.9668 60.5478 42.8913C60.5478 43.0255 60.5478 43.1681 60.5395 43.3359L60.373 45.2066C60.3564 45.3995 60.2981 45.5505 60.1982 45.6428C60.0984 45.7351 59.9818 45.777 59.832 45.7602C59.5157 45.7267 59.3659 45.5169 59.4075 45.1227L59.5573 43.4701C59.5823 43.1597 59.5573 42.9081 59.4824 42.7319C59.4824 42.7151 59.4657 42.6984 59.4574 42.6816C59.1578 42.6229 58.8664 42.5641 58.5668 42.497C58.5418 42.5054 58.5168 42.5222 58.4918 42.5306C58.342 42.6145 58.2255 42.7403 58.1422 42.9081C58.0756 43.0507 58.0257 43.3023 57.9924 43.6798L57.8759 44.9717C57.8592 45.1646 57.801 45.3072 57.7094 45.3995C57.6095 45.4918 57.4847 45.5337 57.3348 45.5169C57.0185 45.4918 56.8687 45.2737 56.9103 44.8794L57.1517 42.1783C57.0102 42.1447 56.8687 42.1111 56.7272 42.0776C56.3942 42.0021 56.0613 41.9182 55.7283 41.8427C55.7783 41.9266 55.8199 42.0021 55.8448 42.086C55.8948 42.2286 55.9114 42.3628 55.8865 42.4719C55.8615 42.5893 55.8032 42.6732 55.7033 42.7403C55.6035 42.8074 55.4952 42.8242 55.3704 42.799C55.2872 42.7822 55.2289 42.7487 55.1873 42.6984C55.1456 42.648 55.0957 42.5725 55.0458 42.4635C54.9625 42.2621 54.871 42.1028 54.7544 41.9853C54.6462 41.8679 54.4881 41.7924 54.2966 41.7588C54.0136 41.7001 53.7639 41.7672 53.5475 41.9601C53.331 42.1447 53.1895 42.4383 53.1146 42.8242C53.0813 43.0087 53.073 43.1765 53.0813 43.3359C53.098 43.4953 53.1396 43.6379 53.1979 43.7637C53.2645 43.8895 53.3477 43.9902 53.4559 44.0657C53.5641 44.1412 53.689 44.1999 53.8305 44.2251C54.0219 44.2586 54.1967 44.2503 54.3466 44.1915C54.5047 44.1328 54.6462 44.0154 54.7877 43.856C54.871 43.7553 54.9459 43.6882 55.0291 43.6379C55.1124 43.5876 55.1956 43.5792 55.2955 43.5959C55.412 43.6211 55.5036 43.6798 55.5618 43.7889C55.6201 43.8895 55.6451 43.9986 55.6201 44.0993C55.5951 44.2167 55.5369 44.3425 55.437 44.46C55.3371 44.5858 55.2039 44.6949 55.0374 44.7871C54.871 44.8794 54.6629 44.9465 54.4298 44.9801C54.1967 45.0136 53.9387 44.9969 53.6557 44.9465C53.0647 44.8291 52.6318 44.569 52.3738 44.1496C52.1074 43.7385 52.0325 43.2352 52.1491 42.6564C52.224 42.2621 52.3655 41.9266 52.5819 41.6498C52.79 41.3729 53.0564 41.1884 53.381 41.0709C53.6973 40.9619 54.0635 40.9451 54.4631 41.0206C54.7128 41.071 54.9292 41.1464 55.1207 41.2639C55.3121 41.3813 55.4703 41.5072 55.5951 41.6498C55.6451 41.7085 55.695 41.7756 55.7366 41.8343C56.0696 41.9182 56.4109 41.9937 56.7355 42.0692C56.877 42.1028 57.0185 42.1363 57.16 42.1699L57.3015 40.6347C57.3182 40.4334 57.3764 40.2908 57.468 40.1985C57.5596 40.1063 57.6844 40.0643 57.8343 40.0811C57.9924 40.0979 58.1006 40.1566 58.1839 40.2656C58.2588 40.3747 58.2921 40.5257 58.2754 40.7186L58.1422 42.1699C58.2754 42.0356 58.4086 41.935 58.5335 41.8595C58.6583 41.784 58.7915 41.7337 58.9413 41.7085C59.0912 41.6833 59.241 41.6749 59.4075 41.6917C59.6572 41.7169 59.8653 41.784 60.0484 41.9098C60.2315 42.0356 60.3647 42.195 60.4563 42.4131C60.5145 42.539 60.5478 42.6732 60.5562 42.8158C60.5562 42.8326 60.5562 42.8577 60.5562 42.8745C60.9724 42.95 61.3886 43.0171 61.8047 43.0842C61.8047 43.0675 61.8131 43.0591 61.8214 43.0423C61.9213 42.799 62.0545 42.5893 62.2293 42.4215C62.4041 42.2538 62.6122 42.1195 62.8536 42.0356C63.095 41.9434 63.3613 41.9098 63.6526 41.9098C63.944 41.9098 64.2187 41.9685 64.4517 42.0776C64.6931 42.1783 64.8929 42.3209 65.0594 42.5054C65.2259 42.69 65.3507 42.8997 65.434 43.1513C65.4673 43.2604 65.5005 43.3778 65.5172 43.4953C65.8585 43.5121 66.1998 43.5288 66.541 43.5372C66.5577 43.403 66.5827 43.2772 66.6243 43.1597C66.7075 42.9081 66.824 42.69 66.9905 42.5138C67.1487 42.3293 67.3484 42.1866 67.5898 42.086C67.8229 41.9769 68.0893 41.9182 68.3806 41.9098C68.6719 41.893 68.9466 41.935 69.188 42.0189C69.4294 42.1028 69.6458 42.2286 69.8206 42.4047C70.0038 42.5725 70.1369 42.7822 70.2368 43.0171C70.2868 43.1346 70.3201 43.252 70.3534 43.3862C70.4366 43.3778 70.5198 43.3694 70.6114 43.3527C70.9277 43.3107 71.244 43.2604 71.5687 43.2017L71.244 40.8193C71.219 40.6263 71.244 40.4754 71.3106 40.3579C71.3855 40.2489 71.4937 40.1817 71.6352 40.1566C71.7851 40.1398 71.9099 40.1734 72.0098 40.2572C72.1097 40.3411 72.1763 40.4837 72.2013 40.6851L72.7673 44.9046C72.7923 45.1059 72.7673 45.2569 72.6924 45.366L72.6841 45.3743ZM75.6723 42.0021C75.947 41.893 76.23 41.7756 76.5047 41.6582C76.2217 41.7756 75.947 41.893 75.6723 42.0021ZM77.8199 41.0542C77.8199 41.0542 77.7866 41.071 77.7699 41.0793C77.7949 41.071 77.8199 41.0542 77.8448 41.0458C77.8365 41.0458 77.8282 41.0542 77.8199 41.0626V41.0542ZM80.8747 39.3597C80.8747 39.3597 80.8082 39.3932 80.7832 39.4184C80.7749 39.4184 80.7665 39.4184 80.7582 39.4268C79.9674 39.9133 79.1684 40.3663 78.3609 40.7773C79.468 40.2153 80.5584 39.5694 81.6239 38.8647C81.3742 39.0325 81.1161 39.2003 80.8664 39.3597H80.8747ZM84.787 36.5159C84.737 36.5495 84.6954 36.5914 84.6455 36.625C84.7287 36.5578 84.8036 36.4907 84.8869 36.4236C84.8536 36.4572 84.8203 36.4823 84.787 36.5159ZM85.1615 36.2055C85.1615 36.2055 85.1116 36.2391 85.0949 36.2559C85.0367 36.3062 84.9867 36.3481 84.9368 36.3901C84.9368 36.3901 84.9285 36.3901 84.9201 36.3985C85.3363 36.0461 85.7442 35.6854 86.1354 35.3163C85.8191 35.6183 85.4945 35.9119 85.1615 36.1971V36.2055Z" fill="black"/>
<path d="M55.1792 6.07335L55.0543 5.20093L54.6298 5.98946C54.0554 7.04644 53.4312 7.95241 52.7652 8.68223C52.1659 9.34493 51.5167 9.8902 50.8424 10.3012C49.7104 10.9807 48.4535 11.3079 46.9968 11.3079C45.923 11.3079 44.8659 11.1317 43.9419 10.9723C43.1512 10.8381 42.402 10.7123 41.7528 10.7123C41.0369 10.7123 40.5125 10.8633 40.0963 11.1821C39.3638 11.7441 39.2889 13.2792 39.214 14.7724C39.1807 15.3848 39.1557 15.9636 39.0808 16.383V16.4082V16.4334C39.0725 17.5491 38.6313 19.7721 37.9487 22.1125C37.183 24.7465 36.2757 26.9863 35.4599 28.2614C34.9771 29.008 33.6953 30.7444 32.122 30.7444C31.7391 30.7444 31.3479 30.6354 30.9733 30.4257C30.4989 30.1572 30.0744 29.763 29.7081 29.2596C29.3835 28.8067 28.8924 28.2446 28.6177 27.6155C28.06 26.332 27.8103 25.7867 27.7354 25.7867C27.6022 25.7951 27.4607 26.0887 26.6116 27.6155C26.2787 28.2195 25.7876 28.8067 25.4629 29.2596C25.0967 29.763 24.6722 30.1572 24.1977 30.4257C23.8231 30.6354 23.5484 30.7444 23.1655 30.7444C22.5579 30.7444 21.9336 30.4844 21.301 29.9643C20.6434 29.4274 20.144 28.7395 19.8277 28.2614C19.0119 26.9863 18.1046 24.7465 17.3388 22.1125C16.6646 19.7804 16.2151 17.5491 16.2068 16.4334V16.4082V16.383C16.1319 15.9636 16.1069 15.3848 16.0736 14.7724C15.9987 13.2876 15.9238 11.7441 15.1913 11.1821C14.7751 10.8633 14.2507 10.7123 13.5348 10.7123C12.8856 10.7123 12.1364 10.8381 11.3456 10.9723C10.4134 11.1317 9.36456 11.3079 8.29078 11.3079C6.83411 11.3079 5.5772 10.9807 4.44515 10.3012C3.77092 9.89859 3.12166 9.35332 2.52234 8.68223C1.86475 7.95241 1.23214 7.03805 0.657792 5.98946L0.233274 5.20093L0.108416 6.07335C-0.00811824 6.90383 -0.0414137 7.81819 0.0335011 8.69901C0.108416 9.68887 0.299865 10.6116 0.591201 11.4505C1.30705 13.4889 2.60558 14.8395 4.34527 15.368C5.39408 15.6868 6.46786 15.8378 7.62488 15.8378C8.55715 15.8378 9.38954 15.7371 10.1387 15.6532C10.7297 15.5861 11.2374 15.5274 11.6869 15.5274C12.2779 15.5274 12.6691 15.6364 12.9605 15.8713C13.3018 16.1481 13.5265 16.6515 13.6514 17.3981C13.6763 17.5574 13.8678 19.0087 14.234 20.7787C14.7418 23.1862 15.3245 25.0737 15.9737 26.3907C16.1069 26.6508 16.2318 26.9192 16.3733 27.2044C16.9143 28.3285 17.4803 29.4945 18.2128 30.5431C19.0702 31.7679 20.0108 32.59 21.0846 33.0765C21.7338 33.3701 22.4081 33.5127 23.0823 33.5127C24.0146 33.5127 24.9052 33.1436 25.8125 32.6654C26.1122 32.5061 27.4773 31.2645 27.7104 30.9374L27.9601 31.2897C28.4096 31.835 28.9173 32.3047 29.475 32.6654C30.3241 33.2191 31.273 33.5127 32.2053 33.5127C32.8795 33.5127 33.5454 33.3617 34.203 33.0765C35.2768 32.5983 36.2174 31.7679 37.0747 30.5431C37.8072 29.4945 38.3733 28.3285 38.9143 27.2044C39.0475 26.9192 39.1807 26.6508 39.3139 26.3907C39.9631 25.0821 40.5541 23.1862 41.0536 20.7787C41.4281 19.0087 41.6196 17.5574 41.6362 17.3981C41.7611 16.6515 41.9858 16.1565 42.3188 15.8713C42.6101 15.6364 43.0013 15.5274 43.5923 15.5274C44.0418 15.5274 44.5496 15.5861 45.1406 15.6532C45.8814 15.7371 46.7221 15.8378 47.6544 15.8378C48.8197 15.8378 49.8935 15.6868 50.934 15.368C52.6737 14.8395 53.9722 13.4889 54.6881 11.4505C54.9794 10.6116 55.1708 9.68887 55.2458 8.69901C55.3124 7.81819 55.2874 6.91222 55.1708 6.07335H55.1792Z" fill="black"/>
<path d="M4.76125 7.65047C5.56867 8.12863 6.51759 8.48095 7.57472 8.68228C7.92433 8.74939 8.37381 8.78294 8.93151 8.78294C9.63072 8.78294 10.4215 8.73261 11.2539 8.68228C12.1112 8.63195 13.0019 8.57323 13.8093 8.57323C15.5989 8.57323 16.5645 8.85005 16.8558 9.45404C17.0306 9.80636 17.1222 10.1084 17.1389 10.3432V10.3684V10.3936C17.1971 10.6285 17.2637 11.1905 17.3636 11.9623C17.5717 13.598 17.8797 16.0727 18.4624 18.7067C19.1699 21.8861 20.0855 24.411 21.1926 26.2146C21.7669 27.1458 22.6992 27.7246 23.6398 27.7246C23.7813 27.7246 23.9311 27.7078 24.0643 27.6826C24.6803 27.582 25.2213 27.1961 25.6791 26.5334C26.395 25.5016 27.3939 22.5236 27.5936 21.8357C27.7768 21.1898 27.8017 20.9214 27.9932 21.8357C28.143 22.5488 28.9671 25.5016 29.6829 26.5334C30.1407 27.1961 30.6901 27.582 31.2978 27.6826C31.4393 27.7078 31.5808 27.7246 31.7223 27.7246C32.6629 27.7246 33.6035 27.1458 34.1695 26.2146C35.2766 24.411 36.1922 21.8861 36.8997 18.7067C37.4824 16.0727 37.7987 13.598 37.9985 11.9623C38.0984 11.1905 38.165 10.6285 38.2232 10.3936V10.3684V10.3432C38.2399 10.1 38.3398 9.80636 38.5062 9.45404C38.6561 9.14366 39.0057 8.91716 39.5634 8.76617C40.0711 8.63195 40.7537 8.56484 41.6443 8.56484C42.4851 8.56484 43.4007 8.62356 44.2913 8.67389C45.1404 8.72422 45.9478 8.77455 46.6636 8.77455C47.2297 8.77455 47.6791 8.741 48.0371 8.67389C49.0942 8.47256 50.0348 8.12863 50.8505 7.64208C51.6247 7.18909 52.2823 6.60189 52.7983 5.91402C53.7639 4.63055 54.28 2.9612 54.28 1.09053V0L53.7389 0.973086C52.9731 2.35722 51.9077 3.32192 50.5009 3.90912C49.3689 4.37889 47.9955 4.61377 46.2974 4.61377C45.0988 4.61377 43.9251 4.50472 42.7847 4.40405C41.8191 4.31178 40.9035 4.22789 40.1127 4.22789C39.6383 4.22789 39.2387 4.26145 38.8975 4.32017C35.826 4.87382 35.6428 6.82838 35.4764 8.55645C35.4514 8.78294 35.3681 11.1318 35.2266 12.7424C35.0185 15.1416 34.6606 17.3226 34.1612 19.2352V19.2772C33.3121 22.4816 32.6046 23.7903 32.1551 24.3272C31.947 24.5369 31.7556 24.6459 31.5725 24.6459C31.5225 24.6459 31.4809 24.6459 31.4309 24.6208C31.406 24.6208 31.3727 24.5956 31.3477 24.5788C31.073 24.2684 30.8483 23.5554 30.7401 23.2115C30.7234 23.1527 30.0991 20.913 30.0825 20.871C29.9576 20.4851 28.5675 15.108 27.8017 15.1248C26.9361 15.1499 25.9289 20.116 25.7957 20.5019C25.4544 21.4834 24.8801 23.1695 24.8634 23.2282C24.7552 23.5722 24.3057 24.2852 24.031 24.5956C23.9977 24.6124 23.9728 24.6292 23.9478 24.6375C23.8978 24.6543 23.8479 24.6627 23.8063 24.6627C23.6315 24.6627 23.4317 24.5537 23.2236 24.3439C22.7741 23.8071 22.0583 22.4984 21.2259 19.294V19.252C20.7181 17.3394 20.3519 15.1499 20.1521 12.7592C20.0106 11.1486 19.9773 9.24432 19.9773 9.23593C19.9773 9.23593 19.9274 8.78294 19.9024 8.55645C19.7359 6.82838 19.5528 4.87382 16.4813 4.32856C16.14 4.26984 15.7404 4.23628 15.2743 4.23628C14.4835 4.23628 13.5846 4.32017 12.6273 4.41244C11.5119 4.51311 10.3632 4.62216 9.18955 4.62216C7.5331 4.62216 6.18464 4.39567 5.06924 3.9259C3.67915 3.33869 2.63867 2.38238 1.86455 0.989864L1.33182 0V1.09892C1.33182 2.96959 1.8479 4.63894 2.81347 5.9224C3.33787 6.61028 3.99546 7.19748 4.76125 7.65047Z" fill="black"/>
<path d="M48.3451 24.7717C48.1952 24.1929 48.087 23.5218 47.8956 23.0353C47.7457 22.6746 46.3307 22.683 46.1559 23.0185C46.0227 23.2702 46.1309 23.094 45.9644 23.6057C45.5149 24.9815 41.9273 23.3121 42.7431 21.7938C43.6421 20.2083 44.5827 18.6312 45.5566 17.0709C45.9394 16.6179 46.955 16.7941 47.4627 16.8696C47.9871 16.9535 49.011 17.1045 49.2523 17.6078C50.2595 19.7134 51.2168 22.037 52.0076 24.3104C52.6485 25.7868 48.9194 25.8958 48.3534 24.755L48.3451 24.7717ZM47.1631 18.7738C46.905 18.7487 46.2974 20.7871 46.4888 21.0556C46.6387 21.2653 47.6958 21.4079 47.8706 21.2317C48.0537 21.0472 47.7957 20.3173 47.6958 19.965C47.5959 19.6127 47.3545 18.799 47.1547 18.7738H47.1631Z" fill="black"/>
<path d="M56.4525 21.2066C56.0113 22.4062 56.6023 23.8742 56.7355 25.0906C57.0269 26.374 53.123 26.3908 53.1313 25.1912C53.1313 24.4866 53.3643 23.7484 53.5059 23.0353C53.5974 22.5656 53.8721 21.7099 53.5308 21.324C53.073 20.7956 51.8494 21.7183 51.2917 21.3995C50.5342 20.9717 50.8256 18.6648 51.4665 18.1951C51.8078 17.9434 52.4737 17.9937 52.9149 17.9854C53.7556 17.9854 54.6046 18.0273 55.4453 18.086C56.2527 18.1447 57.0685 18.2035 57.8676 18.3125C58.3254 18.3712 59.0079 18.3964 59.3326 18.6732C59.8819 19.1514 59.266 21.6093 58.4003 21.626C57.9175 21.626 56.7522 20.351 56.4442 21.2066H56.4525Z" fill="black"/>
<path d="M58.7749 25.9211C58.1422 25.5772 58.8664 23.5555 59.0329 23.0102C59.3658 21.8861 59.7155 20.6027 60.398 19.6296C60.8392 19.0004 61.9962 18.9921 62.7287 19.0004C63.4362 19.0004 64.3602 19.0004 64.9262 19.294C65.3674 19.5205 65.5921 21.6009 64.8596 21.5506C64.3102 21.5087 63.7026 21.3996 63.1282 21.3409C62.6704 21.2906 61.7714 21.0892 61.4135 21.3493C61.1305 21.559 61.1388 22.0959 61.4135 22.2804C61.8963 22.616 63.0284 21.6764 63.4945 22.0288C63.7359 22.2133 63.7942 22.8592 63.5528 23.0606C63.1116 23.4129 61.9712 22.9263 61.4551 23.3038C61.247 23.4548 60.9557 23.8994 61.2054 24.0756C61.4884 24.2769 62.2542 24.042 62.6455 23.9665C63.1699 23.8575 63.6943 23.7149 64.2187 23.6058C64.8679 23.48 65.359 23.8072 65.5172 24.386C65.6171 24.7551 65.6421 25.3758 65.2675 25.6359C64.3269 26.0469 63.0533 26.0553 62.0378 26.1057C61.0556 26.156 59.5656 26.3573 58.7749 25.9295V25.9211Z" fill="black"/>
<path d="M70.5531 24.604C70.1453 24.1762 69.8706 23.6477 69.5543 23.1695C69.496 23.0772 68.9799 22.3055 69.0132 22.834C69.0049 23.4799 69.1048 24.151 69.0715 24.7801C69.0299 25.77 65.8834 26.2482 65.9417 25.0402C65.975 23.7316 65.8335 22.4229 65.7586 21.1227C65.7003 20.116 65.4673 18.8494 65.8169 17.8595C66.4328 16.6012 68.9966 16.5425 70.2202 16.5928C71.6352 16.6515 73.7828 17.1716 73.2418 18.8913C73.0753 19.4282 71.5104 20.8878 71.9682 21.3743C72.4676 21.8944 73.0586 22.4313 73.608 22.9598C74.9315 24.3188 71.4937 25.7448 70.5365 24.6124L70.5531 24.604ZM68.9383 19.7385C68.4555 19.8812 68.3723 21.0136 68.9633 20.7955C69.3295 20.7284 70.395 20.4348 70.3284 19.9231C70.2618 19.3946 69.2546 19.6463 68.9466 19.7385H68.9383Z" fill="black"/>
<path d="M43.2175 32.6486C43.1426 33.7392 40.1543 32.8919 40.1294 31.9608C40.0961 30.7444 40.1627 29.2428 40.3125 28.0768C40.3791 27.5148 41.5111 27.4141 41.9107 27.4309C42.7514 27.4644 43.4756 27.9929 43.434 29.0499C43.3923 30.2495 43.3507 31.4491 43.2259 32.6486H43.2175Z" fill="black"/>
<path d="M53.7056 33.4874C53.5558 34.687 50.2179 34.494 49.7684 33.6384C49.5021 33.1183 49.3106 32.5395 49.0692 31.9942C48.961 31.7426 48.6364 30.954 48.4116 30.9876C48.1286 31.0295 48.3201 32.2207 48.3201 32.5395C48.2951 34.2508 45.0405 33.8062 45.0821 32.3465C45.132 30.4004 45.3568 28.4123 45.3901 26.4913C45.415 25.2833 48.395 26.1054 48.7279 26.8268C49.0776 27.5734 49.3939 28.3619 49.7601 29.1169C49.9099 29.4273 50.3178 30.5765 50.7923 30.5849C51.2334 30.3752 51.0753 29.6873 51.0253 29.335C50.9338 28.6807 50.7673 28.0348 50.7839 27.3805C50.8089 26.0718 54.3049 26.6171 54.28 27.7831C54.2384 29.6789 53.9387 31.6 53.7139 33.4958L53.7056 33.4874Z" fill="black"/>
<path d="M59.6072 35.5343C57.21 35.5343 55.1123 33.5042 55.1956 31.1974C55.2788 28.8821 57.5263 27.5147 59.8403 27.4392C60.7976 27.4141 62.0794 27.3553 62.8702 27.9677C63.3197 28.32 63.4446 28.8317 63.5694 29.3351C63.8524 30.5179 60.3231 30.9205 60.4313 29.9055C60.4396 29.3518 59.5656 29.4106 59.1994 29.528C58.3254 29.8048 57.9009 30.6353 57.8925 31.4322C57.8842 32.3298 58.2505 32.9674 59.2909 33.3281C60.0484 33.5881 61.7132 33.6468 61.8464 32.959C62.0045 32.1033 61.7715 32.1285 61.247 32.1201C60.6061 32.1201 60.4896 32.7325 59.3659 32.5563C58.9663 32.4892 58.8081 32.0614 58.8498 31.7342C58.9247 31.1974 59.4824 30.9205 60.0234 30.9205C60.6893 30.9205 63.8774 30.5766 63.8774 31.7091C63.8774 34.4773 62.4457 35.5259 59.6072 35.5259V35.5343Z" fill="black"/>
<path d="M69.3295 28.5047C68.8884 27.7078 67.3817 28.7899 67.3401 29.3687C67.2819 30.1153 68.9882 29.8804 69.4128 29.8301C70.5864 29.6791 72.7257 29.6288 72.6424 31.2142C72.5425 33.0765 71.0359 34.62 68.6553 34.6872C67.5482 34.7207 64.4517 34.8717 64.535 33.1353C64.5683 32.3803 66.3579 31.5414 66.9739 31.9776C67.7563 32.5229 69.1214 32.892 69.6791 31.835C70.0454 31.1387 68.2641 31.3401 67.9561 31.3569C66.6992 31.4324 64.9262 31.231 64.793 29.7798C64.6099 27.8588 66.9572 26.9276 68.597 26.6508C70.2618 26.3656 71.8683 26.4411 72.426 28.1356C72.8172 29.1674 69.8456 29.461 69.3462 28.5047H69.3295Z" fill="black"/>
<path d="M41.9356 27.003C42.7815 27.003 43.4672 26.312 43.4672 25.4595C43.4672 24.6071 42.7815 23.916 41.9356 23.916C41.0898 23.916 40.4041 24.6071 40.4041 25.4595C40.4041 26.312 41.0898 27.003 41.9356 27.003Z" fill="black"/>
</g>
<defs>
<clipPath id="clip0_644_1215">
<rect width="88" height="48" fill="white"/>
</clipPath>
</defs>
</svg>
