<svg width="61" height="48" viewBox="0 0 61 48" fill="none" xmlns="http://www.w3.org/2000/svg">
<g clip-path="url(#clip0_644_1242)">
<path fill-rule="evenodd" clip-rule="evenodd" d="M4.86068 28.8605C3.60387 29.9173 1.73113 29.7412 0.682401 28.4747C-0.36633 27.2083 -0.191541 25.3211 1.06527 24.2644L15.0484 12.5055L15.1149 12.4468L29.098 0.704683C29.6557 0.243387 30.3216 0.0169321 30.9957 0.0169321L53.1856 0.00854492C55.6243 0.00854492 57.8299 1.00662 59.428 2.60858C61.0261 4.21892 62.0082 6.44153 62.0082 8.8906C62.0082 11.3397 61.0178 13.5707 59.428 15.181C57.8299 16.7914 55.6243 17.781 53.1856 17.781H33.9755V26.5625C33.9755 28.2147 32.6437 29.5651 30.9957 29.5651C30.1717 29.5651 29.431 29.2296 28.8899 28.6844L16.9794 18.6701L4.86068 28.8605ZM28.016 20.1714V14.7784C28.016 13.1261 29.3477 11.7758 30.9957 11.7758H53.1856C53.9763 11.7758 54.6921 11.4487 55.2164 10.9287C55.7325 10.4087 56.0571 9.679 56.0571 8.88221C56.0571 8.08543 55.7325 7.36413 55.2164 6.83573C54.7004 6.31573 53.9763 5.98863 53.1856 5.98863H32.0611L21.6154 14.77L28.0243 20.163L28.016 20.1714Z" fill="black"/>
<path fill-rule="evenodd" clip-rule="evenodd" d="M11.869 6.59228C13.1258 7.64906 13.3006 9.5278 12.2519 10.8027C11.2031 12.0691 9.33871 12.2453 8.07357 11.1885L1.06538 5.29226C-0.191431 4.24386 -0.357896 2.35673 0.682512 1.09027C1.73124 -0.176202 3.60398 -0.352334 4.86079 0.704455L11.869 6.59228Z" fill="black"/>
<path fill-rule="evenodd" clip-rule="evenodd" d="M0 40.1832H1.72292V46.3562H4.99396V47.8743H0V40.1832ZM57.7968 46.44H62V47.8826H56.0738V46.44H57.7968ZM60.7265 43.2948V44.771H56.0738V43.2948H60.7265ZM56.0738 40.1832H61.8835V41.6258H56.0738V40.1832ZM45.778 44.7039C45.778 45.2491 45.9361 45.6852 46.2441 46.0039C46.552 46.3226 46.9682 46.482 47.4842 46.482C48.0003 46.482 48.3831 46.3226 48.6828 46.0123C48.9824 45.6936 49.1322 45.2658 49.1322 44.7039V40.1916H50.8551V44.7039C50.8551 45.3749 50.722 45.962 50.4473 46.4568C50.1726 46.9517 49.7815 47.3291 49.2737 47.5975C48.766 47.8659 48.1667 48.0001 47.4759 48.0001C46.7851 48.0001 46.1858 47.8659 45.6698 47.5975C45.1537 47.3291 44.7542 46.9517 44.4795 46.4568C44.2049 45.962 44.0634 45.3749 44.0634 44.7039V40.1916H45.7863V44.7039H45.778ZM37.513 43.9994H39.0028V46.9852C38.595 47.2871 38.1039 47.5304 37.5379 47.7149C36.9719 47.8994 36.4226 47.9917 35.9066 47.9917C35.1408 47.9917 34.45 47.8155 33.8341 47.4717C33.2182 47.1278 32.7271 46.6497 32.3692 46.0458C32.0113 45.442 31.8365 44.7626 31.8365 44.0161C31.8365 43.2697 32.0196 42.6071 32.3775 42.0032C32.7437 41.3993 33.2431 40.9213 33.8757 40.5774C34.5083 40.2335 35.2157 40.0574 35.9981 40.0574C36.5641 40.0574 37.1218 40.158 37.6628 40.3677C38.2038 40.5774 38.6699 40.8542 39.0611 41.2064L38.0873 42.4477C37.8043 42.1793 37.4797 41.9613 37.1051 41.8103C36.7306 41.6593 36.3643 41.5755 35.9898 41.5755C35.5487 41.5755 35.1408 41.6845 34.7746 41.9026C34.4084 42.1206 34.1171 42.4142 33.909 42.7832C33.7009 43.1523 33.5927 43.5632 33.5927 44.0161C33.5927 44.469 33.7009 44.8884 33.9173 45.2658C34.1337 45.6433 34.425 45.9368 34.7912 46.1549C35.1575 46.3729 35.5653 46.482 36.0064 46.482C36.2312 46.482 36.4725 46.44 36.7389 46.3646C36.9969 46.2891 37.2549 46.18 37.5046 46.0542V43.9994H37.513ZM22.1565 46.3813L21.5573 47.8743H19.7844L23.0971 40.1832H24.8699L28.1326 47.8743H26.2932L25.1363 44.9891L23.9377 42.0032L22.9639 44.4103L22.9056 44.5529L22.7308 44.9891L22.1649 46.3813H22.1565ZM11.4195 46.44H15.6228V47.8826H9.6966V46.44H11.4195ZM14.3493 43.2948V44.771H9.6966V43.2948H14.3493ZM9.6966 40.1832H15.5062V41.6258H9.6966V40.1832Z" fill="black"/>
</g>
<defs>
<clipPath id="clip0_644_1242">
<rect width="62" height="48" fill="white"/>
</clipPath>
</defs>
</svg>
